<svg xmlns="http://www.w3.org/2000/svg" xmlns:xlink="http://www.w3.org/1999/xlink" viewBox="0 0 374.67 220"><defs><style>.cls-1,.cls-5{fill:#fff;}.cls-2,.cls-3{fill:#0072c6;}.cls-2{opacity:0.08;}.cls-2,.cls-3,.cls-5{isolation:isolate;}.cls-3{opacity:0.15;}.cls-4{fill:url(#linear-gradient);}.cls-5{opacity:0.8;}.cls-6{fill:url(#linear-gradient-2);}.cls-7{fill:url(#linear-gradient-3);}.cls-8{fill:url(#linear-gradient-4);}.cls-9{fill:url(#linear-gradient-5);}.cls-10{fill:#f2f2f2;}.cls-11{fill:#50e6ff;}.cls-12{fill:url(#linear-gradient-6);}.cls-13{fill:#231f20;}.cls-14{fill:url(#linear-gradient-7);}.cls-15{fill:url(#linear-gradient-8);}.cls-16{fill:url(#linear-gradient-9);}.cls-17{fill:url(#linear-gradient-10);}.cls-18{fill:none;stroke:#3c3c41;stroke-miterlimit:10;}.cls-19{fill:#3c3c41;}.cls-20{fill:#1e1e1e;}.cls-21{fill:#4f4f4f;}</style><linearGradient id="linear-gradient" x1="81.99" y1="984.27" x2="81.99" y2="1006.88" gradientTransform="translate(0 -833)" gradientUnits="userSpaceOnUse"><stop offset="0.22" stop-color="#32d4f5"/><stop offset="0.47" stop-color="#31d1f3"/><stop offset="0.63" stop-color="#2ec9eb"/><stop offset="0.77" stop-color="#29bade"/><stop offset="0.89" stop-color="#22a5cb"/><stop offset="1" stop-color="#198ab3"/></linearGradient><linearGradient id="linear-gradient-2" x1="81.33" y1="972.13" x2="82.98" y2="992.67" xlink:href="#linear-gradient"/><linearGradient id="linear-gradient-3" x1="81.99" y1="904.47" x2="81.99" y2="927.08" gradientTransform="translate(0 -833)" gradientUnits="userSpaceOnUse"><stop offset="0.1" stop-color="#54aef0"/><stop offset="1" stop-color="#1988d9"/></linearGradient><linearGradient id="linear-gradient-4" x1="81.33" y1="892.33" x2="82.98" y2="912.87" xlink:href="#linear-gradient-3"/><linearGradient id="linear-gradient-5" x1="200.55" y1="992.8" x2="200.55" y2="1022.65" gradientTransform="translate(0 -833)" gradientUnits="userSpaceOnUse"><stop offset="0" stop-color="#5ea0ef"/><stop offset="0.18" stop-color="#559cec"/><stop offset="0.47" stop-color="#3c91e5"/><stop offset="0.84" stop-color="#1380da"/><stop offset="1" stop-color="#0078d4"/></linearGradient><linearGradient id="linear-gradient-6" x1="195.55" y1="1022.96" x2="195.55" y2="1008.5" gradientTransform="translate(0 -833)" gradientUnits="userSpaceOnUse"><stop offset="0" stop-color="#198ab3"/><stop offset="0.14" stop-color="#22a5cb"/><stop offset="0.3" stop-color="#29bade"/><stop offset="0.47" stop-color="#2ec9eb"/><stop offset="0.68" stop-color="#31d1f3"/><stop offset="1" stop-color="#32d4f5"/></linearGradient><linearGradient id="linear-gradient-7" x1="321.6" y1="1004.76" x2="321.6" y2="982.8" gradientTransform="translate(0 -833)" gradientUnits="userSpaceOnUse"><stop offset="0" stop-color="#773adc"/><stop offset="0.25" stop-color="#9255e6"/><stop offset="0.5" stop-color="#a669ee"/><stop offset="0.76" stop-color="#b376f2"/><stop offset="1" stop-color="#b77af4"/></linearGradient><linearGradient id="linear-gradient-8" x1="321.62" y1="989.2" x2="321.62" y2="969.21" xlink:href="#linear-gradient-7"/><linearGradient id="linear-gradient-9" x1="321.6" y1="923.79" x2="321.6" y2="902.04" gradientTransform="translate(0 -833)" gradientUnits="userSpaceOnUse"><stop offset="0" stop-color="#5e9624"/><stop offset="0.26" stop-color="#70a828"/><stop offset="0.79" stop-color="#9fd732"/><stop offset="1" stop-color="#b4ec36"/></linearGradient><linearGradient id="linear-gradient-10" x1="321.67" y1="908.37" x2="321.67" y2="888.55" xlink:href="#linear-gradient-9"/></defs><title>OJ105365104</title><g id="backgroud"><g id="Shapes"><rect class="cls-1" width="374.67" height="220"/><rect class="cls-2" x="29.48" y="55" width="345.19" height="70"/><rect class="cls-2" x="29.48" y="134.8" width="345.19" height="85.2"/><rect class="cls-3" x="29.48" width="105" height="220"/><rect class="cls-3" x="269.1" width="105.57" height="220"/><path class="cls-4" d="M93.18,169.8a2.42,2.42,0,0,0,2.42-2.42h0a.66.66,0,0,0,0-.28c-1-7.62-5.28-13.82-13.62-13.82s-12.76,5.25-13.61,13.84a2.43,2.43,0,0,0,2.15,2.68Z"/><path class="cls-5" d="M82,155.08a7.66,7.66,0,0,1-4.13-1.21L82,164.57l4.07-10.64A7.6,7.6,0,0,1,82,155.08Z"/><circle class="cls-6" cx="82" cy="147.43" r="7.63"/><path class="cls-7" d="M93.18,90a2.42,2.42,0,0,0,2.42-2.42h0a.66.66,0,0,0,0-.28c-1-7.62-5.28-13.82-13.62-13.82S69.22,78.73,68.37,87.32A2.43,2.43,0,0,0,70.52,90Z"/><path class="cls-5" d="M82,75.28a7.66,7.66,0,0,1-4.13-1.21L82,84.77l4.07-10.64A7.51,7.51,0,0,1,82,75.28Z"/><circle class="cls-8" cx="82" cy="67.63" r="7.63"/><g id="b1186d34-5ca3-4e43-992d-40ecef5e891b"><path class="cls-9" d="M208.31,159.8H192.79a1,1,0,0,0-1,1v22.1a18.94,18.94,0,0,1,2.51-1.77h2.94l1.63,2.16v3.28l-2.05,1.49-2.86-.35-2.17-2.06v3a1,1,0,0,0,1,1h15.52a1,1,0,0,0,1-1V160.79A1,1,0,0,0,208.31,159.8Z"/><path id="af47f827-8b1b-4acd-8974-8eafe35490c9" class="cls-10" d="M194.1,162.9H197a.25.25,0,0,1,.25.25h0v3.68a.25.25,0,0,1-.25.25h-2.9a.25.25,0,0,1-.25-.25h0v-3.68A.25.25,0,0,1,194.1,162.9Zm5,0H202a.25.25,0,0,1,.25.25h0v3.68a.25.25,0,0,1-.25.25h-2.85a.25.25,0,0,1-.25-.25h0v-3.68a.25.25,0,0,1,.25-.25Zm5,0H207a.26.26,0,0,1,.24.25h0v3.68a.26.26,0,0,1-.24.25h-2.86a.25.25,0,0,1-.25-.25h0v-3.68a.25.25,0,0,1,.25-.25Zm-10,6.66H197a.25.25,0,0,1,.25.25h0v3.72a.25.25,0,0,1-.25.25h-2.9a.25.25,0,0,1-.25-.25h0v-3.68a.25.25,0,0,1,.2-.29h0Zm5,0H202a.25.25,0,0,1,.25.25h0v3.72a.25.25,0,0,1-.25.25h-2.85a.25.25,0,0,1-.25-.25h0v-3.68a.26.26,0,0,1,.21-.29Zm5,0H207a.26.26,0,0,1,.24.25h0v3.72a.26.26,0,0,1-.24.25h-2.86a.25.25,0,0,1-.25-.25h0v-3.68a.27.27,0,0,1,.21-.29Zm-10,6.74H197a.26.26,0,0,1,.25.24h0v3.65a.25.25,0,0,1-.25.25h-2.9a.25.25,0,0,1-.25-.25v-3.65A.26.26,0,0,1,194.1,176.3Zm5,0H202a.26.26,0,0,1,.25.24h0v3.65a.25.25,0,0,1-.25.25h-2.85a.25.25,0,0,1-.25-.25h0v-3.65a.25.25,0,0,1,.21-.24Zm0,6.69H202a.25.25,0,0,1,.25.25h0v5.46a.25.25,0,0,1-.25.25h-2.85a.25.25,0,0,1-.25-.25v-5.46a.25.25,0,0,1,.25-.25Zm5-6.69H207a.24.24,0,0,1,.24.24h0v3.65a.26.26,0,0,1-.24.25h-2.86a.25.25,0,0,1-.25-.25h0v-3.65a.26.26,0,0,1,.25-.24Z"/><path class="cls-11" d="M195.58,182a2.28,2.28,0,0,0-2.19,1.77h-8a5,5,0,0,0-.14,1.15V185h8.12a2.28,2.28,0,1,0,2.19-3Z"/><path class="cls-12" d="M201.79,181a5.79,5.79,0,0,0-6-5.51,5.93,5.93,0,0,0-5.67,3.86,5.63,5.63,0,0,0-4.5,3.54H193a3,3,0,1,1-.06,2.61h-7.5a5.67,5.67,0,0,0,5.6,4.3h10.1a4.65,4.65,0,0,0,4.6-4.29A4.61,4.61,0,0,0,201.79,181Z"/><path class="cls-11" d="M195.58,182a2.28,2.28,0,0,0-2.19,1.77h-8a3.85,3.85,0,0,1-.83-.11,4,4,0,0,1,.44-7.94h.39l.13-.35a4.51,4.51,0,0,1,4.36-3,4.67,4.67,0,0,1,4,2.25,5.38,5.38,0,0,1,1.33-.16,5.89,5.89,0,0,0-5.32-3.35,5.8,5.8,0,0,0-5.48,3.46,5.21,5.21,0,0,0-.4,10.2h0a3.53,3.53,0,0,0,1.29.21h8a2.29,2.29,0,0,0,4.39-1.32,2.3,2.3,0,0,0-2.2-1.63Z"/></g><polygon class="cls-13" points="191.55 98.25 214.67 98.25 202.17 76.63 198.42 87.13 205.67 95.75 191.55 98.25"/><polygon class="cls-13" points="201.17 75 192.3 82.5 184.67 95.63 191.55 95.63 191.55 95.75 201.17 75"/><path class="cls-14" d="M332.45,169.8a2.36,2.36,0,0,0,2.37-2.34h0v-.28c-.93-7.39-5.14-13.41-13.19-13.41s-12.35,5.09-13.23,13.42a2.37,2.37,0,0,0,2.1,2.61Z"/><path class="cls-1" d="M321.62,155.52a7.47,7.47,0,0,1-4-1.17l4,10.33,3.86-10.28A7.21,7.21,0,0,1,321.62,155.52Z"/><circle class="cls-15" cx="321.62" cy="148.12" r="7.42"/><path class="cls-16" d="M332.34,88.85a2.29,2.29,0,0,0,2.33-2.25h0a1.31,1.31,0,0,0,0-.28C333.75,78.94,329.59,73,321.61,73s-12.21,5-13.07,13.31a2.35,2.35,0,0,0,2.1,2.57Z"/><path class="cls-1" d="M321.75,74.7a7.35,7.35,0,0,1-4-1.16l3.84,10.28,3.92-10.21A7.44,7.44,0,0,1,321.75,74.7Z"/><circle class="cls-17" cx="321.67" cy="67.36" r="7.36"/><line class="cls-18" x1="104.67" y1="85" x2="174.29" y2="85"/><polygon class="cls-19" points="173.2 88.74 179.67 85 173.2 81.26 173.2 88.74"/><line class="cls-18" x1="225.06" y1="85" x2="299.67" y2="85"/><polygon class="cls-19" points="226.15 88.74 219.67 85 226.15 81.26 226.15 88.74"/><line class="cls-18" x1="104.67" y1="167.07" x2="174.29" y2="167.07"/><polygon class="cls-19" points="173.2 170.81 179.67 167.06 173.2 163.33 173.2 170.81"/><line class="cls-18" x1="225.06" y1="167.07" x2="299.67" y2="167.07"/><polygon class="cls-19" points="226.15 170.81 219.67 167.06 226.15 163.33 226.15 170.81"/></g></g><g id="txt"><path class="cls-20" d="M311.76,16.65h-2l-.58-1.87h-2.87l-.57,1.87h-2l2.94-8.4h2.16Zm-3-3.32-.87-2.82a3.82,3.82,0,0,1-.14-.76h0a3.62,3.62,0,0,1-.14.73l-.88,2.85Z"/><path class="cls-20" d="M316.88,16.65H311.7v-.77L314.6,12H312V10.65h4.87v.92l-2.75,3.72h2.77Z"/><path class="cls-20" d="M323,16.65h-1.77v-.91h0a2,2,0,0,1-1.77,1.06c-1.33,0-2-.84-2-2.53V10.65h1.77v3.46c0,.85.33,1.27,1,1.27A1,1,0,0,0,321,15a1.45,1.45,0,0,0,.29-.94V10.65H323Z"/><path class="cls-20" d="M328,12.32a1.54,1.54,0,0,0-.75-.18,1.08,1.08,0,0,0-.91.44,2,2,0,0,0-.33,1.21v2.86h-1.78v-6H326v1.12h0a1.54,1.54,0,0,1,1.52-1.22,1.06,1.06,0,0,1,.44.07Z"/><path class="cls-20" d="M333.69,14.18h-3.77c.06.87.59,1.31,1.59,1.31a3,3,0,0,0,1.67-.47v1.33a4.22,4.22,0,0,1-2.08.45,2.87,2.87,0,0,1-2.17-.81,3.11,3.11,0,0,1-.77-2.24,3.31,3.31,0,0,1,.83-2.37,2.74,2.74,0,0,1,2.05-.87,2.47,2.47,0,0,1,2,.78,3,3,0,0,1,.69,2.11ZM332,13c0-.86-.34-1.29-1-1.29a1,1,0,0,0-.74.37,1.77,1.77,0,0,0-.38.92Z"/><path class="cls-20" d="M337.6,14.1h-3.08V12.8h3.08Z"/><path class="cls-20" d="M282.8,29.65H278v-8.4h1.82v6.87h3Z"/><path class="cls-20" d="M286.17,29.8A3,3,0,0,1,283.9,29a3.11,3.11,0,0,1-.82-2.28,3.1,3.1,0,0,1,.85-2.33,3.18,3.18,0,0,1,2.32-.84,3,3,0,0,1,2.25.84,3,3,0,0,1,.82,2.22,3.24,3.24,0,0,1-.84,2.36A3.06,3.06,0,0,1,286.17,29.8Zm-1.24-7.1a.84.84,0,0,1-.62-.23.72.72,0,0,1-.25-.57.78.78,0,0,1,.25-.58.89.89,0,0,1,.62-.22.86.86,0,0,1,.62.22.77.77,0,0,1,.24.58.75.75,0,0,1-.24.58A.86.86,0,0,1,284.93,22.7Zm1.29,2.22a1.14,1.14,0,0,0-1,.46,2,2,0,0,0-.35,1.27c0,1.15.44,1.73,1.34,1.73s1.28-.59,1.28-1.77S287.08,24.92,286.22,24.92Zm1.29-2.22a.84.84,0,0,1-.62-.23.81.81,0,0,1,0-1.15,1,1,0,0,1,1.24,0,.74.74,0,0,1,.25.58.77.77,0,0,1-.24.58A.88.88,0,0,1,287.51,22.7Z"/><path class="cls-20" d="M289.8,29.49V28a3.65,3.65,0,0,0,.88.41,2.83,2.83,0,0,0,.83.14,1.68,1.68,0,0,0,.74-.14.42.42,0,0,0,.28-.41.37.37,0,0,0-.13-.29.92.92,0,0,0-.32-.2,2.3,2.3,0,0,0-.42-.16l-.45-.16a4.21,4.21,0,0,1-.6-.29,1.57,1.57,0,0,1-.44-.36,1.42,1.42,0,0,1-.27-.48,1.93,1.93,0,0,1-.1-.63,1.7,1.7,0,0,1,.22-.87,1.78,1.78,0,0,1,.56-.6,2.71,2.71,0,0,1,.81-.34,4.11,4.11,0,0,1,.94-.1,5.32,5.32,0,0,1,.78.06,5.06,5.06,0,0,1,.77.18v1.43a2.57,2.57,0,0,0-.72-.31,2.89,2.89,0,0,0-.76-.1l-.33,0a1.07,1.07,0,0,0-.27.09.6.6,0,0,0-.19.16.44.44,0,0,0,0,.5.67.67,0,0,0,.26.2,2.57,2.57,0,0,0,.37.16l.39.13a6.67,6.67,0,0,1,.65.28,2.3,2.3,0,0,1,.49.36,1.55,1.55,0,0,1,.32.48,1.87,1.87,0,0,1,.1.66,1.75,1.75,0,0,1-.22.91,1.72,1.72,0,0,1-.59.61,2.58,2.58,0,0,1-.85.35,4.71,4.71,0,0,1-1,.11A4.88,4.88,0,0,1,289.8,29.49Z"/><path class="cls-20" d="M300.46,29.65h-1.78v-.91h0a2,2,0,0,1-1.76,1.06c-1.34,0-2-.84-2-2.53V23.65h1.78v3.46c0,.85.32,1.27,1,1.27a.94.94,0,0,0,.76-.35,1.45,1.45,0,0,0,.29-.94V23.65h1.78Z"/><path class="cls-20" d="M307.24,29.65h-1.78V26.32c0-.93-.31-1.4-.95-1.4a1,1,0,0,0-.76.37,1.45,1.45,0,0,0-.3.94v3.42h-1.78v-6h1.78v1h0a2,2,0,0,1,1.85-1.09c1.28,0,1.92.82,1.92,2.47Z"/><path class="cls-20" d="M314,29a3.46,3.46,0,0,1-.93,2.58,3.64,3.64,0,0,1-2.69.92,4.13,4.13,0,0,1-1.85-.34V30.57a3.42,3.42,0,0,0,1.8.54,1.88,1.88,0,0,0,1.39-.5,1.82,1.82,0,0,0,.5-1.34v-.48h0a2,2,0,0,1-1.8,1,2.11,2.11,0,0,1-1.75-.81,3.32,3.32,0,0,1-.65-2.17,3.77,3.77,0,0,1,.72-2.42,2.3,2.3,0,0,1,1.9-.89,1.74,1.74,0,0,1,1.58.84h0v-.7H314Zm-1.76-2.2v-.48a1.5,1.5,0,0,0-.32-1,1,1,0,0,0-.84-.41,1.06,1.06,0,0,0-.93.48,2.32,2.32,0,0,0-.34,1.36,1.9,1.9,0,0,0,.32,1.18,1,1,0,0,0,.88.44,1.08,1.08,0,0,0,.89-.44A1.87,1.87,0,0,0,312.26,26.77Z"/><path class="cls-20" d="M314.84,29.49V28a3.48,3.48,0,0,0,.88.41,2.77,2.77,0,0,0,.82.14,1.7,1.7,0,0,0,.75-.14.43.43,0,0,0,.27-.41.4.4,0,0,0-.12-.29.92.92,0,0,0-.32-.2,2.61,2.61,0,0,0-.42-.16,4.72,4.72,0,0,1-.45-.16,5,5,0,0,1-.61-.29,1.53,1.53,0,0,1-.43-.36,1.64,1.64,0,0,1-.28-.48,2,2,0,0,1-.09-.63,1.7,1.7,0,0,1,.21-.87,1.81,1.81,0,0,1,.57-.6,2.76,2.76,0,0,1,.8-.34,4.19,4.19,0,0,1,.95-.1,5.09,5.09,0,0,1,.77.06,4.92,4.92,0,0,1,.78.18v1.43a2.57,2.57,0,0,0-.72-.31,2.89,2.89,0,0,0-.76-.1,1.69,1.69,0,0,0-.33,0,1.07,1.07,0,0,0-.27.09.6.6,0,0,0-.19.16.41.41,0,0,0-.07.22.45.45,0,0,0,.1.28.79.79,0,0,0,.27.2,3,3,0,0,0,.36.16l.4.13a5.56,5.56,0,0,1,.64.28,2.37,2.37,0,0,1,.5.36,1.52,1.52,0,0,1,.31.48,1.66,1.66,0,0,1,.11.66,1.75,1.75,0,0,1-.22.91,1.81,1.81,0,0,1-.59.61,2.58,2.58,0,0,1-.85.35,4.71,4.71,0,0,1-1,.11A4.84,4.84,0,0,1,314.84,29.49Z"/><path class="cls-20" d="M324.81,29.65h-1.68v-.86h0a1.87,1.87,0,0,1-1.72,1,1.76,1.76,0,0,1-1.32-.5,1.82,1.82,0,0,1-.48-1.32c0-1.16.66-1.83,2-2l1.57-.22c0-.66-.35-1-1-1a3.43,3.43,0,0,0-2,.63V24a4.43,4.43,0,0,1,1-.35,5.21,5.21,0,0,1,1.17-.15c1.65,0,2.47.85,2.47,2.56Zm-1.67-2.44v-.4l-1.05.14c-.58.08-.87.35-.87.82a.66.66,0,0,0,.21.51.77.77,0,0,0,.57.21,1,1,0,0,0,.82-.36A1.36,1.36,0,0,0,323.14,27.21Z"/><path class="cls-20" d="M329.7,25.32a1.54,1.54,0,0,0-.75-.18,1.08,1.08,0,0,0-.91.44,2,2,0,0,0-.33,1.21v2.86h-1.78v-6h1.78v1.12h0a1.55,1.55,0,0,1,1.53-1.22,1.1,1.1,0,0,1,.44.07Z"/><path class="cls-20" d="M334.57,29.44a3.49,3.49,0,0,1-1.75.36,2.89,2.89,0,0,1-2.15-.84,3,3,0,0,1-.82-2.16,3.25,3.25,0,0,1,.88-2.41,3.18,3.18,0,0,1,2.36-.88,2.93,2.93,0,0,1,1.48.28v1.57a2,2,0,0,0-1.25-.44,1.59,1.59,0,0,0-1.21.47,1.78,1.78,0,0,0-.45,1.29,1.74,1.74,0,0,0,.43,1.25,1.52,1.52,0,0,0,1.17.45,2.3,2.3,0,0,0,1.31-.43Z"/><path class="cls-20" d="M341,29.65h-1.77V26.24q0-1.32-.93-1.32a.94.94,0,0,0-.76.37,1.45,1.45,0,0,0-.3.94v3.42h-1.78V20.77h1.78v3.77h0a2,2,0,0,1,1.77-1c1.31,0,2,.82,2,2.46Z"/><path class="cls-20" d="M343,22.7a1,1,0,0,1-.74-.28.91.91,0,0,1-.29-.68.89.89,0,0,1,.29-.68,1.18,1.18,0,0,1,1.48,0,.88.88,0,0,1,.28.68.9.9,0,0,1-.28.69A1,1,0,0,1,343,22.7Zm.87,7H342.1v-6h1.78Z"/><path class="cls-20" d="M348.58,29.58a2.47,2.47,0,0,1-1.19.22c-1.25,0-1.88-.68-1.88-2V25h-.93V23.65h.93V22.36l1.78-.53v1.82h1.29V25h-1.29v2.42c0,.63.24.94.71.94a1.2,1.2,0,0,0,.58-.17Z"/><path class="cls-20" d="M354.44,27.18h-3.77c.06.87.59,1.31,1.59,1.31a3,3,0,0,0,1.67-.47v1.33a4.19,4.19,0,0,1-2.08.45,2.87,2.87,0,0,1-2.17-.81,3.11,3.11,0,0,1-.77-2.24,3.27,3.27,0,0,1,.84-2.37,2.71,2.71,0,0,1,2.05-.87,2.47,2.47,0,0,1,1.95.78,3,3,0,0,1,.69,2.11ZM352.79,26c0-.86-.34-1.29-1-1.29a1,1,0,0,0-.75.37,1.77,1.77,0,0,0-.38.92Z"/><path class="cls-20" d="M361,29.65h-2.13l-1.85-3h0v3h-1.78V20.77H357v5.65h0l1.72-2.77h2.12l-2.07,2.82Z"/><path class="cls-20" d="M364.8,29.58a2.49,2.49,0,0,1-1.19.22c-1.26,0-1.89-.68-1.89-2V25h-.93V23.65h.93V22.36l1.78-.53v1.82h1.3V25h-1.3v2.42c0,.63.24.94.72.94a1.23,1.23,0,0,0,.58-.17Z"/><path d="M29.25,45H28.16l-.9-2.36H23.7L22.86,45H21.77L25,36.6h1Zm-2.31-3.24-1.32-3.58a3.61,3.61,0,0,1-.12-.56h0a3.36,3.36,0,0,1-.13.56L24,41.76Z"/><path d="M34.54,39.28,31,44.18H34.5V45H29.57v-.3l3.55-4.88H29.91V39h4.63Z"/><path d="M40.63,45h-1v-1h0a2,2,0,0,1-1.86,1.09c-1.43,0-2.14-.85-2.14-2.55V39h1v3.43c0,1.27.49,1.9,1.46,1.9a1.44,1.44,0,0,0,1.15-.52,1.92,1.92,0,0,0,.46-1.35V39h1Z"/><path d="M45.7,40a1.18,1.18,0,0,0-.73-.19,1.23,1.23,0,0,0-1,.58,2.72,2.72,0,0,0-.41,1.58V45h-1V39h1v1.24h0a2.12,2.12,0,0,1,.63-1,1.42,1.42,0,0,1,.94-.36,1.46,1.46,0,0,1,.58.09Z"/><path d="M51.56,42.24H47.33a2.21,2.21,0,0,0,.54,1.55,1.85,1.85,0,0,0,1.41.54,2.94,2.94,0,0,0,1.87-.67v.91a3.52,3.52,0,0,1-2.09.57,2.52,2.52,0,0,1-2-.82,3.81,3.81,0,0,1,.07-4.58,2.51,2.51,0,0,1,2-.88,2.25,2.25,0,0,1,1.82.76,3.18,3.18,0,0,1,.64,2.12Zm-1-.81a2,2,0,0,0-.4-1.3,1.37,1.37,0,0,0-1.1-.46,1.59,1.59,0,0,0-1.16.48,2.24,2.24,0,0,0-.58,1.28Z"/><path d="M56.09,42h-3.2v-.76h3.2Z"/><path d="M64.45,45H63.36l-.89-2.36H58.91L58.07,45H57l3.22-8.4h1Zm-2.3-3.24-1.32-3.58a2.59,2.59,0,0,1-.13-.56h0a2.59,2.59,0,0,1-.13.56l-1.31,3.58Z"/><path d="M70.68,45h-1V44h0a2.21,2.21,0,0,1-2.06,1.16,2.24,2.24,0,0,1-1.81-.81,3.28,3.28,0,0,1-.67-2.19,3.57,3.57,0,0,1,.75-2.38,2.46,2.46,0,0,1,2-.9,1.91,1.91,0,0,1,1.8,1h0V36.12h1Zm-1-2.71V41.4a1.73,1.73,0,0,0-.48-1.23,1.64,1.64,0,0,0-1.22-.5,1.67,1.67,0,0,0-1.39.64,2.87,2.87,0,0,0-.5,1.78,2.54,2.54,0,0,0,.48,1.64,1.73,1.73,0,0,0,2.6,0A2.11,2.11,0,0,0,69.72,42.29Z"/><path d="M81.14,45h-1V41.55a2.57,2.57,0,0,0-.31-1.44,1.17,1.17,0,0,0-1-.44,1.3,1.3,0,0,0-1,.56,2.2,2.2,0,0,0-.43,1.35V45h-1V41.44c0-1.18-.45-1.77-1.36-1.77A1.26,1.26,0,0,0,74,40.2a2.2,2.2,0,0,0-.41,1.38V45h-1V39h1v1h0a2,2,0,0,1,1.86-1.09,1.73,1.73,0,0,1,1.7,1.24,2.13,2.13,0,0,1,2-1.24c1.32,0,2,.81,2,2.44Z"/><path d="M83.45,37.48A.6.6,0,0,1,83,37.3a.59.59,0,0,1-.18-.44.61.61,0,0,1,.18-.45.6.6,0,0,1,.44-.18.62.62,0,0,1,.63.63.63.63,0,0,1-.63.62ZM83.92,45H83V39h1Z"/><path d="M90.84,45h-1V41.58c0-1.28-.46-1.91-1.39-1.91a1.5,1.5,0,0,0-1.19.54,2,2,0,0,0-.47,1.37V45h-1V39h1v1h0a2.16,2.16,0,0,1,2-1.14,1.81,1.81,0,0,1,1.5.64,2.79,2.79,0,0,1,.52,1.83Z"/><path d="M93.15,37.48a.6.6,0,0,1-.44-.18.59.59,0,0,1-.18-.44.61.61,0,0,1,.18-.45.6.6,0,0,1,.44-.18.64.64,0,0,1,.45.18.61.61,0,0,1,.18.45.58.58,0,0,1-.18.43A.61.61,0,0,1,93.15,37.48ZM93.62,45h-1V39h1Z"/><path d="M95.2,44.78v-1a2.82,2.82,0,0,0,1.73.58q1.26,0,1.26-.84a.68.68,0,0,0-.11-.41,1,1,0,0,0-.29-.29,2.19,2.19,0,0,0-.43-.24l-.54-.21c-.26-.11-.5-.21-.7-.32a2.22,2.22,0,0,1-.5-.36,1.38,1.38,0,0,1-.31-.46,1.63,1.63,0,0,1-.1-.61,1.38,1.38,0,0,1,.19-.74,1.7,1.7,0,0,1,.52-.55,2.43,2.43,0,0,1,.73-.33,3.49,3.49,0,0,1,.86-.11,3.41,3.41,0,0,1,1.39.27v1a2.7,2.7,0,0,0-1.52-.43,1.88,1.88,0,0,0-.49.06,1.26,1.26,0,0,0-.37.17,1,1,0,0,0-.24.27.67.67,0,0,0-.09.34.75.75,0,0,0,.09.39,1,1,0,0,0,.25.29,2.11,2.11,0,0,0,.4.22l.53.22a6,6,0,0,1,.71.31,2.3,2.3,0,0,1,.54.36,1.37,1.37,0,0,1,.47,1.09,1.51,1.51,0,0,1-.2.78,1.68,1.68,0,0,1-.52.54,2.5,2.5,0,0,1-.76.33,3.71,3.71,0,0,1-.9.1A3.37,3.37,0,0,1,95.2,44.78Z"/><path d="M103.44,44.94a1.82,1.82,0,0,1-.9.19c-1.05,0-1.58-.59-1.58-1.76V39.82h-1V39h1V37.54l1-.32V39h1.52v.82h-1.52V43.2a1.37,1.37,0,0,0,.21.86.83.83,0,0,0,.68.26,1.05,1.05,0,0,0,.63-.2Z"/><path d="M107.85,40a1.18,1.18,0,0,0-.73-.19,1.23,1.23,0,0,0-1,.58,2.72,2.72,0,0,0-.41,1.58V45h-1V39h1v1.24h0a2.12,2.12,0,0,1,.63-1,1.42,1.42,0,0,1,.94-.36,1.46,1.46,0,0,1,.58.09Z"/><path d="M113.19,45h-1v-.94h0a2.2,2.2,0,0,1-3.25.61,1.68,1.68,0,0,1-.5-1.26c0-1.12.66-1.78,2-2l1.8-.25c0-1-.42-1.53-1.24-1.53a2.92,2.92,0,0,0-2,.74v-1a3.76,3.76,0,0,1,2-.56c1.41,0,2.12.75,2.12,2.24Zm-1-3-1.45.2a2.43,2.43,0,0,0-1,.34,1.08,1.08,0,0,0,0,1.55,1.2,1.2,0,0,0,.84.28,1.51,1.51,0,0,0,1.18-.5,1.8,1.8,0,0,0,.47-1.27Z"/><path d="M117.78,44.94a1.82,1.82,0,0,1-.9.19c-1,0-1.57-.59-1.57-1.76V39.82h-1V39h1V37.54l1-.32V39h1.51v.82h-1.51V43.2a1.45,1.45,0,0,0,.2.86.84.84,0,0,0,.68.26,1,1,0,0,0,.63-.2Z"/><path d="M121.57,45.14a2.77,2.77,0,0,1-2.12-.84,3.11,3.11,0,0,1-.8-2.23,3.25,3.25,0,0,1,.83-2.36,3,3,0,0,1,2.23-.85,2.68,2.68,0,0,1,2.1.83,3.77,3.77,0,0,1-.06,4.59A2.87,2.87,0,0,1,121.57,45.14Zm.07-5.47a1.81,1.81,0,0,0-1.46.63,2.59,2.59,0,0,0-.54,1.74,2.46,2.46,0,0,0,.54,1.68,1.86,1.86,0,0,0,1.46.61,1.75,1.75,0,0,0,1.43-.6,3.17,3.17,0,0,0,0-3.45A1.73,1.73,0,0,0,121.64,39.67Z"/><path d="M129.22,40a1.14,1.14,0,0,0-.72-.19,1.21,1.21,0,0,0-1,.58,2.64,2.64,0,0,0-.41,1.58V45h-1V39h1v1.24h0a2,2,0,0,1,.63-1,1.54,1.54,0,0,1,1.51-.27Z"/><path d="M135.09,42.24h-4.24a2.3,2.3,0,0,0,.54,1.55,1.88,1.88,0,0,0,1.42.54,2.89,2.89,0,0,0,1.86-.67v.91a3.47,3.47,0,0,1-2.09.57,2.53,2.53,0,0,1-2-.82,3.35,3.35,0,0,1-.72-2.3,3.28,3.28,0,0,1,.79-2.28,2.54,2.54,0,0,1,2-.88,2.24,2.24,0,0,1,1.82.76,3.18,3.18,0,0,1,.65,2.12Zm-1-.81a1.91,1.91,0,0,0-.4-1.3,1.36,1.36,0,0,0-1.1-.46,1.56,1.56,0,0,0-1.15.48,2.25,2.25,0,0,0-.59,1.28Z"/><path d="M141.52,45h-1V41.58c0-1.28-.46-1.91-1.39-1.91a1.54,1.54,0,0,0-1.2.54,2,2,0,0,0-.47,1.37V45h-1V39h1v1h0a2.16,2.16,0,0,1,2-1.14,1.82,1.82,0,0,1,1.5.64,2.79,2.79,0,0,1,.52,1.83Z"/><path class="cls-21" d="M116.58,71.81l-4.92,7.28h4.8V80h-6.27v-.27l4.88-7.24h-4.49v-.89h6Z"/><path class="cls-21" d="M125.37,74l-1.8,6h-1l-1.23-4.29a3,3,0,0,1-.1-.56h0a2.64,2.64,0,0,1-.12.55L119.75,80h-1L117,74h1l1.25,4.51a3.12,3.12,0,0,1,.08.54h0a2.38,2.38,0,0,1,.1-.55l1.38-4.5h.88L123,78.51a4.67,4.67,0,0,1,.08.53h0a2.42,2.42,0,0,1,.1-.53L124.42,74Z"/><path class="cls-21" d="M131.3,77.22h-4.23a2.19,2.19,0,0,0,.54,1.55,1.85,1.85,0,0,0,1.41.54,3,3,0,0,0,1.87-.66v.9a3.52,3.52,0,0,1-2.09.57,2.54,2.54,0,0,1-2-.81,3.85,3.85,0,0,1,.06-4.59,2.58,2.58,0,0,1,2-.88,2.28,2.28,0,0,1,1.82.76,3.19,3.19,0,0,1,.64,2.12Zm-1-.81a2,2,0,0,0-.4-1.3,1.37,1.37,0,0,0-1.1-.46,1.56,1.56,0,0,0-1.16.49,2.18,2.18,0,0,0-.58,1.27Z"/><path class="cls-21" d="M136.85,79.71a3.19,3.19,0,0,1-1.64.41,2.76,2.76,0,0,1-2.08-.83,3.06,3.06,0,0,1-.78-2.17,3.3,3.3,0,0,1,.85-2.38,3,3,0,0,1,2.26-.9,3.24,3.24,0,0,1,1.4.29v1a2.47,2.47,0,0,0-1.43-.47,1.92,1.92,0,0,0-1.51.66,2.52,2.52,0,0,0-.59,1.73,2.41,2.41,0,0,0,.55,1.66,1.91,1.91,0,0,0,1.49.61,2.41,2.41,0,0,0,1.48-.52Z"/><path class="cls-21" d="M143.28,80h-1.35l-2.65-2.88h0V80h-1V71.1h1v5.63h0L141.8,74h1.26l-2.78,2.9Z"/><path class="cls-21" d="M255.16,80v-8.4h2.39a2.63,2.63,0,0,1,1.73.53,1.72,1.72,0,0,1,.64,1.39,2,2,0,0,1-.39,1.24,2,2,0,0,1-1.06.75v0a2.13,2.13,0,0,1,1.36.64,2,2,0,0,1,.51,1.41,2.17,2.17,0,0,1-.78,1.74,2.84,2.84,0,0,1-1.95.67Zm1-7.51v2.71h1a1.93,1.93,0,0,0,1.27-.39,1.34,1.34,0,0,0,.46-1.1c0-.81-.54-1.22-1.61-1.22Zm0,3.6v3h1.33a2,2,0,0,0,1.35-.41,1.4,1.4,0,0,0,.48-1.12c0-1-.68-1.49-2-1.49Z"/><path class="cls-21" d="M266.74,77.22H262.5a2.19,2.19,0,0,0,.54,1.55,1.85,1.85,0,0,0,1.42.54,3,3,0,0,0,1.86-.66v.9a3.52,3.52,0,0,1-2.09.57,2.54,2.54,0,0,1-2-.81,3.39,3.39,0,0,1-.73-2.3,3.29,3.29,0,0,1,.8-2.29,2.56,2.56,0,0,1,2-.88,2.28,2.28,0,0,1,1.82.76,3.2,3.2,0,0,1,.65,2.12Zm-1-.81a2,2,0,0,0-.4-1.3,1.36,1.36,0,0,0-1.1-.46,1.52,1.52,0,0,0-1.15.49,2.13,2.13,0,0,0-.59,1.27Z"/><path class="cls-21" d="M271,79.92a1.76,1.76,0,0,1-.89.19c-1.06,0-1.58-.59-1.58-1.76V74.8h-1V74h1V72.52l1-.31V74H271v.82h-1.51v3.38a1.35,1.35,0,0,0,.21.86.78.78,0,0,0,.67.26,1,1,0,0,0,.63-.2Z"/><path class="cls-21" d="M275.38,75a1.29,1.29,0,0,0-1.75.39,2.67,2.67,0,0,0-.41,1.58V80h-1V74h1v1.24h0a2.09,2.09,0,0,1,.63-1,1.39,1.39,0,0,1,.94-.35,1.44,1.44,0,0,1,.57.08Z"/><path class="cls-21" d="M276.92,72.46a.6.6,0,0,1-.44-.18.57.57,0,0,1-.18-.44.61.61,0,0,1,.18-.45.6.6,0,0,1,.44-.18.64.64,0,0,1,.45.18.61.61,0,0,1,.18.45.6.6,0,0,1-.18.44A.64.64,0,0,1,276.92,72.46Zm.47,7.52h-1V74h1Z"/><path class="cls-21" d="M284.16,77.22h-4.24a2.19,2.19,0,0,0,.54,1.55,1.85,1.85,0,0,0,1.42.54,3,3,0,0,0,1.86-.66v.9a3.52,3.52,0,0,1-2.09.57,2.54,2.54,0,0,1-2-.81,3.39,3.39,0,0,1-.73-2.3,3.29,3.29,0,0,1,.8-2.29,2.56,2.56,0,0,1,2-.88,2.28,2.28,0,0,1,1.82.76,3.2,3.2,0,0,1,.65,2.12Zm-1-.81a2,2,0,0,0-.4-1.3,1.36,1.36,0,0,0-1.1-.46,1.52,1.52,0,0,0-1.15.49,2.13,2.13,0,0,0-.59,1.27Z"/><path class="cls-21" d="M286.59,79.11h0V80h-1V71.1h1V75h0a2.29,2.29,0,0,1,2.08-1.2,2.17,2.17,0,0,1,1.8.81,3.28,3.28,0,0,1,.66,2.16,3.78,3.78,0,0,1-.73,2.41,2.46,2.46,0,0,1-2,.9A2,2,0,0,1,286.59,79.11Zm0-2.42v.84a1.81,1.81,0,0,0,.48,1.27,1.75,1.75,0,0,0,2.6-.15,3.09,3.09,0,0,0,.49-1.86,2.41,2.41,0,0,0-.46-1.57,1.53,1.53,0,0,0-1.25-.57,1.7,1.7,0,0,0-1.35.58A2.15,2.15,0,0,0,286.57,76.69Z"/><path class="cls-21" d="M116.58,153.86l-4.92,7.28h4.8V162h-6.27v-.28l4.88-7.23h-4.49v-.89h6Z"/><path class="cls-21" d="M125.37,156l-1.8,6h-1l-1.23-4.29a3,3,0,0,1-.1-.56h0a2.44,2.44,0,0,1-.12.54L119.75,162h-1L117,156h1l1.25,4.51a3.12,3.12,0,0,1,.08.54h0a2.38,2.38,0,0,1,.1-.55l1.38-4.5h.88l1.25,4.52a5.29,5.29,0,0,1,.08.54h0a2.61,2.61,0,0,1,.1-.54l1.22-4.52Z"/><path class="cls-21" d="M131.3,159.27h-4.23a2.21,2.21,0,0,0,.54,1.55,1.85,1.85,0,0,0,1.41.54,2.94,2.94,0,0,0,1.87-.67v.91a3.52,3.52,0,0,1-2.09.57,2.52,2.52,0,0,1-2-.82,3.83,3.83,0,0,1,.06-4.58,2.55,2.55,0,0,1,2-.88,2.25,2.25,0,0,1,1.82.76,3.18,3.18,0,0,1,.64,2.12Zm-1-.81a2,2,0,0,0-.4-1.3,1.37,1.37,0,0,0-1.1-.46,1.59,1.59,0,0,0-1.16.48,2.24,2.24,0,0,0-.58,1.28Z"/><path class="cls-21" d="M136.85,161.75a3.1,3.1,0,0,1-1.64.42,2.76,2.76,0,0,1-2.08-.83,3.06,3.06,0,0,1-.78-2.17,3.3,3.3,0,0,1,.85-2.38,3,3,0,0,1,2.26-.9,3.24,3.24,0,0,1,1.4.29v1a2.4,2.4,0,0,0-1.43-.47,1.92,1.92,0,0,0-1.51.66,2.5,2.5,0,0,0-.59,1.73,2.41,2.41,0,0,0,.55,1.66,1.91,1.91,0,0,0,1.49.61,2.41,2.41,0,0,0,1.48-.52Z"/><path class="cls-21" d="M143.28,162h-1.35l-2.65-2.88h0V162h-1v-8.88h1v5.63h0L141.8,156h1.26l-2.78,2.89Z"/><path class="cls-21" d="M255.16,162v-8.4h2.39a2.63,2.63,0,0,1,1.73.53,1.72,1.72,0,0,1,.64,1.39,2,2,0,0,1-.39,1.24,2.07,2.07,0,0,1-1.06.75v0a2.13,2.13,0,0,1,1.36.64,2,2,0,0,1,.51,1.41,2.18,2.18,0,0,1-.78,1.74,2.84,2.84,0,0,1-1.95.67Zm1-7.51v2.71h1a1.93,1.93,0,0,0,1.27-.39,1.34,1.34,0,0,0,.46-1.1c0-.81-.54-1.22-1.61-1.22Zm0,3.6v3h1.33a2,2,0,0,0,1.35-.41,1.4,1.4,0,0,0,.48-1.13c0-1-.68-1.48-2-1.48Z"/><path class="cls-21" d="M266.74,159.27H262.5a2.21,2.21,0,0,0,.54,1.55,1.85,1.85,0,0,0,1.42.54,2.93,2.93,0,0,0,1.86-.67v.91a3.52,3.52,0,0,1-2.09.57,2.52,2.52,0,0,1-2-.82,3.36,3.36,0,0,1-.73-2.3,3.29,3.29,0,0,1,.8-2.28,2.53,2.53,0,0,1,2-.88,2.25,2.25,0,0,1,1.82.76,3.18,3.18,0,0,1,.65,2.12Zm-1-.81a2,2,0,0,0-.4-1.3,1.36,1.36,0,0,0-1.1-.46,1.55,1.55,0,0,0-1.15.48,2.19,2.19,0,0,0-.59,1.28Z"/><path class="cls-21" d="M271,162a1.76,1.76,0,0,1-.89.19c-1.06,0-1.58-.59-1.58-1.76v-3.55h-1V156h1v-1.46l1-.32V156H271v.82h-1.51v3.38a1.37,1.37,0,0,0,.21.86.8.8,0,0,0,.67.26,1,1,0,0,0,.63-.2Z"/><path class="cls-21" d="M275.38,157a1.14,1.14,0,0,0-.72-.19,1.21,1.21,0,0,0-1,.58,2.64,2.64,0,0,0-.41,1.58V162h-1v-6h1v1.24h0a2,2,0,0,1,.63-1,1.54,1.54,0,0,1,1.51-.27Z"/><path class="cls-21" d="M276.92,154.51a.6.6,0,0,1-.44-.18.59.59,0,0,1-.18-.44.61.61,0,0,1,.18-.45.6.6,0,0,1,.44-.18.64.64,0,0,1,.45.18.61.61,0,0,1,.18.45.62.62,0,0,1-.18.44A.64.64,0,0,1,276.92,154.51Zm.47,7.52h-1v-6h1Z"/><path class="cls-21" d="M284.16,159.27h-4.24a2.21,2.21,0,0,0,.54,1.55,1.85,1.85,0,0,0,1.42.54,2.93,2.93,0,0,0,1.86-.67v.91a3.52,3.52,0,0,1-2.09.57,2.52,2.52,0,0,1-2-.82,3.36,3.36,0,0,1-.73-2.3,3.29,3.29,0,0,1,.8-2.28,2.53,2.53,0,0,1,2-.88,2.25,2.25,0,0,1,1.82.76,3.18,3.18,0,0,1,.65,2.12Zm-1-.81a2,2,0,0,0-.4-1.3,1.36,1.36,0,0,0-1.1-.46,1.55,1.55,0,0,0-1.15.48,2.19,2.19,0,0,0-.59,1.28Z"/><path class="cls-21" d="M286.59,161.16h0V162h-1v-8.88h1v3.93h0a2.3,2.3,0,0,1,2.08-1.19,2.17,2.17,0,0,1,1.8.81,3.27,3.27,0,0,1,.66,2.15,3.79,3.79,0,0,1-.73,2.42,2.46,2.46,0,0,1-2,.9A2,2,0,0,1,286.59,161.16Zm0-2.42v.84a1.77,1.77,0,0,0,.48,1.26,1.73,1.73,0,0,0,2.6-.15,3,3,0,0,0,.49-1.85,2.41,2.41,0,0,0-.46-1.57,1.53,1.53,0,0,0-1.25-.57,1.7,1.7,0,0,0-1.35.58A2.15,2.15,0,0,0,286.57,158.74Z"/><path class="cls-20" d="M315.28,105.31h-.95V99.68c0-.45,0-1,.08-1.64h0a5.92,5.92,0,0,1-.24.82l-2.76,6.45h-.47l-2.75-6.41a4.82,4.82,0,0,1-.24-.86h0c0,.34.05.89.05,1.65v5.62H307v-8.4h1.25l2.48,5.86a8.07,8.07,0,0,1,.37,1h0c.16-.46.29-.81.39-1l2.53-5.84h1.19Z"/><path class="cls-20" d="M317.92,97.79a.58.58,0,0,1-.42-.18.57.57,0,0,1-.17-.44.6.6,0,0,1,.17-.45.58.58,0,0,1,.42-.18.57.57,0,0,1,.43.18.61.61,0,0,1,.18.45.6.6,0,0,1-.18.44A.57.57,0,0,1,317.92,97.79Zm.45,7.52h-.92v-6h.92Z"/><path class="cls-20" d="M324.35,105a3,3,0,0,1-1.58.41,2.59,2.59,0,0,1-2-.83,3.14,3.14,0,0,1-.76-2.17,3.42,3.42,0,0,1,.82-2.38,2.81,2.81,0,0,1,2.18-.9,3,3,0,0,1,1.34.29v1A2.27,2.27,0,0,0,323,100a1.83,1.83,0,0,0-1.45.66,2.56,2.56,0,0,0-.57,1.73,2.5,2.5,0,0,0,.53,1.67,1.82,1.82,0,0,0,1.43.6,2.23,2.23,0,0,0,1.42-.52Z"/><path class="cls-20" d="M328.93,100.29a1.08,1.08,0,0,0-.7-.2,1.17,1.17,0,0,0-1,.58,2.74,2.74,0,0,0-.4,1.58v3.06h-.93v-6h.93v1.24h0a2.13,2.13,0,0,1,.6-1,1.39,1.39,0,0,1,.91-.35,1.33,1.33,0,0,1,.55.08Z"/><path class="cls-20" d="M332.52,105.45a2.63,2.63,0,0,1-2-.84,3.18,3.18,0,0,1-.77-2.23,3.34,3.34,0,0,1,.8-2.36,2.82,2.82,0,0,1,2.15-.85,2.53,2.53,0,0,1,2,.83,3.36,3.36,0,0,1,.73,2.29,3.3,3.3,0,0,1-.78,2.3A2.69,2.69,0,0,1,332.52,105.45Zm.07-5.47a1.74,1.74,0,0,0-1.41.63,2.64,2.64,0,0,0-.52,1.74,2.51,2.51,0,0,0,.53,1.68,1.74,1.74,0,0,0,1.4.61A1.66,1.66,0,0,0,334,104a2.69,2.69,0,0,0,.48-1.72,2.74,2.74,0,0,0-.48-1.73A1.64,1.64,0,0,0,332.59,100Z"/><path class="cls-20" d="M340,102.35h-3.08v-.76H340Z"/><path class="cls-20" d="M286.94,118.1v-1a2.67,2.67,0,0,0,1.67.58c.81,0,1.21-.28,1.21-.84a.76.76,0,0,0-.1-.41,1,1,0,0,0-.28-.29,1.69,1.69,0,0,0-.42-.23l-.51-.22a5.43,5.43,0,0,1-.68-.32,2,2,0,0,1-.48-.36,1.52,1.52,0,0,1-.3-.46,1.8,1.8,0,0,1-.09-.6,1.54,1.54,0,0,1,.18-.75,1.75,1.75,0,0,1,.5-.55,2.51,2.51,0,0,1,.7-.33,3.26,3.26,0,0,1,.83-.11,3.21,3.21,0,0,1,1.34.27v1A2.64,2.64,0,0,0,289,113a1.73,1.73,0,0,0-.47.06,1.14,1.14,0,0,0-.35.17,1,1,0,0,0-.24.27.77.77,0,0,0-.08.34,1,1,0,0,0,.08.4,1.05,1.05,0,0,0,.24.28,2.36,2.36,0,0,0,.39.22l.51.22a6.44,6.44,0,0,1,.69.31,3,3,0,0,1,.52.36,1.54,1.54,0,0,1,.33.47,1.69,1.69,0,0,1,.11.63,1.49,1.49,0,0,1-.19.77,1.64,1.64,0,0,1-.5.55,2.31,2.31,0,0,1-.73.32,3.44,3.44,0,0,1-.86.1A3.31,3.31,0,0,1,286.94,118.1Z"/><path class="cls-20" d="M294.78,118.45a2.63,2.63,0,0,1-2-.84,3.18,3.18,0,0,1-.76-2.23,3.33,3.33,0,0,1,.79-2.36,2.83,2.83,0,0,1,2.15-.85,2.57,2.57,0,0,1,2,.83,3.36,3.36,0,0,1,.72,2.29,3.3,3.3,0,0,1-.78,2.3A2.67,2.67,0,0,1,294.78,118.45Zm.06-5.47a1.71,1.71,0,0,0-1.4.63,2.64,2.64,0,0,0-.52,1.74,2.5,2.5,0,0,0,.52,1.68,1.75,1.75,0,0,0,1.4.61,1.66,1.66,0,0,0,1.38-.6,2.69,2.69,0,0,0,.48-1.72,2.74,2.74,0,0,0-.48-1.73A1.64,1.64,0,0,0,294.84,113Z"/><path class="cls-20" d="M302.15,110.27a1.23,1.23,0,0,0-.61-.15c-.65,0-1,.42-1,1.27v.92h1.35v.82h-1.35v5.18h-.92v-5.18h-1v-.82h1v-1a2.09,2.09,0,0,1,.52-1.49,1.91,1.91,0,0,1,2-.44Z"/><path class="cls-20" d="M305.76,118.25a1.66,1.66,0,0,1-.86.19c-1,0-1.52-.58-1.52-1.76v-3.55h-1v-.82h1v-1.46l.93-.31v1.77h1.45v.82h-1.45v3.38a1.49,1.49,0,0,0,.2.87.77.77,0,0,0,.65.25.91.91,0,0,0,.6-.2Z"/><path class="cls-20" d="M310.12,115.35h-3.07v-.76h3.07Z"/><path class="cls-20" d="M316.86,110.8h-2.33v7.51h-.95V110.8h-2.33v-.89h5.61Z"/><path class="cls-20" d="M321.69,115.55h-4.07a2.23,2.23,0,0,0,.52,1.55,1.75,1.75,0,0,0,1.36.54,2.77,2.77,0,0,0,1.79-.66v.9a3.26,3.26,0,0,1-2,.57,2.39,2.39,0,0,1-1.92-.81,3.44,3.44,0,0,1-.7-2.3,3.37,3.37,0,0,1,.76-2.29,2.43,2.43,0,0,1,1.9-.88,2.15,2.15,0,0,1,1.75.76,3.25,3.25,0,0,1,.62,2.12Zm-.94-.81a2.07,2.07,0,0,0-.39-1.3,1.29,1.29,0,0,0-1.06-.46,1.47,1.47,0,0,0-1.11.49,2.22,2.22,0,0,0-.56,1.27Z"/><path class="cls-20" d="M327.2,118a3,3,0,0,1-1.58.41,2.57,2.57,0,0,1-2-.83,3.09,3.09,0,0,1-.76-2.17,3.38,3.38,0,0,1,.82-2.38,2.79,2.79,0,0,1,2.18-.9,3,3,0,0,1,1.34.29v1a2.32,2.32,0,0,0-1.38-.47,1.83,1.83,0,0,0-1.45.66,2.55,2.55,0,0,0-.56,1.73,2.44,2.44,0,0,0,.53,1.67,1.81,1.81,0,0,0,1.43.6,2.27,2.27,0,0,0,1.42-.52Z"/><path class="cls-20" d="M333.56,118.31h-.93v-3.45c0-1.25-.44-1.88-1.34-1.88a1.45,1.45,0,0,0-1.14.54,2.12,2.12,0,0,0-.46,1.39v3.4h-.92v-8.88h.92v3.88h0a2.1,2.1,0,0,1,1.9-1.14c1.3,0,1.95.82,1.95,2.45Z"/><path class="cls-20" d="M340.26,118.31h-.92v-3.42c0-1.27-.45-1.91-1.34-1.91a1.44,1.44,0,0,0-1.15.54,2.07,2.07,0,0,0-.45,1.37v3.42h-.93v-6h.93v1h0a2.08,2.08,0,0,1,1.89-1.14,1.71,1.71,0,0,1,1.45.64,2.85,2.85,0,0,1,.5,1.83Z"/><path class="cls-20" d="M342.65,110.79a.61.61,0,0,1-.6-.62.61.61,0,0,1,.18-.45.58.58,0,0,1,.42-.18.58.58,0,0,1,.43.18.61.61,0,0,1,.18.45.6.6,0,0,1-.18.44A.58.58,0,0,1,342.65,110.79Zm.45,7.52h-.92v-6h.92Z"/><path class="cls-20" d="M349.94,118.31h-1.3l-2.55-2.88h0v2.88h-.92v-8.88h.92v5.63h0l2.43-2.75h1.21l-2.68,2.9Z"/><path class="cls-20" d="M355.7,115.55h-4.08a2.33,2.33,0,0,0,.52,1.55,1.76,1.76,0,0,0,1.36.54,2.82,2.82,0,0,0,1.8-.66v.9a3.28,3.28,0,0,1-2,.57,2.42,2.42,0,0,1-1.93-.81,3.49,3.49,0,0,1-.7-2.3,3.37,3.37,0,0,1,.77-2.29,2.43,2.43,0,0,1,1.89-.88,2.17,2.17,0,0,1,1.76.76,3.3,3.3,0,0,1,.62,2.12Zm-.95-.81a2,2,0,0,0-.39-1.3,1.27,1.27,0,0,0-1.05-.46,1.44,1.44,0,0,0-1.11.49,2.23,2.23,0,0,0-.57,1.27Z"/><path class="cls-20" d="M360.28,113.29a1.1,1.1,0,0,0-.7-.2,1.17,1.17,0,0,0-1,.58,2.74,2.74,0,0,0-.4,1.58v3.06h-.92v-6h.92v1.24h0a2.23,2.23,0,0,1,.61-1,1.36,1.36,0,0,1,.9-.35,1.41,1.41,0,0,1,.56.08Z"/><path class="cls-20" d="M72.21,105.31h-1L70.31,103H66.88l-.81,2.35H65l3.1-8.4h1ZM70,102.07l-1.27-3.58a4.39,4.39,0,0,1-.13-.56h0a3.13,3.13,0,0,1-.13.56l-1.25,3.58Z"/><path class="cls-20" d="M77.47,99.59l-3.41,4.9h3.38v.82H72.7V105l3.42-4.88H73v-.82h4.45Z"/><path class="cls-20" d="M83.51,105.31h-.93v-1h0a1.87,1.87,0,0,1-1.78,1.09c-1.37,0-2.06-.85-2.06-2.55V99.31h.92v3.44c0,1.26.46,1.89,1.4,1.89a1.39,1.39,0,0,0,1.11-.51,2.05,2.05,0,0,0,.43-1.36V99.31h.93Z"/><path class="cls-20" d="M88.56,100.29a1.1,1.1,0,0,0-.7-.2,1.17,1.17,0,0,0-1,.58,2.74,2.74,0,0,0-.4,1.58v3.06h-.92v-6h.92v1.24h0a2.13,2.13,0,0,1,.6-1,1.36,1.36,0,0,1,.9-.35,1.38,1.38,0,0,1,.56.08Z"/><path class="cls-20" d="M94.37,102.55H90.3a2.23,2.23,0,0,0,.52,1.55,1.75,1.75,0,0,0,1.36.54A2.77,2.77,0,0,0,94,104v.9a3.28,3.28,0,0,1-2,.57,2.39,2.39,0,0,1-1.92-.81,3.44,3.44,0,0,1-.7-2.3,3.37,3.37,0,0,1,.76-2.29,2.43,2.43,0,0,1,1.9-.88,2.15,2.15,0,0,1,1.75.76,3.25,3.25,0,0,1,.62,2.12Zm-1-.81a2,2,0,0,0-.38-1.3A1.29,1.29,0,0,0,92,100a1.47,1.47,0,0,0-1.11.49,2.22,2.22,0,0,0-.56,1.27Z"/><path class="cls-20" d="M98.9,102.35H95.82v-.76H98.9Z"/><path class="cls-20" d="M69,118.31H67.63l-3.12-3.84a3.62,3.62,0,0,1-.22-.29h0v4.13h-.95v-8.4h.95v4h0a2.22,2.22,0,0,1,.22-.29l3-3.66h1.18l-3.47,4Z"/><path class="cls-20" d="M74.73,118.31h-.92v-1h0A1.89,1.89,0,0,1,72,118.45q-2.07,0-2.07-2.55v-3.59h.92v3.44c0,1.26.47,1.89,1.4,1.89a1.39,1.39,0,0,0,1.11-.51,2.06,2.06,0,0,0,.44-1.36v-3.46h.92Z"/><path class="cls-20" d="M81.56,118.31h-.92v-3.42c0-1.27-.45-1.91-1.34-1.91a1.44,1.44,0,0,0-1.15.54,2.07,2.07,0,0,0-.45,1.37v3.42h-.93v-6h.93v1h0a2.08,2.08,0,0,1,1.89-1.14,1.71,1.71,0,0,1,1.45.64,2.85,2.85,0,0,1,.5,1.83Z"/><path class="cls-20" d="M88.4,118.31h-.92v-1h0a2.28,2.28,0,0,1-3.72.36,3.38,3.38,0,0,1-.66-2.2,3.64,3.64,0,0,1,.73-2.38,2.33,2.33,0,0,1,1.92-.9,1.85,1.85,0,0,1,1.73,1h0v-3.71h.92Zm-.92-2.71v-.89a1.76,1.76,0,0,0-.46-1.23,1.54,1.54,0,0,0-1.17-.5,1.57,1.57,0,0,0-1.33.65,2.83,2.83,0,0,0-.49,1.78A2.59,2.59,0,0,0,84.5,117a1.49,1.49,0,0,0,1.24.6,1.55,1.55,0,0,0,1.26-.58A2.19,2.19,0,0,0,87.48,115.6Z"/><path class="cls-20" d="M95.09,115.55H91a2.33,2.33,0,0,0,.52,1.55,1.76,1.76,0,0,0,1.36.54,2.82,2.82,0,0,0,1.8-.66v.9a3.29,3.29,0,0,1-2,.57,2.41,2.41,0,0,1-1.92-.81,3.49,3.49,0,0,1-.7-2.3,3.37,3.37,0,0,1,.77-2.29,2.43,2.43,0,0,1,1.89-.88,2.17,2.17,0,0,1,1.76.76,3.3,3.3,0,0,1,.62,2.12Zm-1-.81a2,2,0,0,0-.39-1.3,1.27,1.27,0,0,0-1-.46,1.44,1.44,0,0,0-1.11.49,2.17,2.17,0,0,0-.57,1.27Z"/><path class="cls-20" d="M101.45,118.31h-.93v-3.42c0-1.27-.44-1.91-1.34-1.91a1.42,1.42,0,0,0-1.14.54,2,2,0,0,0-.46,1.37v3.42h-.92v-6h.92v1h0a2.08,2.08,0,0,1,1.9-1.14,1.73,1.73,0,0,1,1.45.64,2.91,2.91,0,0,1,.5,1.83Z"/><path class="cls-20" d="M73.68,185.17h-1v-8.41h1Z"/><path class="cls-20" d="M80.64,185.17h-.92v-3.46c0-1.25-.45-1.88-1.34-1.88a1.46,1.46,0,0,0-1.14.55,2,2,0,0,0-.46,1.39v3.4h-.93v-8.89h.93v3.88h0A2.08,2.08,0,0,1,78.69,179c1.3,0,2,.81,2,2.44Z"/><path class="cls-20" d="M85.57,180.14a1.1,1.1,0,0,0-.7-.19,1.16,1.16,0,0,0-1,.58,2.77,2.77,0,0,0-.4,1.58v3.06h-.92v-6h.92v1.23h0a2,2,0,0,1,.6-1,1.33,1.33,0,0,1,.91-.36,1.56,1.56,0,0,1,.55.08Z"/><path class="cls-20" d="M91.38,182.41H87.31a2.25,2.25,0,0,0,.52,1.54,1.72,1.72,0,0,0,1.36.55,2.73,2.73,0,0,0,1.79-.67v.9a3.2,3.2,0,0,1-2,.58,2.38,2.38,0,0,1-1.92-.82,3.4,3.4,0,0,1-.7-2.3,3.36,3.36,0,0,1,.76-2.28A2.4,2.4,0,0,1,89,179a2.12,2.12,0,0,1,1.75.76,3.22,3.22,0,0,1,.62,2.11Zm-.94-.82a2.06,2.06,0,0,0-.39-1.29,1.3,1.3,0,0,0-1.06-.47,1.5,1.5,0,0,0-1.11.49,2.29,2.29,0,0,0-.56,1.27Z"/><path class="cls-20" d="M68.45,198.17H67.13L64,194.32a2.38,2.38,0,0,1-.22-.29h0v4.14h-1v-8.41h1v4h0a2.2,2.2,0,0,1,.22-.28l3-3.67h1.18l-3.47,4Z"/><path class="cls-20" d="M74.23,198.17h-.92v-.95h0a1.91,1.91,0,0,1-1.78,1.09c-1.38,0-2.07-.85-2.07-2.56v-3.58h.92v3.43c0,1.27.47,1.9,1.4,1.9a1.37,1.37,0,0,0,1.11-.52,2.06,2.06,0,0,0,.44-1.36v-3.45h.92Z"/><path class="cls-20" d="M81.06,198.17h-.92v-3.42c0-1.28-.45-1.92-1.34-1.92a1.45,1.45,0,0,0-1.15.55,2.06,2.06,0,0,0-.45,1.37v3.42h-.93v-6h.93v1h0A2.08,2.08,0,0,1,79.11,192a1.73,1.73,0,0,1,1.45.63,2.9,2.9,0,0,1,.5,1.84Z"/><path class="cls-20" d="M87.9,198.17H87v-1h0a2.13,2.13,0,0,1-2,1.16,2.1,2.1,0,0,1-1.73-.81,3.37,3.37,0,0,1-.66-2.19,3.67,3.67,0,0,1,.73-2.39,2.35,2.35,0,0,1,1.92-.89A1.83,1.83,0,0,1,87,193h0v-3.72h.92ZM87,195.45v-.88a1.72,1.72,0,0,0-.46-1.23,1.52,1.52,0,0,0-1.17-.51,1.57,1.57,0,0,0-1.33.65,2.85,2.85,0,0,0-.49,1.78A2.62,2.62,0,0,0,84,196.9a1.49,1.49,0,0,0,1.24.6,1.55,1.55,0,0,0,1.26-.58A2.24,2.24,0,0,0,87,195.45Z"/><path class="cls-20" d="M94.59,195.41H90.51A2.3,2.3,0,0,0,91,197a1.74,1.74,0,0,0,1.36.55,2.78,2.78,0,0,0,1.8-.67v.9a3.23,3.23,0,0,1-2,.58,2.39,2.39,0,0,1-1.92-.82,3.45,3.45,0,0,1-.7-2.3,3.36,3.36,0,0,1,.77-2.28,2.4,2.4,0,0,1,1.89-.88,2.14,2.14,0,0,1,1.76.76,3.27,3.27,0,0,1,.62,2.11Zm-1-.82a2,2,0,0,0-.39-1.29,1.28,1.28,0,0,0-1-.47,1.47,1.47,0,0,0-1.11.49,2.23,2.23,0,0,0-.57,1.27Z"/><path class="cls-20" d="M101,198.17H100v-3.42c0-1.28-.44-1.92-1.34-1.92a1.43,1.43,0,0,0-1.14.55,2,2,0,0,0-.46,1.37v3.42h-.92v-6h.92v1h0A2.09,2.09,0,0,1,99,192a1.75,1.75,0,0,1,1.45.63,3,3,0,0,1,.5,1.84Z"/><path class="cls-20" d="M286.86,185.09h-.95v-8.4h.95Z"/><path class="cls-20" d="M293.82,185.09h-.92v-3.46c0-1.25-.45-1.87-1.34-1.87a1.42,1.42,0,0,0-1.14.54,2.06,2.06,0,0,0-.46,1.39v3.4H289v-8.88H290v3.88h0a2.08,2.08,0,0,1,1.89-1.14c1.3,0,1.95.81,1.95,2.44Z"/><path class="cls-20" d="M298.75,180.06a1.12,1.12,0,0,0-.7-.19,1.15,1.15,0,0,0-1,.58,2.72,2.72,0,0,0-.4,1.58v3.06h-.92v-6h.92v1.24h0a2.09,2.09,0,0,1,.61-1,1.32,1.32,0,0,1,.9-.36,1.39,1.39,0,0,1,.56.09Z"/><path class="cls-20" d="M304.56,182.33h-4.07a2.29,2.29,0,0,0,.51,1.55,1.77,1.77,0,0,0,1.37.54,2.73,2.73,0,0,0,1.79-.67v.91a3.28,3.28,0,0,1-2,.57,2.36,2.36,0,0,1-1.92-.82,3.4,3.4,0,0,1-.7-2.3,3.36,3.36,0,0,1,.76-2.28,2.4,2.4,0,0,1,1.9-.88,2.12,2.12,0,0,1,1.75.76,3.28,3.28,0,0,1,.62,2.12Zm-.95-.81a2,2,0,0,0-.38-1.3,1.3,1.3,0,0,0-1.06-.46,1.46,1.46,0,0,0-1.11.48,2.29,2.29,0,0,0-.56,1.28Z"/><path class="cls-20" d="M314.37,177.58H312v7.51h-1v-7.51h-2.33v-.89h5.61Z"/><path class="cls-20" d="M319.2,182.33h-4.08a2.35,2.35,0,0,0,.52,1.55,1.77,1.77,0,0,0,1.37.54,2.75,2.75,0,0,0,1.79-.67v.91a3.28,3.28,0,0,1-2,.57,2.36,2.36,0,0,1-1.92-.82,3.4,3.4,0,0,1-.7-2.3,3.36,3.36,0,0,1,.76-2.28,2.4,2.4,0,0,1,1.9-.88,2.12,2.12,0,0,1,1.75.76,3.28,3.28,0,0,1,.62,2.12Zm-.95-.81a2,2,0,0,0-.38-1.3,1.3,1.3,0,0,0-1.06-.46,1.46,1.46,0,0,0-1.11.48,2.22,2.22,0,0,0-.56,1.28Z"/><path class="cls-20" d="M324.7,184.81a2.88,2.88,0,0,1-1.57.42,2.59,2.59,0,0,1-2-.83,3.13,3.13,0,0,1-.75-2.17,3.42,3.42,0,0,1,.81-2.38,2.81,2.81,0,0,1,2.18-.9,3,3,0,0,1,1.34.29v1a2.21,2.21,0,0,0-1.37-.47,1.83,1.83,0,0,0-1.45.66,2.54,2.54,0,0,0-.57,1.73,2.45,2.45,0,0,0,.53,1.66,1.81,1.81,0,0,0,1.43.61,2.23,2.23,0,0,0,1.42-.52Z"/><path class="cls-20" d="M331.07,185.09h-.93v-3.46c0-1.25-.45-1.87-1.34-1.87a1.45,1.45,0,0,0-1.14.54,2.06,2.06,0,0,0-.46,1.39v3.4h-.93v-8.88h.93v3.88h0a2.1,2.1,0,0,1,1.9-1.14c1.3,0,1.95.81,1.95,2.44Z"/><path class="cls-20" d="M337.77,185.09h-.92v-3.42c0-1.28-.45-1.91-1.34-1.91a1.43,1.43,0,0,0-1.15.54,2.07,2.07,0,0,0-.45,1.37v3.42H333v-6h.93v1h0a2.05,2.05,0,0,1,1.89-1.14,1.75,1.75,0,0,1,1.45.63,3,3,0,0,1,.5,1.84Z"/><path class="cls-20" d="M340.16,177.57a.54.54,0,0,1-.42-.18.59.59,0,0,1-.18-.44.61.61,0,0,1,.18-.45.54.54,0,0,1,.42-.18.58.58,0,0,1,.43.18.61.61,0,0,1,.18.45.58.58,0,0,1-.18.43A.56.56,0,0,1,340.16,177.57Zm.45,7.52h-.92v-6h.92Z"/><path class="cls-20" d="M347.45,185.09h-1.3l-2.55-2.88h0v2.88h-.93v-8.88h.93v5.63h0l2.42-2.75h1.22L344.56,182Z"/><path class="cls-20" d="M353.2,182.33h-4.07a2.29,2.29,0,0,0,.52,1.55,1.75,1.75,0,0,0,1.36.54,2.73,2.73,0,0,0,1.79-.67v.91a3.24,3.24,0,0,1-2,.57,2.39,2.39,0,0,1-1.92-.82,4,4,0,0,1,.06-4.58,2.42,2.42,0,0,1,1.9-.88,2.11,2.11,0,0,1,1.75.76,3.23,3.23,0,0,1,.62,2.12Zm-.94-.81a2,2,0,0,0-.39-1.3,1.29,1.29,0,0,0-1.06-.46,1.49,1.49,0,0,0-1.11.48,2.29,2.29,0,0,0-.56,1.28Z"/><path class="cls-20" d="M357.78,180.06a1.08,1.08,0,0,0-.7-.19,1.15,1.15,0,0,0-1,.58,2.72,2.72,0,0,0-.4,1.58v3.06h-.93v-6h.93v1.24h0a2.08,2.08,0,0,1,.6-1,1.35,1.35,0,0,1,.91-.36,1.3,1.3,0,0,1,.55.09Z"/><path class="cls-20" d="M298.29,198.09h-1.05l-.86-2.36H293l-.81,2.36h-1l3.1-8.4h1Zm-2.21-3.24-1.27-3.58a3.65,3.65,0,0,1-.13-.56h0a3.36,3.36,0,0,1-.13.56l-1.26,3.58Z"/><path class="cls-20" d="M303.55,192.37l-3.41,4.9h3.38v.82h-4.74v-.3l3.41-4.88H299.1v-.82h4.45Z"/><path class="cls-20" d="M309.59,198.09h-.93v-1h0a1.88,1.88,0,0,1-1.78,1.09c-1.38,0-2.06-.85-2.06-2.55v-3.59h.92v3.43c0,1.27.46,1.9,1.39,1.9a1.39,1.39,0,0,0,1.12-.52,2,2,0,0,0,.43-1.35v-3.46h.93Z"/><path class="cls-20" d="M314.64,193.06a1.12,1.12,0,0,0-.7-.19,1.15,1.15,0,0,0-1,.58,2.72,2.72,0,0,0-.4,1.58v3.06h-.92v-6h.92v1.24h0a2.09,2.09,0,0,1,.61-1,1.32,1.32,0,0,1,.9-.36,1.39,1.39,0,0,1,.56.09Z"/><path class="cls-20" d="M320.45,195.33h-4.07a2.29,2.29,0,0,0,.51,1.55,1.77,1.77,0,0,0,1.37.54,2.75,2.75,0,0,0,1.79-.67v.91a3.28,3.28,0,0,1-2,.57,2.36,2.36,0,0,1-1.92-.82,3.4,3.4,0,0,1-.7-2.3,3.36,3.36,0,0,1,.76-2.28,2.4,2.4,0,0,1,1.9-.88,2.12,2.12,0,0,1,1.75.76,3.28,3.28,0,0,1,.62,2.12Zm-.95-.81a2,2,0,0,0-.38-1.3,1.3,1.3,0,0,0-1.06-.46,1.46,1.46,0,0,0-1.11.48,2.29,2.29,0,0,0-.56,1.28Z"/><path class="cls-20" d="M325.1,197.75v-1.16a2.33,2.33,0,0,0,.46.32,3.57,3.57,0,0,0,.57.23,3,3,0,0,0,.59.15,2.8,2.8,0,0,0,.55.06,2.14,2.14,0,0,0,1.31-.34,1.16,1.16,0,0,0,.43-1,1.22,1.22,0,0,0-.14-.59,1.72,1.72,0,0,0-.4-.46,4.17,4.17,0,0,0-.6-.4l-.75-.4-.79-.45a4.1,4.1,0,0,1-.64-.51,2,2,0,0,1-.42-.62,2.07,2.07,0,0,1-.16-.82,2,2,0,0,1,.25-1,2.22,2.22,0,0,1,.63-.7,3.07,3.07,0,0,1,.9-.41,4,4,0,0,1,1-.13,3.77,3.77,0,0,1,1.74.3V191a3.07,3.07,0,0,0-1.83-.51,3.18,3.18,0,0,0-.62.06,1.87,1.87,0,0,0-.56.22,1.35,1.35,0,0,0-.39.4,1.06,1.06,0,0,0-.15.58,1.22,1.22,0,0,0,.11.56,1.38,1.38,0,0,0,.34.43,3.5,3.5,0,0,0,.55.37l.75.4c.29.15.56.31.82.47a3.76,3.76,0,0,1,.68.54,2.39,2.39,0,0,1,.47.67,2,2,0,0,1,.17.83,2.26,2.26,0,0,1-.23,1.05,2,2,0,0,1-.63.7,2.72,2.72,0,0,1-.92.39,4.86,4.86,0,0,1-1.09.12l-.48,0a3.78,3.78,0,0,1-.57-.1,4.58,4.58,0,0,1-.56-.15A2.06,2.06,0,0,1,325.1,197.75Z"/><path class="cls-20" d="M334,198a1.7,1.7,0,0,1-.87.19c-1,0-1.51-.59-1.51-1.76v-3.55h-1v-.82h1v-1.46l.92-.32v1.78H334v.82h-1.46v3.38a1.45,1.45,0,0,0,.2.86.77.77,0,0,0,.65.26,1,1,0,0,0,.61-.2Z"/><path class="cls-20" d="M339.5,198.09h-.92v-.94h0a1.93,1.93,0,0,1-1.78,1.08,1.9,1.9,0,0,1-1.35-.47,1.71,1.71,0,0,1-.49-1.26c0-1.12.64-1.78,1.91-2l1.73-.25c0-1-.4-1.53-1.19-1.53a2.75,2.75,0,0,0-1.88.74v-1a3.52,3.52,0,0,1,2-.56c1.36,0,2,.75,2,2.24Zm-.92-3-1.39.2a2.43,2.43,0,0,0-1,.33,1,1,0,0,0-.33.85.91.91,0,0,0,.3.71,1.13,1.13,0,0,0,.81.28,1.47,1.47,0,0,0,1.13-.5,1.83,1.83,0,0,0,.45-1.27Z"/><path class="cls-20" d="M345.35,197.81a2.88,2.88,0,0,1-1.57.42,2.59,2.59,0,0,1-2-.83,3.13,3.13,0,0,1-.75-2.17,3.42,3.42,0,0,1,.81-2.38A2.81,2.81,0,0,1,344,192a3,3,0,0,1,1.35.29v1a2.26,2.26,0,0,0-1.38-.47,1.83,1.83,0,0,0-1.45.66,2.54,2.54,0,0,0-.57,1.73,2.45,2.45,0,0,0,.53,1.66,1.81,1.81,0,0,0,1.43.61,2.23,2.23,0,0,0,1.42-.52Z"/><path class="cls-20" d="M351.72,198.09h-1.3l-2.55-2.88h0v2.88h-.93v-8.88h.93v5.63h0l2.42-2.75h1.22L348.83,195Z"/><path class="cls-20" d="M291.42,211.09h-.95v-3.83h-4.18v3.83h-1v-8.4h1v3.68h4.18v-3.68h.95Z"/><path class="cls-20" d="M298.25,211.09h-.92v-1h0a1.89,1.89,0,0,1-1.78,1.09c-1.38,0-2.07-.85-2.07-2.56v-3.58h.92v3.43c0,1.27.47,1.9,1.4,1.9a1.37,1.37,0,0,0,1.11-.52,2,2,0,0,0,.44-1.35v-3.46h.92Z"/><path class="cls-20" d="M301.24,210.22h0v.87h-.93v-8.88h.93v3.93h0a2.19,2.19,0,0,1,2-1.19,2.07,2.07,0,0,1,1.73.8,3.42,3.42,0,0,1,.63,2.16,3.8,3.8,0,0,1-.7,2.41,2.3,2.3,0,0,1-1.93.91A1.89,1.89,0,0,1,301.24,210.22Zm0-2.42v.84a1.8,1.8,0,0,0,.46,1.26,1.51,1.51,0,0,0,1.18.52,1.53,1.53,0,0,0,1.32-.67,3.11,3.11,0,0,0,.48-1.85,2.45,2.45,0,0,0-.45-1.57,1.46,1.46,0,0,0-1.21-.57,1.61,1.61,0,0,0-1.29.58A2.19,2.19,0,0,0,301.22,207.8Z"/><path class="cls-20" d="M310.21,208.12h-3.08v-.75h3.08Z"/><path class="cls-20" d="M315.42,211.23a3.47,3.47,0,0,1-2.75-1.18,4.44,4.44,0,0,1-1-3.06,4.78,4.78,0,0,1,1.05-3.24,3.62,3.62,0,0,1,2.87-1.2,3.43,3.43,0,0,1,2.7,1.17,4.49,4.49,0,0,1,1,3.06,4.74,4.74,0,0,1-1,3.25A3.54,3.54,0,0,1,315.42,211.23Zm.07-7.79a2.55,2.55,0,0,0-2.07.95,3.79,3.79,0,0,0-.79,2.51,3.87,3.87,0,0,0,.77,2.5,2.49,2.49,0,0,0,2,.94,2.61,2.61,0,0,0,2.1-.9,3.78,3.78,0,0,0,.77-2.52,4,4,0,0,0-.75-2.58A2.51,2.51,0,0,0,315.49,203.44Z"/><path class="cls-20" d="M321.86,210.22h0v3.63h-.92v-8.76h.92v1h0a2.19,2.19,0,0,1,2-1.19,2.1,2.1,0,0,1,1.74.8,3.42,3.42,0,0,1,.63,2.16,3.8,3.8,0,0,1-.71,2.41,2.3,2.3,0,0,1-1.93.91A1.93,1.93,0,0,1,321.86,210.22Zm0-2.42v.84a1.8,1.8,0,0,0,.47,1.26,1.61,1.61,0,0,0,2.49-.15,3.11,3.11,0,0,0,.48-1.85,2.45,2.45,0,0,0-.45-1.57,1.44,1.44,0,0,0-1.2-.57,1.61,1.61,0,0,0-1.3.58A2.19,2.19,0,0,0,321.84,207.8Z"/><path class="cls-20" d="M332.52,208.33h-4.08a2.35,2.35,0,0,0,.52,1.55,1.75,1.75,0,0,0,1.36.54,2.78,2.78,0,0,0,1.8-.67v.91a3.29,3.29,0,0,1-2,.57,2.39,2.39,0,0,1-1.92-.82,3.45,3.45,0,0,1-.7-2.3,3.36,3.36,0,0,1,.77-2.28,2.38,2.38,0,0,1,1.89-.88,2.14,2.14,0,0,1,1.76.76,3.28,3.28,0,0,1,.62,2.12Zm-.95-.82a2,2,0,0,0-.39-1.29,1.27,1.27,0,0,0-1.05-.46,1.46,1.46,0,0,0-1.11.48,2.23,2.23,0,0,0-.57,1.27Z"/><path class="cls-20" d="M337.1,206.06a1.12,1.12,0,0,0-.7-.19,1.15,1.15,0,0,0-1,.58A2.7,2.7,0,0,0,335,208v3.06h-.92v-6H335v1.24h0a2,2,0,0,1,.61-1,1.32,1.32,0,0,1,.9-.36,1.39,1.39,0,0,1,.56.09Z"/><path class="cls-20" d="M342.4,211.09h-.92v-.94h0a1.94,1.94,0,0,1-1.78,1.08,1.86,1.86,0,0,1-1.35-.48,1.67,1.67,0,0,1-.49-1.25c0-1.13.64-1.78,1.91-2l1.73-.25c0-1-.4-1.53-1.19-1.53a2.73,2.73,0,0,0-1.88.74v-1a3.49,3.49,0,0,1,2-.56c1.35,0,2,.74,2,2.24Zm-.92-3-1.39.2a2.37,2.37,0,0,0-1,.33,1,1,0,0,0-.33.84.92.92,0,0,0,.3.72,1.12,1.12,0,0,0,.8.28,1.48,1.48,0,0,0,1.14-.5,1.83,1.83,0,0,0,.45-1.27Z"/><path class="cls-20" d="M347,211a1.7,1.7,0,0,1-.87.19c-1,0-1.51-.59-1.51-1.76v-3.55h-1v-.82h1v-1.47l.92-.31v1.78H347v.82h-1.46v3.38a1.45,1.45,0,0,0,.2.86.77.77,0,0,0,.65.26,1,1,0,0,0,.61-.2Z"/><path class="cls-20" d="M350.81,211.23a2.63,2.63,0,0,1-2-.84,3.19,3.19,0,0,1-.76-2.23,3.3,3.3,0,0,1,.79-2.36A2.79,2.79,0,0,1,351,205a2.52,2.52,0,0,1,2,.82,3.36,3.36,0,0,1,.73,2.3,3.32,3.32,0,0,1-.78,2.3A2.71,2.71,0,0,1,350.81,211.23Zm.07-5.47a1.74,1.74,0,0,0-1.41.63,2.68,2.68,0,0,0-.51,1.73,2.53,2.53,0,0,0,.52,1.69,1.75,1.75,0,0,0,1.4.61,1.66,1.66,0,0,0,1.38-.6,3.34,3.34,0,0,0,0-3.45A1.64,1.64,0,0,0,350.88,205.76Z"/><path class="cls-20" d="M358.35,206.06a1.1,1.1,0,0,0-.7-.19,1.15,1.15,0,0,0-1,.58,2.7,2.7,0,0,0-.4,1.58v3.06h-.92v-6h.92v1.24h0a2,2,0,0,1,.6-1,1.32,1.32,0,0,1,.9-.36,1.36,1.36,0,0,1,.56.09Z"/><path class="cls-20" d="M61.4,15V6.6h2.87q4.31,0,4.3,4.09a4.25,4.25,0,0,1-1.17,3.14A4.26,4.26,0,0,1,64.27,15Zm1.82-6.86v5.32h.9A2.4,2.4,0,0,0,66,12.73a2.89,2.89,0,0,0,.67-2A2.62,2.62,0,0,0,66,8.83a2.5,2.5,0,0,0-1.88-.69Z"/><path class="cls-20" d="M75.1,12.53H71.33c.06.87.59,1.3,1.58,1.3a3,3,0,0,0,1.68-.46V14.7a4.22,4.22,0,0,1-2.08.45,2.85,2.85,0,0,1-2.17-.81,3.11,3.11,0,0,1-.77-2.25,3.25,3.25,0,0,1,.83-2.36,2.71,2.71,0,0,1,2-.88,2.49,2.49,0,0,1,2,.78,3.09,3.09,0,0,1,.69,2.12Zm-1.66-1.14c0-.86-.33-1.29-1-1.29a.94.94,0,0,0-.74.37,1.66,1.66,0,0,0-.38.92Z"/><path class="cls-20" d="M81.82,9l-2.14,6h-2L75.6,9h1.91l1,3.7a6,6,0,0,1,.2,1.06h0a6.05,6.05,0,0,1,.21-1L80,9Z"/><path class="cls-20" d="M86.35,15.15A3.7,3.7,0,0,1,83.52,14a4.3,4.3,0,0,1-1.1-3.06,4.58,4.58,0,0,1,1.12-3.22,3.77,3.77,0,0,1,2.94-1.23,3.63,3.63,0,0,1,2.8,1.17,4.48,4.48,0,0,1,1.06,3.11,4.56,4.56,0,0,1-1.1,3.19A3.75,3.75,0,0,1,86.35,15.15Zm.08-7.06a1.81,1.81,0,0,0-1.53.74,3.25,3.25,0,0,0-.56,2,3.21,3.21,0,0,0,.56,2,1.92,1.92,0,0,0,3,0,3.19,3.19,0,0,0,.55-2,3.37,3.37,0,0,0-.54-2A1.72,1.72,0,0,0,86.43,8.09Z"/><path class="cls-20" d="M93.49,14.3h0v3.46H91.68V9h1.78v.9h0a2.07,2.07,0,0,1,1.85-1.05,2,2,0,0,1,1.73.8,3.51,3.51,0,0,1,.62,2.18A3.78,3.78,0,0,1,97,14.24a2.29,2.29,0,0,1-1.89.91A1.76,1.76,0,0,1,93.49,14.3Zm0-2.46v.48a1.59,1.59,0,0,0,.31,1,1,1,0,0,0,.83.39,1.06,1.06,0,0,0,.94-.49,2.4,2.4,0,0,0,.34-1.39c0-1-.4-1.58-1.18-1.58a1.12,1.12,0,0,0-.9.43A1.78,1.78,0,0,0,93.44,11.84Z"/><path class="cls-20" d="M98.64,14.84v-1.5a3.42,3.42,0,0,0,.87.41,2.83,2.83,0,0,0,.83.14,1.68,1.68,0,0,0,.74-.14.42.42,0,0,0,.28-.41.36.36,0,0,0-.13-.29,1.05,1.05,0,0,0-.31-.21,4.31,4.31,0,0,0-.43-.15l-.45-.16a4.81,4.81,0,0,1-.6-.29,2,2,0,0,1-.44-.36,1.42,1.42,0,0,1-.27-.48,2,2,0,0,1-.09-.64,1.69,1.69,0,0,1,.21-.86,1.79,1.79,0,0,1,.56-.6,2.57,2.57,0,0,1,.81-.34,4.21,4.21,0,0,1,1.72,0,7.25,7.25,0,0,1,.78.17v1.43a2.74,2.74,0,0,0-.73-.3,2.91,2.91,0,0,0-.76-.11,1.24,1.24,0,0,0-.33,0,1.07,1.07,0,0,0-.27.09.4.4,0,0,0-.18.16.34.34,0,0,0-.07.22.4.4,0,0,0,.1.28.9.9,0,0,0,.26.2,1.79,1.79,0,0,0,.37.15l.39.14a5.76,5.76,0,0,1,.65.28,2,2,0,0,1,.49.36,1.55,1.55,0,0,1,.32.48,1.82,1.82,0,0,1,.11.66,1.76,1.76,0,0,1-.23.91,1.81,1.81,0,0,1-.59.61,2.5,2.5,0,0,1-.85.35,4.64,4.64,0,0,1-1,.11A5,5,0,0,1,98.64,14.84Z"/><path d="M6.18,32.16H5.36A7.7,7.7,0,0,1,3.6,27a8,8,0,0,1,1.76-5.22h.83A8.15,8.15,0,0,0,4.42,27,8,8,0,0,0,6.18,32.16Z"/><path d="M14.08,30.24H12.92L8.74,23.52A3.26,3.26,0,0,1,8.48,23h0a9.48,9.48,0,0,1,0,1.16v6.09h-1V21.81H8.78l4.06,6.62c.17.27.27.46.32.56h0a8.74,8.74,0,0,1-.06-1.24V21.81h.95Z"/><path d="M18.68,30.38a2.63,2.63,0,0,1-2.05-.84,3.21,3.21,0,0,1-.77-2.24,3.35,3.35,0,0,1,.8-2.37,2.83,2.83,0,0,1,2.15-.85,2.54,2.54,0,0,1,2,.83,3.34,3.34,0,0,1,.73,2.3,3.33,3.33,0,0,1-.78,2.31A2.67,2.67,0,0,1,18.68,30.38Zm.06-5.49a1.74,1.74,0,0,0-1.41.63,2.68,2.68,0,0,0-.52,1.75A2.55,2.55,0,0,0,17.34,29a1.75,1.75,0,0,0,1.4.61,1.7,1.7,0,0,0,1.39-.6,2.74,2.74,0,0,0,.48-1.73,2.77,2.77,0,0,0-.48-1.74A1.7,1.7,0,0,0,18.74,24.89Z"/><path d="M28.16,30.24h-.93v-1h0a2.11,2.11,0,0,1-2,1.16,2.16,2.16,0,0,1-1.75-.8,3.46,3.46,0,0,1-.65-2.21A3.72,3.72,0,0,1,23.54,25a2.37,2.37,0,0,1,1.93-.9,1.85,1.85,0,0,1,1.74,1h0V21.33h.93Zm-.93-2.72v-.89a1.76,1.76,0,0,0-.46-1.23,1.52,1.52,0,0,0-1.18-.51,1.58,1.58,0,0,0-1.33.65,2.88,2.88,0,0,0-.49,1.79A2.62,2.62,0,0,0,24.24,29a1.5,1.5,0,0,0,1.25.6A1.55,1.55,0,0,0,26.75,29,2.24,2.24,0,0,0,27.23,27.52Z"/><path d="M34.86,27.47H30.78A2.27,2.27,0,0,0,31.3,29a1.75,1.75,0,0,0,1.36.54,2.74,2.74,0,0,0,1.8-.67v.91a3.29,3.29,0,0,1-2,.57,2.38,2.38,0,0,1-1.92-.82,3.4,3.4,0,0,1-.71-2.3A3.37,3.37,0,0,1,30.58,25a2.43,2.43,0,0,1,1.9-.89,2.14,2.14,0,0,1,1.76.77A3.23,3.23,0,0,1,34.86,27Zm-1-.81a2,2,0,0,0-.38-1.3,1.31,1.31,0,0,0-1.06-.47,1.51,1.51,0,0,0-1.12.49,2.29,2.29,0,0,0-.56,1.28Z"/><path d="M36.76,30.37a.58.58,0,0,1-.44-.19.68.68,0,0,1-.19-.47.66.66,0,0,1,.19-.46.6.6,0,0,1,.89,0,.62.62,0,0,1,.19.46.64.64,0,0,1-.19.47A.58.58,0,0,1,36.76,30.37Z"/><path d="M40.05,30a3.88,3.88,0,0,1-.57,2.28,1.89,1.89,0,0,1-1.64.81,1.72,1.72,0,0,1-.77-.19V32a1.45,1.45,0,0,0,.79.26c.84,0,1.27-.7,1.27-2.1V24.22h.92Zm-.45-7.3a.54.54,0,0,1-.42-.17.65.65,0,0,1,0-.9.54.54,0,0,1,.42-.18.58.58,0,0,1,.43.18.61.61,0,0,1,.18.45.6.6,0,0,1-.18.44A.58.58,0,0,1,39.6,22.69Z"/><path d="M41.75,30V29a2.67,2.67,0,0,0,1.67.58c.82,0,1.22-.28,1.22-.84a.76.76,0,0,0-.1-.41,1.32,1.32,0,0,0-.28-.3,2.08,2.08,0,0,0-.42-.23l-.52-.22a5.43,5.43,0,0,1-.68-.32,2,2,0,0,1-.48-.36,1.52,1.52,0,0,1-.3-.46,1.9,1.9,0,0,1-.1-.61,1.55,1.55,0,0,1,.19-.75,1.62,1.62,0,0,1,.5-.54,2.34,2.34,0,0,1,.71-.34,3.18,3.18,0,0,1,.82-.11,3.25,3.25,0,0,1,1.35.27v1a2.57,2.57,0,0,0-1.47-.44,1.68,1.68,0,0,0-.47.06,1.21,1.21,0,0,0-.36.18.67.67,0,0,0-.23.27.64.64,0,0,0-.09.34.75.75,0,0,0,.09.39.81.81,0,0,0,.24.29,1.9,1.9,0,0,0,.38.22l.52.22a7.47,7.47,0,0,1,.69.31,2.55,2.55,0,0,1,.52.37,1.5,1.5,0,0,1,.33.46,1.73,1.73,0,0,1,.11.63,1.5,1.5,0,0,1-.19.78,1.64,1.64,0,0,1-.5.55,2.42,2.42,0,0,1-.73.32,3.57,3.57,0,0,1-.87.1A3.31,3.31,0,0,1,41.75,30Z"/><path d="M54.2,21.81l-3.89,9.83h-.87l3.88-9.83Z"/><path d="M58.89,30.37a.58.58,0,0,1-.44-.19.67.67,0,0,1-.18-.47.65.65,0,0,1,.18-.46.59.59,0,0,1,.44-.2.63.63,0,0,1,.46.2.65.65,0,0,1,.18.46.67.67,0,0,1-.18.47A.62.62,0,0,1,58.89,30.37Z"/><path d="M67.92,30.24H66.75l-4.17-6.72a2.61,2.61,0,0,1-.26-.53h0c0,.18,0,.57,0,1.16v6.09h-.95V21.81h1.23l4.06,6.62c.17.27.28.46.33.56h0a11.27,11.27,0,0,1,0-1.24V21.81h1Z"/><path d="M74.52,30.24h-4.3V21.81h4.11v.9H71.17v2.8H74.1v.89H71.17v3h3.35Z"/><path d="M81.05,22.71H78.7v7.53h-1V22.71H75.42v-.9h5.63Z"/><path d="M89.37,21.81l-3.89,9.83h-.86l3.88-9.83Z"/><path d="M94.07,30.37a.58.58,0,0,1-.44-.19.64.64,0,0,1-.19-.47.62.62,0,0,1,.19-.46.6.6,0,0,1,.89,0,.62.62,0,0,1,.19.46.64.64,0,0,1-.19.47A.58.58,0,0,1,94.07,30.37Z"/><path d="M96.75,30.37a.58.58,0,0,1-.44-.19.67.67,0,0,1-.18-.47.65.65,0,0,1,.18-.46.59.59,0,0,1,.44-.2.63.63,0,0,1,.46.2.65.65,0,0,1,.18.46.67.67,0,0,1-.18.47A.62.62,0,0,1,96.75,30.37Z"/><path d="M99.44,30.37a.61.61,0,0,1-.45-.19.67.67,0,0,1-.18-.47.65.65,0,0,1,.18-.46.62.62,0,0,1,.45-.2.59.59,0,0,1,.45.2.62.62,0,0,1,.19.46.64.64,0,0,1-.19.47A.58.58,0,0,1,99.44,30.37Z"/><path d="M109.57,30.24h-4.3V21.81h4.12v.9h-3.17v2.8h2.93v.89h-2.93v3h3.35Z"/><path d="M116,30.24h-.93V26.81q0-1.92-1.35-1.92a1.43,1.43,0,0,0-1.15.55,2.07,2.07,0,0,0-.45,1.37v3.43h-.93v-6h.93v1h0a2.08,2.08,0,0,1,1.9-1.14,1.72,1.72,0,0,1,1.45.64,2.9,2.9,0,0,1,.51,1.84Z"/><path d="M120.59,30.18a1.64,1.64,0,0,1-.86.19c-1,0-1.52-.59-1.52-1.76V25.05h-1v-.83h1V22.75l.92-.31v1.78h1.46v.83h-1.46v3.39a1.45,1.45,0,0,0,.2.86.75.75,0,0,0,.66.26,1,1,0,0,0,.6-.2Z"/><path d="M129.3,24.22l-1.73,6h-1l-1.19-4.31a2.87,2.87,0,0,1-.09-.55h0a2.44,2.44,0,0,1-.12.54l-1.3,4.32H123l-1.76-6h1l1.19,4.53a2.38,2.38,0,0,1,.08.54h0a2.29,2.29,0,0,1,.1-.55l1.34-4.52h.84l1.2,4.54a3.36,3.36,0,0,1,.09.54h0a2.61,2.61,0,0,1,.1-.54l1.18-4.54Z"/><path d="M131,22.69a.57.57,0,0,1-.42-.17.68.68,0,0,1,0-.9.58.58,0,0,1,.42-.18.6.6,0,0,1,.44.18.61.61,0,0,1,.18.45.61.61,0,0,1-.62.62Zm.46,7.55h-.93v-6h.93Z"/><path d="M137.48,30a2.94,2.94,0,0,1-1.59.41,2.61,2.61,0,0,1-2-.83,3.16,3.16,0,0,1-.76-2.18A3.47,3.47,0,0,1,134,25a2.83,2.83,0,0,1,2.19-.9,2.92,2.92,0,0,1,1.35.3v1a2.32,2.32,0,0,0-1.38-.47,1.85,1.85,0,0,0-1.46.66,2.59,2.59,0,0,0-.57,1.74,2.43,2.43,0,0,0,.54,1.67,1.78,1.78,0,0,0,1.43.61,2.27,2.27,0,0,0,1.43-.52Z"/><path d="M143.86,30.24h-1.3L140,27.35h0v2.89h-.93V21.33H140V27h0l2.43-2.76h1.22L141,27.13Z"/><path d="M145.91,30.24H145V21.33h.93Z"/><path d="M152.62,27.47h-4.09a2.32,2.32,0,0,0,.52,1.56,1.76,1.76,0,0,0,1.37.54,2.73,2.73,0,0,0,1.79-.67v.91a3.27,3.27,0,0,1-2,.57,2.38,2.38,0,0,1-1.92-.82,3.4,3.4,0,0,1-.7-2.3,3.37,3.37,0,0,1,.76-2.29,2.43,2.43,0,0,1,1.9-.89,2.14,2.14,0,0,1,1.76.77,3.23,3.23,0,0,1,.63,2.12Zm-1-.81a2.07,2.07,0,0,0-.39-1.3,1.31,1.31,0,0,0-1.06-.47,1.51,1.51,0,0,0-1.12.49,2.29,2.29,0,0,0-.56,1.28Z"/><path d="M157.21,25.2a1.08,1.08,0,0,0-.7-.2,1.16,1.16,0,0,0-1,.59,2.7,2.7,0,0,0-.4,1.58v3.07h-.93v-6h.93v1.24h0a2.14,2.14,0,0,1,.61-1,1.52,1.52,0,0,1,1.46-.27Z"/><path d="M158.41,32.16h-.82A8,8,0,0,0,159.35,27a8.15,8.15,0,0,0-1.77-5.21h.83A8,8,0,0,1,160.18,27,7.66,7.66,0,0,1,158.41,32.16Z"/><path class="cls-13" d="M161.42,148.84h-2.06l-.6-1.87h-3l-.59,1.87h-2l3.06-8.4h2.24Zm-3.09-3.32-.91-2.83a4,4,0,0,1-.14-.75h0a3.06,3.06,0,0,1-.15.73l-.91,2.85Z"/><path class="cls-13" d="M167,148.84h-5.39v-.77l3-3.87H162v-1.36h5v.91l-2.86,3.72H167Z"/><path class="cls-13" d="M173.74,148.84h-1.85v-.92h0A2.09,2.09,0,0,1,170,149c-1.39,0-2.09-.84-2.09-2.52v-3.62h1.85v3.45c0,.85.33,1.28,1,1.28a1,1,0,0,0,.8-.35,1.42,1.42,0,0,0,.3-1v-3.43h1.85Z"/><path class="cls-13" d="M179.21,144.51a1.63,1.63,0,0,0-.78-.18,1.11,1.11,0,0,0-.94.44,1.84,1.84,0,0,0-.34,1.2v2.87h-1.86v-6h1.86V144h0a1.6,1.6,0,0,1,1.58-1.22,1.43,1.43,0,0,1,.46.07Z"/><path class="cls-13" d="M185.41,146.37H181.5c.06.87.61,1.3,1.65,1.3a3.14,3.14,0,0,0,1.74-.47v1.34a4.65,4.65,0,0,1-2.17.44,2.79,2.79,0,0,1-3.05-2.49,4.34,4.34,0,0,1,0-.51,3.29,3.29,0,0,1,.86-2.37,2.91,2.91,0,0,1,2.14-.87,2.63,2.63,0,0,1,2,.78,3,3,0,0,1,.71,2.12Zm-1.71-1.14c0-.86-.33-1.29-1-1.29a1,1,0,0,0-.77.37,1.73,1.73,0,0,0-.39.92Z"/><path class="cls-13" d="M189.62,148.52v-1.88a3.42,3.42,0,0,0,1.11.64,3.59,3.59,0,0,0,1.21.22,2.56,2.56,0,0,0,.62-.07,1.14,1.14,0,0,0,.44-.18.7.7,0,0,0,.27-.27.63.63,0,0,0,.09-.33.77.77,0,0,0-.14-.44,1.48,1.48,0,0,0-.39-.36,4,4,0,0,0-.57-.32l-.72-.31a3.54,3.54,0,0,1-1.47-1,2.23,2.23,0,0,1-.48-1.43,2.34,2.34,0,0,1,.26-1.13,2.13,2.13,0,0,1,.72-.77,2.88,2.88,0,0,1,1.05-.45,5.36,5.36,0,0,1,1.26-.15,7.67,7.67,0,0,1,1.17.08,4.91,4.91,0,0,1,.93.25v1.75a3,3,0,0,0-.46-.26,5.17,5.17,0,0,0-.51-.18,3,3,0,0,0-.52-.11H193a2.88,2.88,0,0,0-.59.06,1.85,1.85,0,0,0-.44.18.77.77,0,0,0-.28.26.62.62,0,0,0-.1.35.73.73,0,0,0,.11.38,1.22,1.22,0,0,0,.32.32,3.5,3.5,0,0,0,.49.29c.2.1.42.19.67.3a9.37,9.37,0,0,1,.9.44,3.29,3.29,0,0,1,.69.54,2.15,2.15,0,0,1,.44.68,2.5,2.5,0,0,1,.15.9,2.41,2.41,0,0,1-.27,1.18,2.05,2.05,0,0,1-.72.77,3.08,3.08,0,0,1-1.06.43,6.28,6.28,0,0,1-1.3.1,7.35,7.35,0,0,1-1.32-.11A4.45,4.45,0,0,1,189.62,148.52Z"/><path class="cls-13" d="M199.88,148.77a2.92,2.92,0,0,1-1.24.21,1.75,1.75,0,0,1-1.95-2V144.2h-1v-1.36h1v-1.3l1.84-.52v1.82h1.35v1.36h-1.35v2.43c0,.62.25.94.75.94a1.39,1.39,0,0,0,.6-.17Z"/><path class="cls-13" d="M205.92,148.84h-1.76V148h0a2,2,0,0,1-1.79,1,1.87,1.87,0,0,1-1.37-.49,1.79,1.79,0,0,1-.5-1.32c0-1.17.69-1.84,2.07-2l1.63-.21c0-.66-.36-1-1.07-1a3.57,3.57,0,0,0-2,.64V143.2a4.91,4.91,0,0,1,1.06-.36,6.26,6.26,0,0,1,1.22-.15,2.27,2.27,0,0,1,2.57,1.93,2.22,2.22,0,0,1,0,.63Zm-1.74-2.44V146l-1.09.14c-.61.07-.91.35-.91.81a.73.73,0,0,0,.22.52.87.87,0,0,0,.6.2,1.11,1.11,0,0,0,.85-.36A1.33,1.33,0,0,0,204.18,146.4Z"/><path class="cls-13" d="M211.93,148.62a3.65,3.65,0,0,1-1.81.36,3,3,0,0,1-2.24-.83A2.89,2.89,0,0,1,207,146a3.18,3.18,0,0,1,.92-2.41,3.45,3.45,0,0,1,2.45-.88,3.25,3.25,0,0,1,1.54.28v1.57a2.16,2.16,0,0,0-1.3-.43,1.65,1.65,0,0,0-1.26.47,2,2,0,0,0,0,2.53,1.59,1.59,0,0,0,1.22.46,2.45,2.45,0,0,0,1.36-.44Z"/><path class="cls-13" d="M219.15,148.84h-2.22l-1.91-3h0v3h-1.85V140H215v5.65h0l1.78-2.77H219l-2.15,2.82Z"/><path class="cls-13" d="M230.61,148.84h-1.9v-3.42h-3.48v3.42h-1.89v-8.4h1.89v3.35h3.48v-3.35h1.9Z"/><path class="cls-13" d="M238.05,148.84h-1.84v-.92h0a2.09,2.09,0,0,1-1.83,1.06c-1.39,0-2.09-.84-2.09-2.52v-3.62h1.85v3.45c0,.85.33,1.28,1,1.28a1,1,0,0,0,.8-.35,1.42,1.42,0,0,0,.3-.95v-3.43h1.84Z"/><path class="cls-13" d="M241.49,148.14h0v.7h-1.85V140h1.85v3.78h0a2.18,2.18,0,0,1,1.95-1.05,2.14,2.14,0,0,1,1.79.8,3.52,3.52,0,0,1,.62,2.18,3.72,3.72,0,0,1-.73,2.41,2.41,2.41,0,0,1-2,.9A1.88,1.88,0,0,1,241.49,148.14Zm-.05-2.53v.61a1.46,1.46,0,0,0,.33,1,1.1,1.1,0,0,0,.86.38,1.16,1.16,0,0,0,1-.49,2.35,2.35,0,0,0,.35-1.39,1.91,1.91,0,0,0-.32-1.16,1.09,1.09,0,0,0-.92-.42,1.18,1.18,0,0,0-.92.42A1.56,1.56,0,0,0,241.44,145.61Z"/><path class="cls-13" d="M191.69,70h-2.06l-.6-1.87h-3L185.45,70h-2l3.06-8.4h2.24Zm-3.09-3.32-.91-2.83a4,4,0,0,1-.14-.75h0a3.06,3.06,0,0,1-.15.73l-.91,2.85Z"/><path class="cls-13" d="M197.31,70h-5.39v-.77l3-3.86H192.2V64h5.07v.91l-2.86,3.72h2.88Z"/><path class="cls-13" d="M204,70h-1.85v-.91h0a2.1,2.1,0,0,1-1.83,1.06c-1.39,0-2.09-.85-2.09-2.53V64h1.85v3.46c0,.84.33,1.27,1,1.27a1,1,0,0,0,.8-.35,1.42,1.42,0,0,0,.3-.95V64H204Z"/><path class="cls-13" d="M209.48,65.67a1.63,1.63,0,0,0-.78-.18,1.11,1.11,0,0,0-.94.44,2,2,0,0,0-.34,1.2V70h-1.86V64h1.86v1.11h0A1.6,1.6,0,0,1,209,63.89a1.43,1.43,0,0,1,.46.07Z"/><path class="cls-13" d="M215.68,67.53h-3.91c.06.87.61,1.3,1.65,1.3a3.22,3.22,0,0,0,1.74-.46V69.7a4.53,4.53,0,0,1-2.17.45,2.79,2.79,0,0,1-3.05-2.5,2.62,2.62,0,0,1,0-.56,3.18,3.18,0,0,1,.86-2.36,2.87,2.87,0,0,1,2.14-.88,2.63,2.63,0,0,1,2,.78,3,3,0,0,1,.71,2.12ZM214,66.39q0-1.29-1.05-1.29a1,1,0,0,0-.77.37,1.65,1.65,0,0,0-.39.92Z"/></g></svg>