<svg xmlns="http://www.w3.org/2000/svg" xmlns:xlink="http://www.w3.org/1999/xlink" viewBox="0 0 395 201.5"><defs><style>.cls-1{fill:#fff;}.cls-2,.cls-8{fill:#3c3c41;}.cls-2,.cls-6{opacity:0.08;}.cls-2,.cls-3,.cls-4,.cls-5,.cls-6,.cls-7,.cls-8,.cls-9{isolation:isolate;}.cls-3,.cls-4,.cls-5{opacity:0.7;}.cls-3{fill:url(#Degradado_sin_nombre);}.cls-4{fill:url(#Degradado_sin_nombre_2);}.cls-5{fill:url(#Degradado_sin_nombre_3);}.cls-6{fill:#0078d4;}.cls-7,.cls-9{fill:none;stroke-miterlimit:10;stroke-width:0.5px;}.cls-7{stroke:#0078d4;opacity:0.6;}.cls-8{opacity:0.15;}.cls-9{stroke:#3c3c41;opacity:0.5;}.cls-10{fill:url(#Degradado_sin_nombre_4);}.cls-11{fill:#f2f2f2;}.cls-12{fill:#1e1e1e;}</style><linearGradient id="Degradado_sin_nombre" x1="62.5" y1="201.89" x2="62.5" y2="26.89" gradientTransform="matrix(1, 0, 0, -1, 0, 201.89)" gradientUnits="userSpaceOnUse"><stop offset="0" stop-color="#5ea0ef"/><stop offset="0.18" stop-color="#559cec"/><stop offset="0.47" stop-color="#3c91e5"/><stop offset="0.84" stop-color="#1380da"/><stop offset="1" stop-color="#0078d4"/></linearGradient><linearGradient id="Degradado_sin_nombre_2" x1="197.5" y1="201.89" x2="197.5" y2="26.89" xlink:href="#Degradado_sin_nombre"/><linearGradient id="Degradado_sin_nombre_3" x1="332.5" y1="201.89" x2="332.5" y2="26.89" xlink:href="#Degradado_sin_nombre"/><linearGradient id="Degradado_sin_nombre_4" x1="146.77" y1="486.39" x2="146.77" y2="509.39" gradientTransform="translate(0 -307.89)" xlink:href="#Degradado_sin_nombre"/></defs><g id="bg"><g id="Shapes"><rect class="cls-1" x="135" width="260" height="195"/><rect class="cls-2" x="135" width="260" height="195"/><rect class="cls-1" width="125" height="175"/><rect class="cls-3" width="125" height="175"/><rect class="cls-1" x="135" width="125" height="175"/><rect class="cls-4" x="135" width="125" height="175"/><rect class="cls-1" x="270" width="125" height="175"/><rect class="cls-5" x="270" width="125" height="175"/><rect class="cls-1" x="5" y="40" width="250" height="40"/><rect class="cls-6" x="5" y="40" width="250" height="40"/><rect class="cls-7" x="5" y="40" width="250" height="40"/><rect class="cls-1" x="140" y="85" width="250" height="40"/><rect class="cls-8" x="140" y="85" width="250" height="40"/><rect class="cls-9" x="140" y="85" width="250" height="40"/><rect class="cls-1" x="5" y="85" width="115" height="50"/><rect class="cls-6" x="5" y="85" width="115" height="50"/><rect class="cls-7" x="5" y="85" width="115" height="50"/><rect class="cls-1" x="5" y="140" width="115" height="25"/><rect class="cls-6" x="5" y="140" width="115" height="25"/><rect class="cls-7" x="5" y="140" width="115" height="25"/><rect class="cls-1" x="140" y="140" width="250" height="25"/><rect class="cls-8" x="140" y="140" width="250" height="25"/><rect class="cls-9" x="140" y="140" width="250" height="25"/><path class="cls-10" d="M153.53,179.27v21.46a.75.75,0,0,1-.74.77h-12a.75.75,0,0,1-.77-.74V179.27a.75.75,0,0,1,.74-.77h12a.75.75,0,0,1,.77.74Z"/><path id="a1bc77ea-5288-41a0-8f9a-2d282cf54a86" class="cls-11" d="M141.8,180.89h2.26a.21.21,0,0,1,.19.19v2.85a.19.19,0,0,1-.19.18H141.8a.18.18,0,0,1-.2-.16v-2.87A.2.2,0,0,1,141.8,180.89Zm3.87,0h2.19a.2.2,0,0,1,.19.19h0v2.85a.18.18,0,0,1-.18.18h-2.2a.18.18,0,0,1-.19-.17h0v-2.85a.2.2,0,0,1,.19-.19Zm3.87,0h2.19a.2.2,0,0,1,.2.19v2.85a.18.18,0,0,1-.18.18h-2.21a.18.18,0,0,1-.19-.17h0v-2.85a.2.2,0,0,1,.19-.19Zm-7.74,5.16h2.26a.2.2,0,0,1,.19.19h0v2.84a.19.19,0,0,1-.18.2H141.8a.2.2,0,0,1-.2-.2v-2.84a.19.19,0,0,1,.19-.19Zm3.87,0h2.19a.18.18,0,0,1,.19.17v0h0v2.84a.19.19,0,0,1-.18.2h-2.2a.19.19,0,0,1-.19-.19h0v-2.84a.18.18,0,0,1,.17-.19Zm3.87,0h2.19a.19.19,0,0,1,.2.18h0v2.84a.2.2,0,0,1-.2.2h-2.19a.19.19,0,0,1-.19-.19h0v-2.84a.18.18,0,0,1,.17-.19Zm-7.74,5.17h2.26a.2.2,0,0,1,.19.19h0v2.84a.21.21,0,0,1-.19.19H141.8a.2.2,0,0,1-.2-.19v-2.9a.2.2,0,0,1,.2-.13Zm3.87,0h2.19a.19.19,0,0,1,.25.1h0v2.84a.2.2,0,0,1-.19.19h-2.26a.18.18,0,0,1-.19-.17v0h0v-2.84a.18.18,0,0,1,.2-.1Zm0,5.15h2.19a.2.2,0,0,1,.19.19h0v4.26a.18.18,0,0,1-.17.19h-2.21a.18.18,0,0,1-.19-.17v-4.28a.2.2,0,0,1,.19-.19Zm3.87-5.15h2.19a.19.19,0,0,1,.2.18h0v2.84a.2.2,0,0,1-.2.19h-2.19a.2.2,0,0,1-.19-.19h0v-2.9a.18.18,0,0,1,.19-.13Z"/></g><path class="cls-12" d="M54.28,17H52.22l-.6-1.87h-3L48,17H46l3.06-8.4H51.3Zm-3.09-3.32-.9-2.83a2.76,2.76,0,0,1-.14-.75h0a3.06,3.06,0,0,1-.15.73l-1,2.85Z"/><path class="cls-12" d="M60.21,17H54.83v-.77l3-3.86h-2.7V11h5.06v.91l-2.86,3.72h2.88Z"/><path class="cls-12" d="M67,17H65.13v-.91h0a2.1,2.1,0,0,1-1.83,1.06c-1.39,0-2.09-.85-2.09-2.53V11H63v3.46c0,.84.33,1.27,1,1.27a1,1,0,0,0,.8-.35,1.43,1.43,0,0,0,.3-1V11H67Z"/><path class="cls-12" d="M72.42,12.67a1.75,1.75,0,0,0-.78-.18,1.14,1.14,0,0,0-1,.44,2,2,0,0,0-.34,1.2V17H68.5V11h1.85v1.11h0A1.6,1.6,0,0,1,72,10.89a1.43,1.43,0,0,1,.46.07Z"/><path class="cls-12" d="M78.74,14.53H74.83c.06.87.61,1.3,1.65,1.3a3.22,3.22,0,0,0,1.74-.46V16.7a4.53,4.53,0,0,1-2.17.45,3,3,0,0,1-2.25-.81,3,3,0,0,1-.8-2.25,3.18,3.18,0,0,1,.86-2.36A2.87,2.87,0,0,1,76,10.85a2.63,2.63,0,0,1,2,.78,3,3,0,0,1,.71,2.12ZM77,13.39c0-.86-.33-1.29-1-1.29a1,1,0,0,0-.77.37,1.65,1.65,0,0,0-.39.92Z"/></g><g id="txt"><path class="cls-12" d="M293.61,16.07h-2.1l-.61-1.93h-3l-.6,1.93h-2.08l3.11-8.65h2.28Zm-3.15-3.42-.92-2.91A4.41,4.41,0,0,1,289.4,9h0a3.3,3.3,0,0,1-.15.76l-.93,2.93Z"/><path class="cls-12" d="M299.32,16.07h-5.48v-.79l3.07-4h-2.76V9.89h5.15v.94l-2.91,3.83h2.93Z"/><path class="cls-12" d="M306.13,16.07h-1.88v-.94h0a2.1,2.1,0,0,1-1.86,1.09c-1.42,0-2.12-.87-2.12-2.6V9.89h1.87v3.56c0,.87.35,1.31,1,1.31a1,1,0,0,0,.81-.36,1.46,1.46,0,0,0,.3-1V9.89h1.88Z"/><path class="cls-12" d="M311.69,11.61a1.65,1.65,0,0,0-.79-.18,1.14,1.14,0,0,0-1,.45,2,2,0,0,0-.34,1.24v3h-1.89V9.89h1.89V11h0a1.62,1.62,0,0,1,1.61-1.25,1.14,1.14,0,0,1,.46.07Z"/><path class="cls-12" d="M318,13.52h-4c.07.9.62,1.35,1.68,1.35a3.26,3.26,0,0,0,1.77-.48v1.37a4.58,4.58,0,0,1-2.2.46,3.1,3.1,0,0,1-2.3-.83,3.16,3.16,0,0,1-.81-2.31,3.32,3.32,0,0,1,.88-2.44,2.92,2.92,0,0,1,2.17-.9,2.64,2.64,0,0,1,2.06.8,3.12,3.12,0,0,1,.73,2.18Zm-1.74-1.17c0-.88-.36-1.32-1.06-1.32a1,1,0,0,0-.79.38,1.75,1.75,0,0,0-.4.94Z"/><path class="cls-12" d="M322.28,15.74V13.81a3.8,3.8,0,0,0,1.13.66,3.7,3.7,0,0,0,1.22.22,2.41,2.41,0,0,0,.64-.07,1.32,1.32,0,0,0,.45-.18.8.8,0,0,0,.27-.28.7.7,0,0,0,.09-.35.77.77,0,0,0-.14-.45,2,2,0,0,0-.39-.37,4,4,0,0,0-.59-.32l-.73-.32a3.7,3.7,0,0,1-1.49-1,2.28,2.28,0,0,1-.5-1.47,2.38,2.38,0,0,1,.27-1.17,2.21,2.21,0,0,1,.73-.79,3.35,3.35,0,0,1,1.07-.47,6,6,0,0,1,1.29-.14,7,7,0,0,1,1.18.08,4.56,4.56,0,0,1,1,.25v1.8a2.37,2.37,0,0,0-.47-.26,3.24,3.24,0,0,0-.52-.19,5,5,0,0,0-.53-.12l-.5,0a2.77,2.77,0,0,0-.6.06,1.32,1.32,0,0,0-.45.18,1,1,0,0,0-.29.27.65.65,0,0,0-.1.36.71.71,0,0,0,.11.39,1.65,1.65,0,0,0,.32.33,3.83,3.83,0,0,0,.51.3c.2.1.42.2.67.3a7.88,7.88,0,0,1,.92.46,3.07,3.07,0,0,1,.7.56,2,2,0,0,1,.45.7,2.56,2.56,0,0,1,.16.92,2.36,2.36,0,0,1-.28,1.21,2.16,2.16,0,0,1-.73.8,3.27,3.27,0,0,1-1.08.44,6.1,6.1,0,0,1-1.3.13,7.18,7.18,0,0,1-1.34-.12A4.06,4.06,0,0,1,322.28,15.74Z"/><path class="cls-12" d="M332.71,16a2.88,2.88,0,0,1-1.25.22c-1.33,0-2-.7-2-2.09V11.3h-1V9.89h1V8.56L331.34,8V9.89h1.37V11.3h-1.37v2.5c0,.64.25,1,.76,1a1.31,1.31,0,0,0,.61-.17Z"/><path class="cls-12" d="M338.85,16.07h-1.78v-.89h0a2,2,0,0,1-1.81,1,1.88,1.88,0,0,1-1.4-.51,1.83,1.83,0,0,1-.51-1.36q0-1.8,2.1-2.07l1.66-.23c0-.67-.36-1-1.09-1a3.68,3.68,0,0,0-2.07.66V10.26A4.23,4.23,0,0,1,335,9.9a5.27,5.27,0,0,1,1.24-.16,2.32,2.32,0,0,1,2.61,2.64Zm-1.77-2.51v-.42l-1.11.15c-.61.08-.92.36-.92.84a.7.7,0,0,0,.23.53.83.83,0,0,0,.6.21,1.16,1.16,0,0,0,.87-.37A1.37,1.37,0,0,0,337.08,13.56Z"/><path class="cls-12" d="M345,15.85a3.78,3.78,0,0,1-1.84.37,3.12,3.12,0,0,1-2.28-.86,3,3,0,0,1-.87-2.23,3.28,3.28,0,0,1,.94-2.48,3.43,3.43,0,0,1,2.49-.91A3.19,3.19,0,0,1,345,10v1.62a2.11,2.11,0,0,0-1.32-.45,1.72,1.72,0,0,0-1.28.48,1.79,1.79,0,0,0-.47,1.33,1.77,1.77,0,0,0,.45,1.28,1.66,1.66,0,0,0,1.24.47,2.46,2.46,0,0,0,1.38-.45Z"/><path class="cls-12" d="M352.31,16.07h-2.26L348.1,13h0v3.06h-1.89V6.93h1.89v5.82h0l1.82-2.86h2.23L350,12.79Z"/><path class="cls-12" d="M364,16.07H362V12.55h-3.54v3.52h-1.92V7.42h1.92v3.45H362V7.42H364Z"/><path class="cls-12" d="M371.52,16.07h-1.87v-.94h0a2.13,2.13,0,0,1-1.87,1.09c-1.41,0-2.12-.87-2.12-2.6V9.89h1.88v3.56c0,.87.34,1.31,1,1.31a1,1,0,0,0,.81-.36,1.41,1.41,0,0,0,.31-1V9.89h1.87Z"/><path class="cls-12" d="M375,15.35h0v.72h-1.88V6.93H375v3.89h0a2.39,2.39,0,0,1,3.8-.26,3.62,3.62,0,0,1,.63,2.25,3.81,3.81,0,0,1-.74,2.47,2.41,2.41,0,0,1-2,.94A1.9,1.9,0,0,1,375,15.35Zm-.06-2.6v.63a1.49,1.49,0,0,0,.34,1,1.11,1.11,0,0,0,.87.39,1.17,1.17,0,0,0,1-.5,2.44,2.44,0,0,0,.35-1.43,1.94,1.94,0,0,0-.32-1.2,1.12,1.12,0,0,0-.93-.43,1.19,1.19,0,0,0-.94.43A1.7,1.7,0,0,0,375,12.75Z"/><path class="cls-12" d="M330.46,30.37h-1.93V26.85H325v3.52h-1.93V21.72H325v3.45h3.54V21.72h1.93Z"/><path class="cls-12" d="M338.54,30.06a5.55,5.55,0,0,1-2.45.46A4.08,4.08,0,0,1,333,29.35a4.32,4.32,0,0,1-1.13-3.12,4.61,4.61,0,0,1,1.27-3.36,4.4,4.4,0,0,1,3.29-1.29,6,6,0,0,1,2.11.32v1.87a3.8,3.8,0,0,0-2-.52,2.58,2.58,0,0,0-1.94.77,2.87,2.87,0,0,0-.74,2.07,2.77,2.77,0,0,0,.7,2,2.43,2.43,0,0,0,1.87.75,4,4,0,0,0,2.07-.56Z"/><path class="cls-12" d="M342,30.37H340V21.72H342Z"/><path class="cls-12" d="M159,17.23h-2.1l-.61-1.92h-3l-.6,1.92h-2.08l3.11-8.65H156Zm-3.15-3.42L155,10.9a4.46,4.46,0,0,1-.14-.77h-.05a3.32,3.32,0,0,1-.15.75l-.92,2.93Z"/><path class="cls-12" d="M164.73,17.23h-5.48v-.79l3.07-4h-2.76V11.05h5.15V12l-2.91,3.82h2.93Z"/><path class="cls-12" d="M171.54,17.23h-1.88v-.94h0a2.1,2.1,0,0,1-1.86,1.09c-1.42,0-2.12-.87-2.12-2.6V11.05h1.87v3.56c0,.88.35,1.31,1,1.31a1,1,0,0,0,.81-.36,1.46,1.46,0,0,0,.3-1V11.05h1.88Z"/><path class="cls-12" d="M177.1,12.77a1.65,1.65,0,0,0-.79-.18,1.14,1.14,0,0,0-1,.45,2,2,0,0,0-.34,1.24v3h-1.89V11.05H175V12.2h0A1.62,1.62,0,0,1,176.64,11a1.14,1.14,0,0,1,.46.07Z"/><path class="cls-12" d="M183.41,14.68h-4c.07.9.62,1.35,1.68,1.35a3.26,3.26,0,0,0,1.77-.48v1.37a4.58,4.58,0,0,1-2.2.46,3.1,3.1,0,0,1-2.3-.83,3.16,3.16,0,0,1-.81-2.31,3.32,3.32,0,0,1,.88-2.44,2.92,2.92,0,0,1,2.17-.9,2.62,2.62,0,0,1,2.06.81,3.08,3.08,0,0,1,.73,2.17Zm-1.74-1.16c0-.89-.36-1.33-1.06-1.33a1,1,0,0,0-.79.38,1.75,1.75,0,0,0-.4.95Z"/><path class="cls-12" d="M187.69,16.9V15a3.8,3.8,0,0,0,1.13.66,3.46,3.46,0,0,0,1.22.22,2.41,2.41,0,0,0,.64-.07,1.32,1.32,0,0,0,.45-.18.8.8,0,0,0,.27-.28.7.7,0,0,0,.09-.35.8.8,0,0,0-.14-.45,2,2,0,0,0-.39-.37,4,4,0,0,0-.59-.32l-.73-.32a3.7,3.7,0,0,1-1.49-1,2.28,2.28,0,0,1-.5-1.47,2.34,2.34,0,0,1,.27-1.16,2.24,2.24,0,0,1,.73-.8,3.35,3.35,0,0,1,1.07-.47A6,6,0,0,1,191,8.44a7,7,0,0,1,1.18.08,4.56,4.56,0,0,1,.95.25v1.8a2.37,2.37,0,0,0-.47-.26,3.24,3.24,0,0,0-.52-.19,3.33,3.33,0,0,0-.53-.11,3,3,0,0,0-.5,0,2.77,2.77,0,0,0-.6.06,1.32,1.32,0,0,0-.45.18,1,1,0,0,0-.29.27.65.65,0,0,0-.1.36.71.71,0,0,0,.11.39,1.42,1.42,0,0,0,.32.33,3.83,3.83,0,0,0,.51.3c.2.1.42.2.67.3a6.56,6.56,0,0,1,.92.47,3.05,3.05,0,0,1,.71.55,2.13,2.13,0,0,1,.44.7,2.56,2.56,0,0,1,.16.92,2.46,2.46,0,0,1-.27,1.21,2.28,2.28,0,0,1-.74.8,3.27,3.27,0,0,1-1.08.44,6.1,6.1,0,0,1-1.3.13,7.18,7.18,0,0,1-1.34-.12A4.06,4.06,0,0,1,187.69,16.9Z"/><path class="cls-12" d="M198.12,17.16a2.76,2.76,0,0,1-1.26.22c-1.32,0-2-.7-2-2.09V12.46h-1V11.05h1V9.72l1.87-.54v1.87h1.37v1.41h-1.37V15c0,.64.25,1,.76,1a1.31,1.31,0,0,0,.61-.17Z"/><path class="cls-12" d="M204.26,17.23h-1.78v-.89h0a2,2,0,0,1-1.81,1,1.88,1.88,0,0,1-1.4-.51,1.83,1.83,0,0,1-.51-1.36q0-1.8,2.1-2.07l1.66-.23c0-.67-.36-1-1.09-1a3.68,3.68,0,0,0-2.07.66V11.42a4.66,4.66,0,0,1,1.08-.36,5.86,5.86,0,0,1,1.24-.16,2.32,2.32,0,0,1,2.61,2.64Zm-1.77-2.51v-.41l-1.11.14c-.61.08-.92.36-.92.84a.69.69,0,0,0,.23.53.83.83,0,0,0,.6.21,1.13,1.13,0,0,0,.87-.37A1.37,1.37,0,0,0,202.49,14.72Z"/><path class="cls-12" d="M210.37,17a3.67,3.67,0,0,1-1.84.37,3.12,3.12,0,0,1-2.28-.86,3,3,0,0,1-.87-2.23,3.32,3.32,0,0,1,.94-2.48,3.43,3.43,0,0,1,2.49-.91,3.19,3.19,0,0,1,1.56.29v1.62a2.11,2.11,0,0,0-1.32-.45,1.72,1.72,0,0,0-1.28.48,1.79,1.79,0,0,0-.47,1.33,1.77,1.77,0,0,0,.45,1.28,1.62,1.62,0,0,0,1.24.47,2.46,2.46,0,0,0,1.38-.45Z"/><path class="cls-12" d="M217.72,17.23h-2.26l-2-3.06h0v3.06H211.6V8.09h1.89v5.82h0l1.82-2.86h2.23L215.38,14Z"/><path class="cls-12" d="M229.37,17.23h-1.93V13.71H223.9v3.52H222V8.58h1.92V12h3.54V8.58h1.93Z"/><path class="cls-12" d="M236.93,17.23h-1.87v-.94h0a2.13,2.13,0,0,1-1.87,1.09c-1.41,0-2.12-.87-2.12-2.6V11.05h1.88v3.56c0,.88.34,1.31,1,1.31a1,1,0,0,0,.81-.36,1.41,1.41,0,0,0,.31-1V11.05h1.87Z"/><path class="cls-12" d="M240.43,16.51h0v.72h-1.88V8.09h1.88V12h0a2.39,2.39,0,0,1,3.8-.26,3.62,3.62,0,0,1,.63,2.25,3.86,3.86,0,0,1-.74,2.48,2.42,2.42,0,0,1-2,.93A1.9,1.9,0,0,1,240.43,16.51Zm-.06-2.6v.63a1.49,1.49,0,0,0,.34,1,1.11,1.11,0,0,0,.87.39,1.17,1.17,0,0,0,1-.5,2.44,2.44,0,0,0,.35-1.43,1.94,1.94,0,0,0-.32-1.2,1.12,1.12,0,0,0-.93-.43,1.19,1.19,0,0,0-.93.43A1.65,1.65,0,0,0,240.37,13.91Z"/><path class="cls-12" d="M27.86,47.33l-3,8.26H23.79l-3-8.26h1.06l2.26,6.55a3.41,3.41,0,0,1,.17.73h0a3.23,3.23,0,0,1,.19-.74l2.3-6.54Z"/><path class="cls-12" d="M32.74,52.88H28.63a2.18,2.18,0,0,0,.52,1.52,1.77,1.77,0,0,0,1.38.53,2.89,2.89,0,0,0,1.81-.65v.88a3.36,3.36,0,0,1-2,.57,2.47,2.47,0,0,1-1.94-.8,3.33,3.33,0,0,1-.7-2.27,3.23,3.23,0,0,1,.77-2.24,2.44,2.44,0,0,1,1.91-.87,2.16,2.16,0,0,1,1.77.75,3.13,3.13,0,0,1,.63,2.08Zm-1-.8a1.92,1.92,0,0,0-.39-1.28,1.31,1.31,0,0,0-1.06-.45,1.48,1.48,0,0,0-1.12.48,2.11,2.11,0,0,0-.57,1.25Z"/><path class="cls-12" d="M37.08,50.65a1.13,1.13,0,0,0-.71-.19,1.19,1.19,0,0,0-1,.57,2.64,2.64,0,0,0-.4,1.55v3H34v-5.9H35v1.22h0a2,2,0,0,1,.61-1,1.34,1.34,0,0,1,.92-.35,1.41,1.41,0,0,1,.56.08Z"/><path class="cls-12" d="M45.31,49.69l-1.74,5.9h-1l-1.2-4.22a2.26,2.26,0,0,1-.09-.55h0a3,3,0,0,1-.11.54l-1.31,4.23h-.93l-1.77-5.9h1l1.21,4.44a2.85,2.85,0,0,1,.08.53h0a2.88,2.88,0,0,1,.11-.54l1.34-4.43h.85L43,54.14a3,3,0,0,1,.09.53h0a2.42,2.42,0,0,1,.1-.53l1.18-4.45Z"/><path class="cls-12" d="M50.45,55.59h-.93v-.92h0a1.93,1.93,0,0,1-1.79,1.06,1.9,1.9,0,0,1-1.36-.47A1.61,1.61,0,0,1,45.85,54q0-1.65,1.92-1.92l1.75-.25q0-1.5-1.2-1.5a2.84,2.84,0,0,0-1.9.72v-1a3.56,3.56,0,0,1,2-.56c1.37,0,2.05.74,2.05,2.2Zm-.93-3-1.41.19a2.2,2.2,0,0,0-1,.33.93.93,0,0,0-.33.82.89.89,0,0,0,.31.71,1.17,1.17,0,0,0,.81.27,1.47,1.47,0,0,0,1.14-.49,1.74,1.74,0,0,0,.46-1.25Z"/><path class="cls-12" d="M53,55.59h-.94V46.86H53Z"/><path class="cls-12" d="M57.5,55.53a1.7,1.7,0,0,1-.87.19c-1,0-1.53-.58-1.53-1.73V50.5h-1v-.81h1V48.25l.94-.31v1.75H57.5v.81H56v3.32a1.42,1.42,0,0,0,.19.85.81.81,0,0,0,.67.25,1,1,0,0,0,.6-.19Z"/><path class="cls-12" d="M63.35,55.59h-.94v-.93h0a1.93,1.93,0,0,1-1.8,1.07c-1.39,0-2.08-.84-2.08-2.51V49.69h.93v3.38q0,1.86,1.41,1.86A1.41,1.41,0,0,0,62,54.42a1.93,1.93,0,0,0,.44-1.33v-3.4h.94Z"/><path class="cls-12" d="M70,55.59H69V52.23c0-1.26-.45-1.88-1.36-1.88a1.46,1.46,0,0,0-1.15.53,2,2,0,0,0-.46,1.35v3.36h-.94v-5.9h.94v1h0A2.11,2.11,0,0,1,68,49.55a1.78,1.78,0,0,1,1.47.63A2.84,2.84,0,0,1,70,52Z"/><path class="cls-12" d="M76.57,55.12c0,2.16-1,3.25-3.08,3.25A4.05,4.05,0,0,1,71.6,58V57a3.86,3.86,0,0,0,1.88.55c1.44,0,2.16-.77,2.16-2.32V54.6h0a2.18,2.18,0,0,1-2,1.13,2.15,2.15,0,0,1-1.75-.79,3.17,3.17,0,0,1-.66-2.11,3.68,3.68,0,0,1,.71-2.39,2.39,2.39,0,0,1,2-.89,1.89,1.89,0,0,1,1.75,1h0v-.82h.93Zm-.93-2.2v-.87a1.69,1.69,0,0,0-.47-1.2,1.54,1.54,0,0,0-1.17-.5,1.63,1.63,0,0,0-1.36.63,2.86,2.86,0,0,0-.49,1.79,2.47,2.47,0,0,0,.47,1.57,1.49,1.49,0,0,0,1.24.59,1.6,1.6,0,0,0,1.28-.56A2.13,2.13,0,0,0,75.64,52.92Z"/><path class="cls-12" d="M78,55.38v-1a2.75,2.75,0,0,0,1.68.57c.82,0,1.23-.27,1.23-.83a.75.75,0,0,0-.11-.4,1.09,1.09,0,0,0-.28-.29,2.07,2.07,0,0,0-.42-.22L79.57,53a4.87,4.87,0,0,1-.68-.31,1.68,1.68,0,0,1-.49-.36,1.37,1.37,0,0,1-.3-.45,1.55,1.55,0,0,1-.1-.59,1.41,1.41,0,0,1,.19-.74,1.58,1.58,0,0,1,.5-.53,2.2,2.2,0,0,1,.71-.33,3.32,3.32,0,0,1,.83-.11,3.27,3.27,0,0,1,1.36.27v1a2.67,2.67,0,0,0-1.48-.42,1.75,1.75,0,0,0-.48.06,1.2,1.2,0,0,0-.36.17.71.71,0,0,0-.23.26.63.63,0,0,0-.08.34.74.74,0,0,0,.08.38.71.71,0,0,0,.24.28,2.36,2.36,0,0,0,.39.22c.15.06.32.14.52.21a6.44,6.44,0,0,1,.69.31,2.37,2.37,0,0,1,.52.36,1.28,1.28,0,0,1,.34.46,1.58,1.58,0,0,1,.11.61,1.43,1.43,0,0,1-.19.76,1.46,1.46,0,0,1-.51.54,2.31,2.31,0,0,1-.73.32,4.14,4.14,0,0,1-.87.1A3.32,3.32,0,0,1,78,55.38Z"/><path class="cls-12" d="M85.88,55.53a1.77,1.77,0,0,1-.88.19c-1,0-1.53-.58-1.53-1.73V50.5h-1v-.81h1V48.25l.94-.31v1.75h1.47v.81H84.41v3.32a1.35,1.35,0,0,0,.2.85.78.78,0,0,0,.66.25,1,1,0,0,0,.61-.19Z"/><path class="cls-12" d="M89.44,55.73a2.68,2.68,0,0,1-2.06-.83,3.05,3.05,0,0,1-.77-2.19,3.18,3.18,0,0,1,.8-2.32,2.85,2.85,0,0,1,2.17-.84,2.58,2.58,0,0,1,2,.81,3.27,3.27,0,0,1,.73,2.26,3.22,3.22,0,0,1-.78,2.26A2.74,2.74,0,0,1,89.44,55.73Zm.07-5.38a1.74,1.74,0,0,0-1.42.62,2.55,2.55,0,0,0-.53,1.71,2.44,2.44,0,0,0,.53,1.65,1.8,1.8,0,0,0,1.42.6,1.68,1.68,0,0,0,1.39-.59,3.18,3.18,0,0,0,0-3.39A1.68,1.68,0,0,0,89.51,50.35Z"/><path class="cls-12" d="M96.15,55.73a2.7,2.7,0,0,1-2.06-.83,3.1,3.1,0,0,1-.77-2.19,3.22,3.22,0,0,1,.8-2.32,2.87,2.87,0,0,1,2.17-.84,2.62,2.62,0,0,1,2,.81,3.32,3.32,0,0,1,.73,2.26,3.22,3.22,0,0,1-.79,2.26A2.74,2.74,0,0,1,96.15,55.73Zm.07-5.38A1.74,1.74,0,0,0,94.8,51a2.55,2.55,0,0,0-.52,1.71,2.39,2.39,0,0,0,.53,1.65,1.78,1.78,0,0,0,1.41.6,1.66,1.66,0,0,0,1.39-.59,3.18,3.18,0,0,0,0-3.39A1.67,1.67,0,0,0,96.22,50.35Z"/><path class="cls-12" d="M101.37,55.59h-.94V46.86h.94Z"/><path class="cls-12" d="M102.79,55.38v-1a2.7,2.7,0,0,0,1.67.57c.82,0,1.23-.27,1.23-.83a.74.74,0,0,0-.1-.4,1.14,1.14,0,0,0-.29-.29,1.83,1.83,0,0,0-.42-.22l-.52-.22a5.47,5.47,0,0,1-.68-.31,1.83,1.83,0,0,1-.49-.36,1.2,1.2,0,0,1-.29-.45,1.55,1.55,0,0,1-.1-.59,1.5,1.5,0,0,1,.18-.74,1.72,1.72,0,0,1,.51-.53,2,2,0,0,1,.71-.33,3.38,3.38,0,0,1,2.18.16v1a2.64,2.64,0,0,0-1.48-.42,1.73,1.73,0,0,0-.47.06,1.2,1.2,0,0,0-.36.17.71.71,0,0,0-.23.26.64.64,0,0,0-.09.34.74.74,0,0,0,.09.38.71.71,0,0,0,.24.28,1.9,1.9,0,0,0,.38.22l.52.21a6.64,6.64,0,0,1,.7.31,2.64,2.64,0,0,1,.52.36,1.15,1.15,0,0,1,.33.46,1.41,1.41,0,0,1,.12.61,1.43,1.43,0,0,1-.19.76,1.65,1.65,0,0,1-.51.54,2.42,2.42,0,0,1-.73.32,4.14,4.14,0,0,1-.87.1A3.32,3.32,0,0,1,102.79,55.38Z"/><path class="cls-12" d="M113.93,47.69a1.19,1.19,0,0,0-.62-.16c-.66,0-1,.42-1,1.25v.91h1.36v.81h-1.36v5.09h-.93V50.5h-1v-.81h1v-1a2,2,0,0,1,.53-1.46,1.76,1.76,0,0,1,1.32-.54,1.84,1.84,0,0,1,.68.1Z"/><path class="cls-12" d="M119.29,55.59h-.93v-.93h0a1.9,1.9,0,0,1-1.79,1.07c-1.39,0-2.09-.84-2.09-2.51V49.69h.93v3.38q0,1.86,1.41,1.86a1.43,1.43,0,0,0,1.13-.51,2,2,0,0,0,.44-1.33v-3.4h.93Zm-3.46-7a.53.53,0,0,1-.41-.17.56.56,0,0,1,0-.8.51.51,0,0,1,.39-.16.57.57,0,0,1,.41.16.56.56,0,0,1,.17.4.58.58,0,0,1-.17.41A.53.53,0,0,1,115.83,48.57Zm2.19,0a.54.54,0,0,1-.4-.16.54.54,0,0,1-.16-.41.54.54,0,0,1,.16-.4.49.49,0,0,1,.38-.16.56.56,0,0,1,.41.16.55.55,0,0,1,.16.4.57.57,0,0,1-.16.41A.51.51,0,0,1,118,48.57Z"/><path class="cls-12" d="M124.1,50.65a1.13,1.13,0,0,0-.71-.19,1.19,1.19,0,0,0-1,.57,2.64,2.64,0,0,0-.4,1.55v3h-.93v-5.9H122v1.22h0a2.1,2.1,0,0,1,.61-1,1.36,1.36,0,0,1,.92-.35,1.41,1.41,0,0,1,.56.08Z"/><path class="cls-12" d="M133,55.59h-.93v-1h0a2.15,2.15,0,0,1-2,1.14,2.19,2.19,0,0,1-1.76-.79,3.28,3.28,0,0,1-.66-2.16,3.55,3.55,0,0,1,.73-2.35,2.41,2.41,0,0,1,1.94-.88,1.87,1.87,0,0,1,1.75,1h0V46.86H133Zm-.93-2.67v-.87a1.71,1.71,0,0,0-.46-1.21,1.58,1.58,0,0,0-1.19-.49,1.59,1.59,0,0,0-1.34.63,2.78,2.78,0,0,0-.49,1.75,2.47,2.47,0,0,0,.47,1.61,1.5,1.5,0,0,0,1.26.59,1.6,1.6,0,0,0,1.27-.57A2.16,2.16,0,0,0,132.11,52.92Z"/><path class="cls-12" d="M139,55.59h-.93v-.92h0a1.93,1.93,0,0,1-1.79,1.06,1.9,1.9,0,0,1-1.36-.47,1.61,1.61,0,0,1-.49-1.24q0-1.65,1.92-1.92l1.75-.25q0-1.5-1.2-1.5a2.88,2.88,0,0,0-1.91.72v-1a3.62,3.62,0,0,1,2-.56c1.37,0,2.05.74,2.05,2.2Zm-.93-3-1.41.19a2.2,2.2,0,0,0-1,.33.93.93,0,0,0-.33.82.89.89,0,0,0,.31.71,1.17,1.17,0,0,0,.81.27,1.47,1.47,0,0,0,1.14-.49,1.74,1.74,0,0,0,.46-1.25Z"/><path class="cls-12" d="M140.28,55.38v-1a2.75,2.75,0,0,0,1.68.57c.82,0,1.23-.27,1.23-.83a.75.75,0,0,0-.11-.4,1.09,1.09,0,0,0-.28-.29,2.07,2.07,0,0,0-.42-.22l-.52-.22a4.87,4.87,0,0,1-.68-.31,1.68,1.68,0,0,1-.49-.36,1.37,1.37,0,0,1-.3-.45,1.55,1.55,0,0,1-.1-.59,1.41,1.41,0,0,1,.19-.74A1.58,1.58,0,0,1,141,50a2.2,2.2,0,0,1,.71-.33,3.32,3.32,0,0,1,.83-.11,3.27,3.27,0,0,1,1.36.27v1a2.67,2.67,0,0,0-1.48-.42,1.75,1.75,0,0,0-.48.06,1.2,1.2,0,0,0-.36.17.71.71,0,0,0-.23.26.63.63,0,0,0-.08.34.74.74,0,0,0,.08.38.8.8,0,0,0,.24.28,2.36,2.36,0,0,0,.39.22c.15.06.32.14.52.21a6.44,6.44,0,0,1,.69.31,2.37,2.37,0,0,1,.52.36,1.28,1.28,0,0,1,.34.46,1.42,1.42,0,0,1,.11.61,1.43,1.43,0,0,1-.19.76,1.46,1.46,0,0,1-.51.54,2.31,2.31,0,0,1-.73.32,4.14,4.14,0,0,1-.87.1A3.32,3.32,0,0,1,140.28,55.38Z"/><path class="cls-12" d="M155,55.59h-1.06l-.86-2.32H149.6l-.82,2.32h-1.06l3.13-8.26h1Zm-2.23-3.19-1.29-3.52a3.43,3.43,0,0,1-.12-.55h0a4.13,4.13,0,0,1-.13.55l-1.27,3.52Z"/><path class="cls-12" d="M160,50l-3.45,4.82H160v.81h-4.79V55.3l3.45-4.8h-3.12v-.81H160Z"/><path class="cls-12" d="M165.81,55.59h-.94v-.93h0a1.92,1.92,0,0,1-1.8,1.07c-1.39,0-2.08-.84-2.08-2.51V49.69h.93v3.38q0,1.86,1.41,1.86a1.41,1.41,0,0,0,1.12-.51,1.93,1.93,0,0,0,.44-1.33v-3.4h.94Z"/><path class="cls-12" d="M170.61,50.65a1.08,1.08,0,0,0-.7-.19,1.19,1.19,0,0,0-1,.57,2.64,2.64,0,0,0-.4,1.55v3h-.93v-5.9h.93v1.22h0a2,2,0,0,1,.61-1,1.34,1.34,0,0,1,.92-.35,1.33,1.33,0,0,1,.55.08Z"/><path class="cls-12" d="M176.2,52.88h-4.12a2.28,2.28,0,0,0,.52,1.52,1.8,1.8,0,0,0,1.38.53,2.87,2.87,0,0,0,1.81-.65v.88a3.32,3.32,0,0,1-2,.57,2.47,2.47,0,0,1-1.94-.8,3.34,3.34,0,0,1-.71-2.27,3.28,3.28,0,0,1,.77-2.24,2.48,2.48,0,0,1,1.92-.87,2.18,2.18,0,0,1,1.77.75,3.13,3.13,0,0,1,.63,2.08Zm-1-.8a1.92,1.92,0,0,0-.39-1.28,1.33,1.33,0,0,0-1.07-.45,1.5,1.5,0,0,0-1.12.48,2.11,2.11,0,0,0-.57,1.25Z"/><path class="cls-12" d="M180.47,52.68h-3.1v-.75h3.1Z"/><path class="cls-12" d="M183.12,52.47v3.12h-1V47.33h2.24a2.93,2.93,0,0,1,2,.64,2.32,2.32,0,0,1,.72,1.82,2.5,2.5,0,0,1-.8,1.93,3,3,0,0,1-2.16.75Zm0-4.27v3.39h1a2.2,2.2,0,0,0,1.51-.46,1.6,1.6,0,0,0,.52-1.29c0-1.09-.64-1.64-1.91-1.64Z"/><path class="cls-12" d="M190.45,55.73a2.68,2.68,0,0,1-2.06-.83,3.05,3.05,0,0,1-.77-2.19,3.18,3.18,0,0,1,.8-2.32,2.85,2.85,0,0,1,2.17-.84,2.58,2.58,0,0,1,2,.81,3.27,3.27,0,0,1,.74,2.26,3.22,3.22,0,0,1-.79,2.26A2.74,2.74,0,0,1,190.45,55.73Zm.07-5.38a1.74,1.74,0,0,0-1.42.62,2.55,2.55,0,0,0-.53,1.71,2.44,2.44,0,0,0,.53,1.65,1.81,1.81,0,0,0,1.42.6,1.68,1.68,0,0,0,1.39-.59,3.18,3.18,0,0,0,0-3.39A1.68,1.68,0,0,0,190.52,50.35Z"/><path class="cls-12" d="M197.77,50.65a1.11,1.11,0,0,0-.71-.19,1.19,1.19,0,0,0-1,.57,2.71,2.71,0,0,0-.4,1.55v3h-.93v-5.9h.93v1.22h0a2,2,0,0,1,.6-1,1.36,1.36,0,0,1,.92-.35,1.41,1.41,0,0,1,.56.08Z"/><path class="cls-12" d="M201.37,55.53a1.7,1.7,0,0,1-.87.19c-1,0-1.53-.58-1.53-1.73V50.5h-1v-.81h1V48.25l.93-.31v1.75h1.47v.81H199.9v3.32a1.41,1.41,0,0,0,.2.85.78.78,0,0,0,.66.25,1,1,0,0,0,.61-.19Z"/><path class="cls-12" d="M206.67,55.59h-.93v-.92h0a1.93,1.93,0,0,1-1.79,1.06,1.9,1.9,0,0,1-1.36-.47,1.61,1.61,0,0,1-.49-1.24q0-1.65,1.92-1.92l1.75-.25q0-1.5-1.2-1.5a2.88,2.88,0,0,0-1.91.72v-1a3.62,3.62,0,0,1,2-.56c1.37,0,2,.74,2,2.2Zm-.93-3-1.41.19a2.2,2.2,0,0,0-1,.33A.93.93,0,0,0,203,54a.89.89,0,0,0,.31.71,1.17,1.17,0,0,0,.81.27,1.51,1.51,0,0,0,1.15-.49,1.78,1.78,0,0,0,.45-1.25Z"/><path class="cls-12" d="M209.25,55.59h-.94V46.86h.94Z"/><path class="cls-12" d="M211.87,54.28,211,57.11h-.66l.66-2.83Z"/><path class="cls-12" d="M223,55.59h-1.06L221,53.27h-3.46l-.82,2.32h-1.06l3.13-8.26h1Zm-2.24-3.19-1.28-3.52a3.43,3.43,0,0,1-.12-.55h0a2.87,2.87,0,0,1-.14.55l-1.27,3.52Z"/><path class="cls-12" d="M225,52.47v3.12h-1V47.33h2.25a2.94,2.94,0,0,1,2,.64,2.32,2.32,0,0,1,.72,1.82,2.53,2.53,0,0,1-.8,1.93,3.05,3.05,0,0,1-2.16.75Zm0-4.27v3.39h1a2.18,2.18,0,0,0,1.51-.46,1.6,1.6,0,0,0,.52-1.29c0-1.09-.63-1.64-1.91-1.64Z"/><path class="cls-12" d="M231.4,55.59h-1V47.33h1Z"/><path class="cls-12" d="M233,55.38v-1a2.75,2.75,0,0,0,1.68.57c.82,0,1.23-.27,1.23-.83a.74.74,0,0,0-.1-.4,1.14,1.14,0,0,0-.29-.29,2.07,2.07,0,0,0-.42-.22l-.52-.22a5.47,5.47,0,0,1-.68-.31,1.83,1.83,0,0,1-.49-.36,1.2,1.2,0,0,1-.29-.45,1.55,1.55,0,0,1-.1-.59,1.5,1.5,0,0,1,.18-.74,1.81,1.81,0,0,1,.5-.53,2.16,2.16,0,0,1,.72-.33,3.38,3.38,0,0,1,2.18.16v1a2.64,2.64,0,0,0-1.48-.42,1.73,1.73,0,0,0-.47.06,1.2,1.2,0,0,0-.36.17.85.85,0,0,0-.24.26.74.74,0,0,0-.08.34.86.86,0,0,0,.08.38.83.83,0,0,0,.25.28,1.9,1.9,0,0,0,.38.22l.52.21a6.64,6.64,0,0,1,.7.31,2.64,2.64,0,0,1,.52.36,1.26,1.26,0,0,1,.33.46,1.41,1.41,0,0,1,.12.61,1.43,1.43,0,0,1-.19.76,1.65,1.65,0,0,1-.51.54,2.37,2.37,0,0,1-.74.32,4,4,0,0,1-.87.1A3.32,3.32,0,0,1,233,55.38Z"/><path class="cls-12" d="M239,54.28l-.91,2.83h-.67l.67-2.83Z"/><path class="cls-12" d="M46.67,70.09h-1V61.83h1Z"/><path class="cls-12" d="M52.74,70.09h-.93v-.92h0A2,2,0,0,1,50,70.23a1.9,1.9,0,0,1-1.36-.47,1.61,1.61,0,0,1-.49-1.24q0-1.65,1.92-1.92l1.75-.25q0-1.5-1.2-1.5a2.85,2.85,0,0,0-1.9.72v-1a3.56,3.56,0,0,1,2-.56c1.37,0,2.05.74,2.05,2.2Zm-.93-3-1.41.19a2.2,2.2,0,0,0-1,.33,1.07,1.07,0,0,0,0,1.53,1.17,1.17,0,0,0,.81.27,1.49,1.49,0,0,0,1.15-.49,1.78,1.78,0,0,0,.45-1.25Z"/><path class="cls-12" d="M58.56,70.09h-.94v-.92h0a1.93,1.93,0,0,1-1.79,1.06,1.89,1.89,0,0,1-1.36-.47,1.62,1.62,0,0,1-.5-1.24c0-1.1.64-1.74,1.93-1.92l1.74-.25q0-1.5-1.2-1.5a2.87,2.87,0,0,0-1.9.72v-1a3.61,3.61,0,0,1,2-.56c1.37,0,2.06.74,2.06,2.2Zm-.94-3-1.4.19a2.2,2.2,0,0,0-1,.33.93.93,0,0,0-.33.82.91.91,0,0,0,.3.71,1.2,1.2,0,0,0,.81.27,1.48,1.48,0,0,0,1.15-.49,1.78,1.78,0,0,0,.45-1.25Z"/><path class="cls-12" d="M59.94,69.76V68.62a3,3,0,0,0,.47.31,3.57,3.57,0,0,0,.57.23q.3.09.6.15a3.75,3.75,0,0,0,.56,0A2.16,2.16,0,0,0,63.45,69a1.13,1.13,0,0,0,.44-1,1.11,1.11,0,0,0-.15-.58,1.66,1.66,0,0,0-.4-.45,3.45,3.45,0,0,0-.6-.39l-.76-.4c-.28-.14-.55-.29-.79-.44a3.38,3.38,0,0,1-.65-.5,2.17,2.17,0,0,1-.43-.61,2,2,0,0,1-.15-.8,2,2,0,0,1,.24-1,2.19,2.19,0,0,1,.64-.68,3,3,0,0,1,.91-.41,4.94,4.94,0,0,1,2.8.16v1.09a3.14,3.14,0,0,0-1.86-.5,3.26,3.26,0,0,0-.62.06,1.87,1.87,0,0,0-.56.22,1.32,1.32,0,0,0-.4.38,1.06,1.06,0,0,0-.15.58,1.35,1.35,0,0,0,.11.55,1.51,1.51,0,0,0,.35.42,3.09,3.09,0,0,0,.55.37l.76.39a9.37,9.37,0,0,1,.83.46,3.75,3.75,0,0,1,.69.54,2.51,2.51,0,0,1,.47.65,1.92,1.92,0,0,1,.17.81,2.08,2.08,0,0,1-.24,1,2,2,0,0,1-.63.69,3,3,0,0,1-.93.38,4.94,4.94,0,0,1-1.1.12l-.48,0-.58-.09c-.2,0-.39-.09-.56-.15A1.93,1.93,0,0,1,59.94,69.76Z"/><path class="cls-12" d="M67.13,68.78l-.91,2.83h-.67l.67-2.83Z"/><path class="cls-12" d="M72.85,67v3.12h-1V61.83h2.24a2.94,2.94,0,0,1,2,.64,2.32,2.32,0,0,1,.72,1.82,2.53,2.53,0,0,1-.8,1.93,3,3,0,0,1-2.16.75Zm0-4.27v3.39h1a2.2,2.2,0,0,0,1.51-.46,1.6,1.6,0,0,0,.52-1.29c0-1.09-.64-1.64-1.91-1.64Z"/><path class="cls-12" d="M82,70.09H81v-.92h0a1.93,1.93,0,0,1-1.79,1.06,1.9,1.9,0,0,1-1.36-.47,1.61,1.61,0,0,1-.49-1.24q0-1.65,1.92-1.92L81,66.35q0-1.5-1.2-1.5a2.88,2.88,0,0,0-1.91.72v-1a3.62,3.62,0,0,1,2-.56c1.37,0,2,.74,2,2.2Zm-.93-3-1.41.19a2.2,2.2,0,0,0-1,.33.93.93,0,0,0-.33.82.89.89,0,0,0,.31.71,1.17,1.17,0,0,0,.81.27,1.47,1.47,0,0,0,1.14-.49A1.74,1.74,0,0,0,81,67.69Z"/><path class="cls-12" d="M87.76,70.09h-.93v-.92h0A2,2,0,0,1,85,70.23a1.91,1.91,0,0,1-1.37-.47,1.61,1.61,0,0,1-.49-1.24q0-1.65,1.92-1.92l1.75-.25q0-1.5-1.2-1.5a2.85,2.85,0,0,0-1.9.72v-1a3.56,3.56,0,0,1,2-.56c1.37,0,2.05.74,2.05,2.2Zm-.93-3-1.4.19a2.16,2.16,0,0,0-1,.33.93.93,0,0,0-.33.82.91.91,0,0,0,.3.71,1.17,1.17,0,0,0,.81.27,1.49,1.49,0,0,0,1.15-.49,1.78,1.78,0,0,0,.45-1.25Z"/><path class="cls-12" d="M89.15,69.76V68.62a2.83,2.83,0,0,0,.46.31,3.57,3.57,0,0,0,.57.23q.3.09.6.15a4,4,0,0,0,.56,0A2.17,2.17,0,0,0,92.66,69a1.13,1.13,0,0,0,.44-1,1.11,1.11,0,0,0-.15-.58,1.85,1.85,0,0,0-.4-.45,3.21,3.21,0,0,0-.61-.39l-.75-.4c-.29-.14-.55-.29-.8-.44a3.3,3.3,0,0,1-.64-.5,2,2,0,0,1-.43-.61,1.84,1.84,0,0,1-.16-.8,1.87,1.87,0,0,1,.25-1,2.08,2.08,0,0,1,.64-.68,3,3,0,0,1,.91-.41,4,4,0,0,1,1-.13,4.06,4.06,0,0,1,1.76.29v1.09a3.19,3.19,0,0,0-1.86-.5,3.36,3.36,0,0,0-.63.06,1.81,1.81,0,0,0-.55.22,1.22,1.22,0,0,0-.4.38,1,1,0,0,0-.16.58,1.2,1.2,0,0,0,.12.55,1.35,1.35,0,0,0,.35.42,3.09,3.09,0,0,0,.55.37l.75.39a9.57,9.57,0,0,1,.84.46,3.37,3.37,0,0,1,.68.54,2.12,2.12,0,0,1,.47.65,1.79,1.79,0,0,1,.18.81,2.08,2.08,0,0,1-.24,1,2,2,0,0,1-.64.69,2.83,2.83,0,0,1-.92.38,5,5,0,0,1-1.11.12l-.47,0a5.81,5.81,0,0,1-.58-.09c-.2,0-.39-.09-.57-.15A2.06,2.06,0,0,1,89.15,69.76Z"/><path class="cls-12" d="M103.27,70.09h-.93v-.93h0a1.93,1.93,0,0,1-1.8,1.07c-1.39,0-2.08-.84-2.08-2.51V64.19h.92v3.38q0,1.86,1.41,1.86a1.43,1.43,0,0,0,1.13-.51,2,2,0,0,0,.44-1.33v-3.4h.93Z"/><path class="cls-12" d="M109.88,70.09h-.94V66.73c0-1.26-.45-1.88-1.35-1.88a1.48,1.48,0,0,0-1.16.53,2,2,0,0,0-.46,1.35v3.36H105v-5.9H106v1h0a2.1,2.1,0,0,1,1.91-1.12,1.76,1.76,0,0,1,1.46.63,2.78,2.78,0,0,1,.51,1.8Z"/><path class="cls-12" d="M116.49,70.09h-.93v-1h0a2.15,2.15,0,0,1-2,1.14,2.19,2.19,0,0,1-1.76-.79,3.28,3.28,0,0,1-.66-2.16,3.55,3.55,0,0,1,.73-2.35,2.41,2.41,0,0,1,1.94-.88,1.87,1.87,0,0,1,1.75,1h0V61.36h.93Zm-.93-2.67v-.87a1.67,1.67,0,0,0-.47-1.21,1.54,1.54,0,0,0-1.18-.49,1.59,1.59,0,0,0-1.34.63,2.78,2.78,0,0,0-.49,1.75,2.47,2.47,0,0,0,.47,1.61,1.5,1.5,0,0,0,1.26.59,1.57,1.57,0,0,0,1.26-.57A2.11,2.11,0,0,0,115.56,67.42Z"/><path class="cls-12" d="M126.32,70.09h-.93v-1h0a2.15,2.15,0,0,1-2,1.14,2.2,2.2,0,0,1-1.76-.79,3.33,3.33,0,0,1-.65-2.16,3.6,3.6,0,0,1,.72-2.35,2.43,2.43,0,0,1,2-.88,1.85,1.85,0,0,1,1.74,1h0V61.36h.93Zm-.93-2.67v-.87a1.72,1.72,0,0,0-.47-1.21,1.55,1.55,0,0,0-1.18-.49,1.62,1.62,0,0,0-1.35.63,2.84,2.84,0,0,0-.49,1.75,2.53,2.53,0,0,0,.47,1.61,1.53,1.53,0,0,0,1.26.59,1.6,1.6,0,0,0,1.27-.57A2.16,2.16,0,0,0,125.39,67.42Z"/><path class="cls-12" d="M128.57,62.69a.57.57,0,0,1-.43-.17.62.62,0,0,1-.17-.44.64.64,0,0,1,.17-.44.57.57,0,0,1,.43-.17.6.6,0,0,1,.44.17.6.6,0,0,1,.18.44.58.58,0,0,1-.18.43A.6.6,0,0,1,128.57,62.69Zm.46,7.4h-.94v-5.9H129Z"/><path class="cls-12" d="M135.48,67.38h-4.11a2.23,2.23,0,0,0,.52,1.52,1.8,1.8,0,0,0,1.38.53,2.87,2.87,0,0,0,1.81-.65v.88a3.32,3.32,0,0,1-2,.57,2.45,2.45,0,0,1-1.94-.8,3.34,3.34,0,0,1-.71-2.27,3.28,3.28,0,0,1,.77-2.24,2.46,2.46,0,0,1,1.92-.87,2.18,2.18,0,0,1,1.77.75,3.19,3.19,0,0,1,.62,2.08Zm-.95-.8a2,2,0,0,0-.39-1.28,1.33,1.33,0,0,0-1.07-.45,1.5,1.5,0,0,0-1.12.48,2.11,2.11,0,0,0-.57,1.25Z"/><path class="cls-12" d="M145.54,69.74a4.69,4.69,0,0,1-2.26.49,3.61,3.61,0,0,1-2.79-1.14,4.19,4.19,0,0,1-1-3,4.45,4.45,0,0,1,1.17-3.21,4,4,0,0,1,3-1.22,4.7,4.7,0,0,1,1.93.34v1a3.89,3.89,0,0,0-1.94-.49,2.92,2.92,0,0,0-2.28,1,3.61,3.61,0,0,0-.87,2.54,3.44,3.44,0,0,0,.81,2.4,2.77,2.77,0,0,0,2.15.9,4.07,4.07,0,0,0,2.13-.55Z"/><path class="cls-12" d="M147.89,70.09H147V61.36h.93Z"/><path class="cls-12" d="M152.1,70.23A2.68,2.68,0,0,1,150,69.4a3.06,3.06,0,0,1-.78-2.19,3.18,3.18,0,0,1,.81-2.32,2.85,2.85,0,0,1,2.17-.84,2.61,2.61,0,0,1,2,.81,3.27,3.27,0,0,1,.73,2.26,3.18,3.18,0,0,1-.79,2.26A2.72,2.72,0,0,1,152.1,70.23Zm.07-5.38a1.76,1.76,0,0,0-1.43.62,2.61,2.61,0,0,0-.52,1.71,2.44,2.44,0,0,0,.53,1.65,1.8,1.8,0,0,0,1.42.6,1.69,1.69,0,0,0,1.39-.59,3.18,3.18,0,0,0,0-3.39A1.7,1.7,0,0,0,152.17,64.85Z"/><path class="cls-12" d="M161.09,70.09h-.93v-.93h0a1.91,1.91,0,0,1-1.8,1.07c-1.38,0-2.08-.84-2.08-2.51V64.19h.93v3.38q0,1.86,1.41,1.86a1.4,1.4,0,0,0,1.12-.51,1.93,1.93,0,0,0,.45-1.33v-3.4h.93Z"/><path class="cls-12" d="M167.83,70.09h-.93v-1h0a2.34,2.34,0,0,1-3.76.35,3.28,3.28,0,0,1-.66-2.16,3.55,3.55,0,0,1,.73-2.35,2.4,2.4,0,0,1,1.94-.88,1.87,1.87,0,0,1,1.75,1h0V61.36h.93Zm-.93-2.67v-.87a1.72,1.72,0,0,0-.47-1.21,1.54,1.54,0,0,0-1.18-.49,1.62,1.62,0,0,0-1.35.63,2.84,2.84,0,0,0-.49,1.75,2.53,2.53,0,0,0,.47,1.61,1.53,1.53,0,0,0,1.26.59,1.59,1.59,0,0,0,1.27-.57A2.11,2.11,0,0,0,166.9,67.42Z"/><path class="cls-12" d="M170.56,69.24h0V72.8h-.94V64.19h.94v1h0a2.2,2.2,0,0,1,2-1.18,2.13,2.13,0,0,1,1.75.79A3.28,3.28,0,0,1,175,67a3.66,3.66,0,0,1-.72,2.37,2.35,2.35,0,0,1-1.94.89A1.94,1.94,0,0,1,170.56,69.24Zm0-2.38v.82a1.73,1.73,0,0,0,.47,1.24,1.54,1.54,0,0,0,1.19.51,1.57,1.57,0,0,0,1.33-.65A3.06,3.06,0,0,0,174,67a2.37,2.37,0,0,0-.45-1.54,1.47,1.47,0,0,0-1.22-.56,1.65,1.65,0,0,0-1.31.57A2.11,2.11,0,0,0,170.54,66.86Z"/><path class="cls-12" d="M177.27,70.09h-.93V61.36h.93Z"/><path class="cls-12" d="M183.22,70.09h-.93v-.92h0a1.93,1.93,0,0,1-1.79,1.06,1.9,1.9,0,0,1-1.36-.47,1.62,1.62,0,0,1-.5-1.24c0-1.1.65-1.74,1.93-1.92l1.75-.25c0-1-.4-1.5-1.21-1.5a2.87,2.87,0,0,0-1.9.72v-1a3.61,3.61,0,0,1,2-.56c1.37,0,2.06.74,2.06,2.2Zm-.93-3-1.41.19a2.2,2.2,0,0,0-1,.33.93.93,0,0,0-.33.82.89.89,0,0,0,.31.71,1.17,1.17,0,0,0,.81.27,1.47,1.47,0,0,0,1.14-.49,1.74,1.74,0,0,0,.46-1.25Z"/><path class="cls-12" d="M187.57,70a1.72,1.72,0,0,1-.88.19c-1,0-1.53-.58-1.53-1.73V65h-1v-.81h1V62.75l.94-.31v1.75h1.47V65H186.1v3.32a1.35,1.35,0,0,0,.2.85.78.78,0,0,0,.66.25,1,1,0,0,0,.61-.19Z"/><path class="cls-12" d="M191.4,70a1.7,1.7,0,0,1-.87.19c-1,0-1.53-.58-1.53-1.73V65h-1v-.81h1V62.75l.93-.31v1.75h1.47V65h-1.47v3.32a1.41,1.41,0,0,0,.2.85.78.78,0,0,0,.66.25,1,1,0,0,0,.61-.19Z"/><path class="cls-12" d="M195.41,62.19a1.17,1.17,0,0,0-.62-.16c-.65,0-1,.42-1,1.25v.91h1.37V65h-1.37v5.09h-.93V65h-1v-.81h1v-1a2,2,0,0,1,.53-1.46,1.78,1.78,0,0,1,1.32-.54,1.81,1.81,0,0,1,.68.1Z"/><path class="cls-12" d="M198.5,70.23a2.72,2.72,0,0,1-2.07-.83,3.1,3.1,0,0,1-.77-2.19,3.22,3.22,0,0,1,.8-2.32,2.87,2.87,0,0,1,2.17-.84,2.62,2.62,0,0,1,2,.81,3.27,3.27,0,0,1,.73,2.26,3.18,3.18,0,0,1-.79,2.26A2.72,2.72,0,0,1,198.5,70.23Zm.07-5.38a1.76,1.76,0,0,0-1.43.62,2.55,2.55,0,0,0-.52,1.71,2.39,2.39,0,0,0,.53,1.65,1.79,1.79,0,0,0,1.42.6,1.69,1.69,0,0,0,1.39-.59,3.23,3.23,0,0,0,0-3.39A1.7,1.7,0,0,0,198.57,64.85Z"/><path class="cls-12" d="M205.81,65.15a1.08,1.08,0,0,0-.7-.19,1.19,1.19,0,0,0-1,.57,2.64,2.64,0,0,0-.4,1.55v3h-.93v-5.9h.93v1.22h0a2,2,0,0,1,.61-1,1.34,1.34,0,0,1,.92-.35,1.33,1.33,0,0,1,.55.08Z"/><path class="cls-12" d="M215,70.09h-.94V66.7a2.55,2.55,0,0,0-.3-1.41,1.1,1.1,0,0,0-1-.44,1.24,1.24,0,0,0-1,.55,2.19,2.19,0,0,0-.41,1.33v3.36h-.94v-3.5q0-1.74-1.32-1.74a1.23,1.23,0,0,0-1,.52,2.22,2.22,0,0,0-.4,1.36v3.36h-.93v-5.9h.93v.93h0a2,2,0,0,1,1.81-1.07,1.64,1.64,0,0,1,1,.34,1.72,1.72,0,0,1,.61.88,2.08,2.08,0,0,1,1.93-1.22c1.28,0,1.93.8,1.93,2.4Z"/><path class="cls-12" d="M202,101.69h-1V97.92h-4.22v3.77h-1V93.43h1v3.62H201V93.43h1Z"/><path class="cls-12" d="M208.54,95.79l-2.68,6.84c-.48,1.22-1.15,1.84-2,1.84a2.1,2.1,0,0,1-.61-.08v-.85a1.73,1.73,0,0,0,.55.11,1.15,1.15,0,0,0,1.06-.86l.47-1.11L203,95.79h1l1.57,4.54q0,.09.12.45h0c0-.09.06-.24.11-.44l1.66-4.55Z"/><path class="cls-12" d="M210.38,100.84h0v3.56h-.94V95.79h.94v1h0a2.19,2.19,0,0,1,2-1.18,2.12,2.12,0,0,1,1.76.79,3.33,3.33,0,0,1,.63,2.13,3.68,3.68,0,0,1-.71,2.37,2.35,2.35,0,0,1-1.94.89A1.94,1.94,0,0,1,210.38,100.84Zm0-2.38v.82a1.73,1.73,0,0,0,.47,1.24A1.54,1.54,0,0,0,212,101a1.56,1.56,0,0,0,1.33-.66,3,3,0,0,0,.48-1.82,2.42,2.42,0,0,0-.45-1.55,1.49,1.49,0,0,0-1.22-.55,1.65,1.65,0,0,0-1.31.57A2.11,2.11,0,0,0,210.36,98.46Z"/><path class="cls-12" d="M220.84,99h-4.11a2.24,2.24,0,0,0,.52,1.53,1.81,1.81,0,0,0,1.38.53,2.83,2.83,0,0,0,1.81-.66v.89a3.32,3.32,0,0,1-2,.57,2.43,2.43,0,0,1-1.94-.81,3.31,3.31,0,0,1-.71-2.26,3.26,3.26,0,0,1,.77-2.24,2.45,2.45,0,0,1,1.92-.87,2.18,2.18,0,0,1,1.77.75,3.19,3.19,0,0,1,.62,2.08Zm-1-.8a2,2,0,0,0-.39-1.27,1.35,1.35,0,0,0-1.07-.45,1.49,1.49,0,0,0-1.12.47,2.17,2.17,0,0,0-.57,1.25Z"/><path class="cls-12" d="M225.18,96.74a1.25,1.25,0,0,0-1.71.38,2.75,2.75,0,0,0-.4,1.56v3h-.93v-5.9h.93V97h0a2.21,2.21,0,0,1,.61-1,1.41,1.41,0,0,1,.92-.35,1.39,1.39,0,0,1,.56.09Z"/><path class="cls-12" d="M230.91,101.69H229.6L227,98.85h0v2.84h-.94V93H227v5.54h0l2.45-2.7h1.22L228,98.63Z"/><path class="cls-12" d="M234.19,101.83a2.68,2.68,0,0,1-2.06-.83,3.06,3.06,0,0,1-.78-2.19,3.18,3.18,0,0,1,.81-2.32,2.83,2.83,0,0,1,2.16-.84,2.62,2.62,0,0,1,2,.81,3.25,3.25,0,0,1,.73,2.26,3.18,3.18,0,0,1-.79,2.26A2.76,2.76,0,0,1,234.19,101.83Zm.07-5.38a1.78,1.78,0,0,0-1.43.61,2.59,2.59,0,0,0-.52,1.71,2.47,2.47,0,0,0,.53,1.66,1.79,1.79,0,0,0,1.42.6,1.72,1.72,0,0,0,1.39-.59,2.64,2.64,0,0,0,.48-1.69,2.68,2.68,0,0,0-.48-1.71A1.69,1.69,0,0,0,234.26,96.45Z"/><path class="cls-12" d="M243.3,101.69h-.93V98.32c0-1.25-.45-1.87-1.36-1.87a1.43,1.43,0,0,0-1.15.53,2,2,0,0,0-.46,1.34v3.37h-.94v-5.9h.94v1h0a2.09,2.09,0,0,1,1.91-1.12,1.78,1.78,0,0,1,1.47.63,2.82,2.82,0,0,1,.5,1.8Z"/><path class="cls-12" d="M249.53,95.79l-2.32,5.9h-.92l-2.21-5.9h1l1.48,4.29a4,4,0,0,1,.21.82h0a4.3,4.3,0,0,1,.18-.8l1.55-4.31Z"/><path class="cls-12" d="M255.1,99H251a2.29,2.29,0,0,0,.52,1.53,1.84,1.84,0,0,0,1.38.53,2.83,2.83,0,0,0,1.81-.66v.89a3.32,3.32,0,0,1-2,.57,2.44,2.44,0,0,1-1.94-.81,3.31,3.31,0,0,1-.71-2.26,3.22,3.22,0,0,1,.78-2.24,2.44,2.44,0,0,1,1.91-.87,2.18,2.18,0,0,1,1.77.75,3.13,3.13,0,0,1,.63,2.08Zm-1-.8a1.89,1.89,0,0,0-.39-1.27,1.33,1.33,0,0,0-1.07-.45,1.49,1.49,0,0,0-1.12.47,2.17,2.17,0,0,0-.57,1.25Z"/><path class="cls-12" d="M259.43,96.74a1.17,1.17,0,0,0-.7-.19,1.18,1.18,0,0,0-1,.57,2.67,2.67,0,0,0-.4,1.56v3h-.94v-5.9h.94V97h0a2,2,0,0,1,.61-1,1.39,1.39,0,0,1,.91-.35,1.36,1.36,0,0,1,.56.09Z"/><path class="cls-12" d="M265.3,101.22c0,2.16-1,3.25-3.07,3.25a4.05,4.05,0,0,1-1.89-.42v-.94a3.94,3.94,0,0,0,1.88.55c1.43,0,2.15-.77,2.15-2.32v-.64h0a2.34,2.34,0,0,1-3.76.34,3.17,3.17,0,0,1-.66-2.11,3.74,3.74,0,0,1,.71-2.39,2.39,2.39,0,0,1,2-.89,1.9,1.9,0,0,1,1.75,1h0v-.82h.93Zm-.93-2.2v-.87a1.69,1.69,0,0,0-.47-1.2,1.51,1.51,0,0,0-1.17-.5,1.6,1.6,0,0,0-1.35.63,2.86,2.86,0,0,0-.49,1.79,2.41,2.41,0,0,0,.47,1.57,1.5,1.5,0,0,0,1.24.59,1.64,1.64,0,0,0,1.28-.56A2.12,2.12,0,0,0,264.37,99Z"/><path class="cls-12" d="M271.76,99h-4.12a2.24,2.24,0,0,0,.53,1.53,1.81,1.81,0,0,0,1.38.53,2.85,2.85,0,0,0,1.81-.66v.89a3.36,3.36,0,0,1-2,.57,2.44,2.44,0,0,1-1.94-.81,3.31,3.31,0,0,1-.7-2.26,3.21,3.21,0,0,1,.77-2.24,2.44,2.44,0,0,1,1.91-.87,2.16,2.16,0,0,1,1.77.75,3.13,3.13,0,0,1,.63,2.08Zm-1-.8a1.89,1.89,0,0,0-.39-1.27,1.31,1.31,0,0,0-1.06-.45,1.47,1.47,0,0,0-1.12.47,2.17,2.17,0,0,0-.57,1.25Z"/><path class="cls-12" d="M277.89,101.69H277V98.32c0-1.25-.45-1.87-1.36-1.87a1.43,1.43,0,0,0-1.15.53,2,2,0,0,0-.46,1.34v3.37h-.94v-5.9H274v1h0a2.09,2.09,0,0,1,1.91-1.12,1.78,1.78,0,0,1,1.47.63,2.82,2.82,0,0,1,.5,1.8Z"/><path class="cls-12" d="M282.24,101.63a1.81,1.81,0,0,1-.87.19c-1,0-1.53-.58-1.53-1.73V96.6h-1v-.81h1V94.35l.93-.31v1.75h1.47v.81h-1.47v3.32a1.41,1.41,0,0,0,.2.85.78.78,0,0,0,.66.25,1,1,0,0,0,.61-.2Z"/><path class="cls-12" d="M288.05,99h-4.11a2.24,2.24,0,0,0,.52,1.53,1.82,1.82,0,0,0,1.38.53,2.83,2.83,0,0,0,1.81-.66v.89a3.32,3.32,0,0,1-2,.57,2.43,2.43,0,0,1-1.94-.81,3.31,3.31,0,0,1-.71-2.26,3.26,3.26,0,0,1,.77-2.24,2.46,2.46,0,0,1,1.92-.87,2.18,2.18,0,0,1,1.77.75,3.19,3.19,0,0,1,.62,2.08Zm-.95-.8a2,2,0,0,0-.39-1.27,1.33,1.33,0,0,0-1.07-.45,1.49,1.49,0,0,0-1.12.47,2.17,2.17,0,0,0-.57,1.25Z"/><path class="cls-12" d="M298.4,101.69h-1.14l-1.36-2.32a5.8,5.8,0,0,0-.37-.55,2.12,2.12,0,0,0-.36-.37,1,1,0,0,0-.4-.21,1.73,1.73,0,0,0-.48-.07h-.78v3.52h-1V93.43H295a3.42,3.42,0,0,1,1,.13,2.2,2.2,0,0,1,.79.41,2,2,0,0,1,.52.69,2.52,2.52,0,0,1,.06,1.76,2.35,2.35,0,0,1-.36.64,2.21,2.21,0,0,1-.57.48,2.63,2.63,0,0,1-.75.31v0a3.59,3.59,0,0,1,.35.21,1.92,1.92,0,0,1,.29.28,4,4,0,0,1,.27.37l.3.47Zm-4.89-7.39v3h1.29a2.09,2.09,0,0,0,.67-.11,1.38,1.38,0,0,0,.52-.32,1.29,1.29,0,0,0,.35-.5,1.73,1.73,0,0,0,.13-.66,1.3,1.3,0,0,0-.43-1,1.83,1.83,0,0,0-1.22-.37Z"/><path class="cls-12" d="M303.63,99h-4.12a2.24,2.24,0,0,0,.52,1.53,1.84,1.84,0,0,0,1.38.53,2.83,2.83,0,0,0,1.81-.66v.89a3.32,3.32,0,0,1-2,.57,2.44,2.44,0,0,1-1.94-.81,3.31,3.31,0,0,1-.71-2.26,3.26,3.26,0,0,1,.77-2.24,2.48,2.48,0,0,1,1.92-.87,2.18,2.18,0,0,1,1.77.75,3.13,3.13,0,0,1,.63,2.08Zm-1-.8a2,2,0,0,0-.39-1.27,1.33,1.33,0,0,0-1.07-.45,1.49,1.49,0,0,0-1.12.47,2.17,2.17,0,0,0-.57,1.25Z"/><path class="cls-12" d="M308.89,101.42a3,3,0,0,1-1.59.41,2.64,2.64,0,0,1-2-.82,3,3,0,0,1-.77-2.13,3.31,3.31,0,0,1,.83-2.35,2.86,2.86,0,0,1,2.2-.88,3,3,0,0,1,1.35.29v1a2.31,2.31,0,0,0-1.38-.46,1.87,1.87,0,0,0-1.47.64,2.51,2.51,0,0,0-.57,1.71,2.34,2.34,0,0,0,.54,1.63,1.81,1.81,0,0,0,1.44.6,2.3,2.3,0,0,0,1.43-.51Z"/><path class="cls-12" d="M315,101.69h-.94v-3.4c0-1.23-.45-1.84-1.35-1.84a1.44,1.44,0,0,0-1.15.53,2,2,0,0,0-.47,1.37v3.34h-.93V93h.93v3.82h0a2.12,2.12,0,0,1,1.92-1.12c1.31,0,2,.8,2,2.4Z"/><path class="cls-12" d="M321.35,99h-4.11a2.24,2.24,0,0,0,.52,1.53,1.81,1.81,0,0,0,1.38.53,2.85,2.85,0,0,0,1.81-.66v.89a3.32,3.32,0,0,1-2,.57A2.43,2.43,0,0,1,317,101a3.79,3.79,0,0,1,.06-4.5,2.46,2.46,0,0,1,1.92-.87,2.18,2.18,0,0,1,1.77.75,3.19,3.19,0,0,1,.62,2.08Zm-1-.8A2,2,0,0,0,320,96.9a1.35,1.35,0,0,0-1.07-.45,1.49,1.49,0,0,0-1.12.47,2.17,2.17,0,0,0-.57,1.25Z"/><path class="cls-12" d="M327.49,101.69h-.94V98.32c0-1.25-.45-1.87-1.35-1.87A1.44,1.44,0,0,0,324,97a2,2,0,0,0-.46,1.34v3.37h-.93v-5.9h.93v1h0a2.1,2.1,0,0,1,1.92-1.12,1.77,1.77,0,0,1,1.46.63,2.76,2.76,0,0,1,.51,1.8Z"/><path class="cls-12" d="M332.11,98.77H329V98h3.11Z"/><path class="cls-12" d="M334.53,100.37l-.91,2.84H333l.67-2.84Z"/><path class="cls-12" d="M185.25,115.65v-1.14a2,2,0,0,0,.47.31,3.93,3.93,0,0,0,.56.24,4.15,4.15,0,0,0,.61.14,2.8,2.8,0,0,0,.55.06,2.17,2.17,0,0,0,1.32-.33,1.15,1.15,0,0,0,.44-1,1.11,1.11,0,0,0-.15-.58,1.55,1.55,0,0,0-.4-.45,3.21,3.21,0,0,0-.61-.39l-.75-.4c-.29-.15-.55-.29-.8-.44a3.64,3.64,0,0,1-.64-.5,2,2,0,0,1-.43-.61,2,2,0,0,1-.16-.81,1.86,1.86,0,0,1,.25-1,2.12,2.12,0,0,1,.64-.69,3,3,0,0,1,.91-.4,4,4,0,0,1,1-.13,3.91,3.91,0,0,1,1.76.29V109a3.39,3.39,0,0,0-2.48-.44,1.64,1.64,0,0,0-.56.22,1.12,1.12,0,0,0-.4.38,1.07,1.07,0,0,0-.16.58,1.2,1.2,0,0,0,.12.55,1.35,1.35,0,0,0,.35.42,3.08,3.08,0,0,0,.55.36l.76.4c.29.14.56.3.83.46a3.72,3.72,0,0,1,.68.53,2.38,2.38,0,0,1,.47.65,1.83,1.83,0,0,1,.18.82,2.1,2.1,0,0,1-.24,1,2,2,0,0,1-.64.69,2.83,2.83,0,0,1-.92.38,5,5,0,0,1-1.11.12,3.06,3.06,0,0,1-.47,0,5.81,5.81,0,0,1-.58-.09,4.14,4.14,0,0,1-.56-.15A1.57,1.57,0,0,1,185.25,115.65Z"/><path class="cls-12" d="M192.54,115.14h0v3.56h-.94v-8.61h.94v1h0a2.2,2.2,0,0,1,2-1.18,2.1,2.1,0,0,1,1.75.79,3.27,3.27,0,0,1,.64,2.12,3.69,3.69,0,0,1-.72,2.38,2.35,2.35,0,0,1-1.94.89A1.94,1.94,0,0,1,192.54,115.14Zm0-2.38v.82a1.73,1.73,0,0,0,.47,1.24,1.66,1.66,0,0,0,2.52-.15,3,3,0,0,0,.48-1.82,2.42,2.42,0,0,0-.45-1.55,1.5,1.5,0,0,0-1.22-.56,1.66,1.66,0,0,0-1.31.58A2.11,2.11,0,0,0,192.52,112.76Z"/><path class="cls-12" d="M203,113.27h-4.12a2.29,2.29,0,0,0,.52,1.53,1.84,1.84,0,0,0,1.38.53,2.83,2.83,0,0,0,1.81-.66v.89a3.32,3.32,0,0,1-2,.57,2.44,2.44,0,0,1-1.94-.81,3.31,3.31,0,0,1-.71-2.26,3.24,3.24,0,0,1,.77-2.24,2.48,2.48,0,0,1,1.92-.87,2.18,2.18,0,0,1,1.77.75,3.13,3.13,0,0,1,.63,2.08Zm-1-.8a1.89,1.89,0,0,0-.39-1.27,1.34,1.34,0,0,0-1.07-.46,1.5,1.5,0,0,0-1.12.48,2.17,2.17,0,0,0-.57,1.25Z"/><path class="cls-12" d="M204.78,108.59a.61.61,0,0,1-.43-.17.62.62,0,1,1,.86-.88.59.59,0,0,1,.18.44.61.61,0,0,1-.61.61Zm.45,7.4h-.93v-5.9h.93Z"/><path class="cls-12" d="M211,115.72a3,3,0,0,1-1.59.41,2.67,2.67,0,0,1-2-.82,3,3,0,0,1-.76-2.13,3.3,3.3,0,0,1,.82-2.35,2.88,2.88,0,0,1,2.21-.88,3,3,0,0,1,1.35.29v1a2.33,2.33,0,0,0-1.39-.47,1.87,1.87,0,0,0-1.46.65,2.49,2.49,0,0,0-.58,1.71,2.34,2.34,0,0,0,.54,1.63,1.85,1.85,0,0,0,1.45.6,2.34,2.34,0,0,0,1.43-.51Z"/><path class="cls-12" d="M217.11,116h-.93v-3.4c0-1.23-.45-1.85-1.36-1.85a1.48,1.48,0,0,0-1.15.54,2,2,0,0,0-.46,1.37V116h-.94v-8.74h.94v3.82h0a2.11,2.11,0,0,1,1.91-1.12c1.32,0,2,.8,2,2.4Z"/><path class="cls-12" d="M223.44,113.27h-4.12a2.24,2.24,0,0,0,.53,1.53,1.81,1.81,0,0,0,1.38.53,2.85,2.85,0,0,0,1.81-.66v.89a3.36,3.36,0,0,1-2,.57,2.44,2.44,0,0,1-1.94-.81,3.31,3.31,0,0,1-.7-2.26,3.19,3.19,0,0,1,.77-2.24A2.44,2.44,0,0,1,221,110a2.16,2.16,0,0,1,1.77.75,3.13,3.13,0,0,1,.63,2.08Zm-1-.8a1.89,1.89,0,0,0-.39-1.27,1.32,1.32,0,0,0-1.06-.46,1.48,1.48,0,0,0-1.12.48,2.17,2.17,0,0,0-.57,1.25Z"/><path class="cls-12" d="M227.77,111a1.14,1.14,0,0,0-.7-.19,1.19,1.19,0,0,0-1,.57,2.67,2.67,0,0,0-.4,1.56v3h-.94v-5.9h.94v1.21h0a2.08,2.08,0,0,1,.61-1,1.39,1.39,0,0,1,.92-.35,1.52,1.52,0,0,1,.55.08Z"/><path class="cls-12" d="M231.65,113.07h-3.1v-.74h3.1Z"/><path class="cls-12" d="M241,116h-.94v-.94h0a1.92,1.92,0,0,1-1.8,1.08c-1.39,0-2.08-.84-2.08-2.52v-3.52h.93v3.37c0,1.25.47,1.87,1.41,1.87a1.41,1.41,0,0,0,1.12-.51,2,2,0,0,0,.44-1.33v-3.4H241Z"/><path class="cls-12" d="M247.61,116h-.93v-3.37c0-1.25-.45-1.88-1.36-1.88a1.47,1.47,0,0,0-1.16.54,2,2,0,0,0-.45,1.34V116h-.94v-5.9h.94v1h0a2.09,2.09,0,0,1,1.91-1.12,1.77,1.77,0,0,1,1.46.62,2.81,2.81,0,0,1,.51,1.81Z"/><path class="cls-12" d="M254.23,116h-.94v-1h0a2.15,2.15,0,0,1-2,1.14,2.18,2.18,0,0,1-1.76-.8,3.23,3.23,0,0,1-.66-2.15,3.61,3.61,0,0,1,.73-2.35,2.4,2.4,0,0,1,1.94-.88,1.86,1.86,0,0,1,1.75,1h0v-3.66h.94Zm-.94-2.67v-.87a1.69,1.69,0,0,0-.46-1.21,1.57,1.57,0,0,0-1.19-.5,1.61,1.61,0,0,0-1.34.64,2.78,2.78,0,0,0-.49,1.75,2.53,2.53,0,0,0,.47,1.61,1.53,1.53,0,0,0,1.26.59,1.6,1.6,0,0,0,1.27-.57A2.16,2.16,0,0,0,253.29,113.32Z"/><path class="cls-12" d="M265.78,116h-1.17l-4.2-6.59a2.53,2.53,0,0,1-.26-.52h0a8.52,8.52,0,0,1,.05,1.14v6h-1v-8.26h1.24l4.09,6.48c.17.27.28.45.33.55h0a8.76,8.76,0,0,1-.05-1.21v-5.82h.95Z"/><path class="cls-12" d="M272.37,113.27h-4.12a2.24,2.24,0,0,0,.52,1.53,1.84,1.84,0,0,0,1.38.53,2.83,2.83,0,0,0,1.81-.66v.89a3.32,3.32,0,0,1-2,.57,2.44,2.44,0,0,1-1.94-.81,3.31,3.31,0,0,1-.71-2.26,3.24,3.24,0,0,1,.77-2.24A2.48,2.48,0,0,1,270,110a2.18,2.18,0,0,1,1.77.75,3.13,3.13,0,0,1,.63,2.08Zm-1-.8a2,2,0,0,0-.39-1.27,1.34,1.34,0,0,0-1.07-.46,1.5,1.5,0,0,0-1.12.48,2.17,2.17,0,0,0-.57,1.25Z"/><path class="cls-12" d="M276.36,115.93a1.82,1.82,0,0,1-.87.18c-1,0-1.53-.57-1.53-1.72v-3.5h-1v-.8h1v-1.44l.94-.31v1.75h1.46v.8H274.9v3.33a1.44,1.44,0,0,0,.19.85.84.84,0,0,0,.66.25,1,1,0,0,0,.61-.2Z"/><path class="cls-12" d="M281.56,110.36l-3.45,4.82h3.41V116h-4.78v-.3l3.45-4.8h-3.13v-.8h4.5Z"/><path class="cls-12" d="M290,110.09l-1.75,5.9h-1l-1.21-4.22a4.21,4.21,0,0,1-.09-.55h0a2.38,2.38,0,0,1-.12.53l-1.3,4.24h-.94l-1.76-5.9h1l1.21,4.43a3.26,3.26,0,0,1,.07.53h0a3.13,3.13,0,0,1,.1-.54l1.35-4.42h.85l1.21,4.45a4.34,4.34,0,0,1,.08.53h.05a2.35,2.35,0,0,1,.09-.53l1.19-4.45Z"/><path class="cls-12" d="M295.64,113.27h-4.12a2.24,2.24,0,0,0,.53,1.53,1.8,1.8,0,0,0,1.37.53,2.87,2.87,0,0,0,1.82-.66v.89a3.36,3.36,0,0,1-2,.57,2.44,2.44,0,0,1-1.94-.81,3.31,3.31,0,0,1-.7-2.26,3.19,3.19,0,0,1,.77-2.24,2.44,2.44,0,0,1,1.91-.87,2.16,2.16,0,0,1,1.77.75,3.13,3.13,0,0,1,.63,2.08Zm-1-.8a1.89,1.89,0,0,0-.39-1.27,1.32,1.32,0,0,0-1.06-.46,1.52,1.52,0,0,0-1.13.48,2.22,2.22,0,0,0-.56,1.25Z"/><path class="cls-12" d="M300,111a1.14,1.14,0,0,0-.7-.19,1.19,1.19,0,0,0-1,.57,2.67,2.67,0,0,0-.4,1.56v3h-.94v-5.9h.94v1.21h0a2.08,2.08,0,0,1,.61-1,1.39,1.39,0,0,1,.92-.35,1.56,1.56,0,0,1,.55.08Z"/><path class="cls-12" d="M305.71,116H304.4l-2.57-2.84h0V116h-.93v-8.74h.93v5.54h0l2.44-2.7h1.23l-2.71,2.84Z"/><path class="cls-12" d="M307.48,116h-.93v-8.74h.93Z"/><path class="cls-12" d="M313.94,113.27h-4.12a2.24,2.24,0,0,0,.53,1.53,1.81,1.81,0,0,0,1.38.53,2.85,2.85,0,0,0,1.81-.66v.89a3.36,3.36,0,0,1-2,.57,2.44,2.44,0,0,1-1.94-.81,3.31,3.31,0,0,1-.7-2.26,3.19,3.19,0,0,1,.77-2.24,2.44,2.44,0,0,1,1.91-.87,2.16,2.16,0,0,1,1.77.75,3.13,3.13,0,0,1,.63,2.08Zm-1-.8a1.89,1.89,0,0,0-.39-1.27,1.32,1.32,0,0,0-1.06-.46,1.48,1.48,0,0,0-1.12.48,2.17,2.17,0,0,0-.57,1.25Z"/><path class="cls-12" d="M315.71,108.59a.62.62,0,0,1-.42-1,.56.56,0,0,1,.42-.18.6.6,0,0,1,.44.18.59.59,0,0,1,.18.44.58.58,0,0,1-.18.43A.6.6,0,0,1,315.71,108.59Zm.46,7.4h-.94v-5.9h.94Z"/><path class="cls-12" d="M317.59,115.77v-1a2.75,2.75,0,0,0,1.68.57c.82,0,1.23-.28,1.23-.83a.72.72,0,0,0-.11-.4,1,1,0,0,0-.28-.29,2.73,2.73,0,0,0-.42-.23l-.52-.21a6.39,6.39,0,0,1-.68-.31,2.15,2.15,0,0,1-.49-.36,1.37,1.37,0,0,1-.3-.45,1.57,1.57,0,0,1-.1-.6,1.37,1.37,0,0,1,.19-.73,1.71,1.71,0,0,1,.5-.54,2.41,2.41,0,0,1,.71-.32,3.32,3.32,0,0,1,.83-.11,3.44,3.44,0,0,1,1.36.26v1a2.67,2.67,0,0,0-1.48-.43,1.73,1.73,0,0,0-.48.07,1.19,1.19,0,0,0-.36.16.83.83,0,0,0-.23.27.62.62,0,0,0-.08.33.75.75,0,0,0,.08.39.78.78,0,0,0,.24.28,2.36,2.36,0,0,0,.39.22l.52.21a6.44,6.44,0,0,1,.69.31,2.05,2.05,0,0,1,.52.35,1.32,1.32,0,0,1,.45,1.08,1.45,1.45,0,0,1-.19.76,1.54,1.54,0,0,1-.51.54,2.3,2.3,0,0,1-.73.31,3.58,3.58,0,0,1-.87.11A3.21,3.21,0,0,1,317.59,115.77Z"/><path class="cls-12" d="M325.47,115.93a1.82,1.82,0,0,1-.87.18c-1,0-1.53-.57-1.53-1.72v-3.5h-1v-.8h1v-1.44l.94-.31v1.75h1.46v.8H324v3.33a1.37,1.37,0,0,0,.2.85.81.81,0,0,0,.66.25,1,1,0,0,0,.6-.2Z"/><path class="cls-12" d="M331.32,116h-.94v-.94h0a1.91,1.91,0,0,1-1.8,1.08c-1.39,0-2.08-.84-2.08-2.52v-3.52h.93v3.37c0,1.25.47,1.87,1.41,1.87a1.41,1.41,0,0,0,1.12-.51,1.93,1.93,0,0,0,.44-1.33v-3.4h.94Z"/><path class="cls-12" d="M337.92,116H337v-3.37c0-1.25-.45-1.88-1.35-1.88a1.45,1.45,0,0,0-1.16.54,2,2,0,0,0-.46,1.34V116h-.93v-5.9H334v1h0A2.09,2.09,0,0,1,336,110a1.8,1.8,0,0,1,1.47.62,2.87,2.87,0,0,1,.5,1.81Z"/><path class="cls-12" d="M344.54,115.52c0,2.16-1,3.25-3.07,3.25a4.05,4.05,0,0,1-1.89-.42v-.94a3.91,3.91,0,0,0,1.88.55c1.43,0,2.15-.77,2.15-2.32V115h0a2.33,2.33,0,0,1-3.75.34,3.17,3.17,0,0,1-.66-2.11,3.68,3.68,0,0,1,.71-2.39,2.39,2.39,0,0,1,2-.89,1.89,1.89,0,0,1,1.74,1h0v-.82h.93Zm-.93-2.2v-.87a1.69,1.69,0,0,0-.47-1.2,1.55,1.55,0,0,0-1.17-.51,1.64,1.64,0,0,0-1.36.64,2.92,2.92,0,0,0-.49,1.78,2.48,2.48,0,0,0,.47,1.58,1.54,1.54,0,0,0,1.25.59,1.61,1.61,0,0,0,1.27-.56A2.13,2.13,0,0,0,343.61,113.32Z"/><path class="cls-12" d="M13,98.47H11.87L10.5,96.15a4.38,4.38,0,0,0-.36-.55,2.55,2.55,0,0,0-.36-.37,1.1,1.1,0,0,0-.4-.21A1.73,1.73,0,0,0,8.9,95H8.11v3.52H7.16V90.21H9.59a3.44,3.44,0,0,1,1,.13,2.38,2.38,0,0,1,.79.41,2.1,2.1,0,0,1,.52.69,2.43,2.43,0,0,1,.19,1,2.52,2.52,0,0,1-.13.79,2.14,2.14,0,0,1-.37.64,1.92,1.92,0,0,1-.57.48,2.89,2.89,0,0,1-.74.31v0l.35.21a2.54,2.54,0,0,1,.29.28,4,4,0,0,1,.27.37l.3.47Zm-4.9-7.39v3h1.3a2,2,0,0,0,.66-.11,1.42,1.42,0,0,0,.53-.32,1.41,1.41,0,0,0,.35-.5,1.76,1.76,0,0,0,.12-.66,1.33,1.33,0,0,0-.42-1,1.84,1.84,0,0,0-1.23-.37Z"/><path class="cls-12" d="M18,95.75H13.88a2.24,2.24,0,0,0,.53,1.53,1.8,1.8,0,0,0,1.37.53,2.83,2.83,0,0,0,1.81-.66V98a3.32,3.32,0,0,1-2,.57,2.44,2.44,0,0,1-1.94-.81,3.31,3.31,0,0,1-.7-2.26,3.21,3.21,0,0,1,.77-2.24,2.44,2.44,0,0,1,1.91-.87,2.17,2.17,0,0,1,1.77.75A3.13,3.13,0,0,1,18,95.26ZM17,95a1.89,1.89,0,0,0-.39-1.27,1.33,1.33,0,0,0-1.07-.46,1.51,1.51,0,0,0-1.12.48A2.3,2.3,0,0,0,13.89,95Z"/><path class="cls-12" d="M23,98.2a3,3,0,0,1-1.59.41,2.64,2.64,0,0,1-2-.82,3,3,0,0,1-.77-2.13,3.31,3.31,0,0,1,.83-2.35,2.86,2.86,0,0,1,2.2-.88,3,3,0,0,1,1.35.29v1a2.32,2.32,0,0,0-1.38-.47,1.88,1.88,0,0,0-1.47.65,2.51,2.51,0,0,0-.57,1.71,2.34,2.34,0,0,0,.54,1.63,1.83,1.83,0,0,0,1.44.6A2.3,2.3,0,0,0,23,97.3Z"/><path class="cls-12" d="M28.93,98.47H28v-3.4c0-1.23-.45-1.85-1.36-1.85a1.45,1.45,0,0,0-1.14.54A2,2,0,0,0,25,95.13v3.34h-.94V89.73H25v3.82h0A2.11,2.11,0,0,1,27,92.43c1.32,0,2,.8,2,2.4Z"/><path class="cls-12" d="M35,95.75H30.91a2.29,2.29,0,0,0,.52,1.53,1.84,1.84,0,0,0,1.38.53,2.83,2.83,0,0,0,1.81-.66V98a3.32,3.32,0,0,1-2,.57,2.44,2.44,0,0,1-1.94-.81,3.31,3.31,0,0,1-.71-2.26,3.26,3.26,0,0,1,.77-2.24,2.48,2.48,0,0,1,1.92-.87,2.18,2.18,0,0,1,1.77.75A3.13,3.13,0,0,1,35,95.26Zm-1-.8a1.89,1.89,0,0,0-.39-1.27,1.34,1.34,0,0,0-1.07-.46,1.5,1.5,0,0,0-1.12.48A2.17,2.17,0,0,0,30.92,95Z"/><path class="cls-12" d="M40.93,98.47H40V95.1c0-1.25-.45-1.88-1.35-1.88a1.46,1.46,0,0,0-1.16.54A2,2,0,0,0,37,95.1v3.37h-.93v-5.9H37v1h0A2.1,2.1,0,0,1,39,92.43a1.77,1.77,0,0,1,1.46.63,2.76,2.76,0,0,1,.51,1.8Z"/><path class="cls-12" d="M45.32,95.55H42.21v-.74h3.11Z"/><path class="cls-12" d="M47.5,97.15,46.59,100h-.67l.67-2.84Z"/><path class="cls-12" d="M51.41,98.13V97a2,2,0,0,0,.47.31,3.61,3.61,0,0,0,.57.24,3.75,3.75,0,0,0,.6.14,2.8,2.8,0,0,0,.55.06,2.17,2.17,0,0,0,1.32-.33,1.15,1.15,0,0,0,.44-1,1.11,1.11,0,0,0-.15-.58,1.55,1.55,0,0,0-.4-.45A3.21,3.21,0,0,0,54.2,95l-.75-.4c-.28-.15-.55-.29-.8-.44a3.64,3.64,0,0,1-.64-.5,2,2,0,0,1-.43-.61,2,2,0,0,1-.16-.81,2,2,0,0,1,.25-1,2.12,2.12,0,0,1,.64-.69,3,3,0,0,1,.91-.4,4.94,4.94,0,0,1,2.8.16v1.09a3.15,3.15,0,0,0-1.86-.51,3.18,3.18,0,0,0-.62.07,1.64,1.64,0,0,0-.56.22,1.12,1.12,0,0,0-.4.38,1.06,1.06,0,0,0-.15.58,1.2,1.2,0,0,0,.11.55,1.35,1.35,0,0,0,.35.42,3.08,3.08,0,0,0,.55.36l.76.4c.29.14.56.3.83.46a4.19,4.19,0,0,1,.69.53,2.9,2.9,0,0,1,.47.65,2,2,0,0,1,.17.82,2.1,2.1,0,0,1-.24,1,2,2,0,0,1-.64.69,2.83,2.83,0,0,1-.92.38,4.94,4.94,0,0,1-1.1.12,3.08,3.08,0,0,1-.48,0,5.81,5.81,0,0,1-.58-.09,4.14,4.14,0,0,1-.56-.15A1.57,1.57,0,0,1,51.41,98.13Z"/><path class="cls-12" d="M58.47,97.62h0v3.56h-.94V92.57h.94v1h0a2.19,2.19,0,0,1,2-1.18,2.12,2.12,0,0,1,1.76.79,3.33,3.33,0,0,1,.63,2.13,3.68,3.68,0,0,1-.71,2.37,2.35,2.35,0,0,1-1.94.89A1.94,1.94,0,0,1,58.47,97.62Zm0-2.38v.82a1.73,1.73,0,0,0,.47,1.24,1.54,1.54,0,0,0,1.19.51,1.56,1.56,0,0,0,1.33-.66,3,3,0,0,0,.48-1.82,2.42,2.42,0,0,0-.45-1.55,1.5,1.5,0,0,0-1.22-.56,1.66,1.66,0,0,0-1.31.58A2.11,2.11,0,0,0,58.45,95.24Z"/><path class="cls-12" d="M68.7,95.75H64.58a2.24,2.24,0,0,0,.53,1.53,1.81,1.81,0,0,0,1.38.53,2.85,2.85,0,0,0,1.81-.66V98a3.36,3.36,0,0,1-2,.57,2.44,2.44,0,0,1-1.94-.81,3.31,3.31,0,0,1-.7-2.26,3.21,3.21,0,0,1,.77-2.24,2.44,2.44,0,0,1,1.91-.87,2.16,2.16,0,0,1,1.77.75,3.13,3.13,0,0,1,.63,2.08Zm-1-.8a1.89,1.89,0,0,0-.39-1.27,1.32,1.32,0,0,0-1.06-.46,1.48,1.48,0,0,0-1.12.48A2.17,2.17,0,0,0,64.6,95Z"/><path class="cls-12" d="M70.24,91.07a.61.61,0,0,1-.43-.17.65.65,0,0,1,0-.88.58.58,0,0,1,.43-.18.6.6,0,0,1,.44.18.62.62,0,0,1,.17.44.61.61,0,0,1-.17.43A.6.6,0,0,1,70.24,91.07Zm.46,7.4h-.94v-5.9h.94Z"/><path class="cls-12" d="M76.21,98.2a3,3,0,0,1-1.6.41,2.64,2.64,0,0,1-2-.82,3,3,0,0,1-.76-2.13,3.3,3.3,0,0,1,.82-2.35,2.87,2.87,0,0,1,2.2-.88,3.06,3.06,0,0,1,1.36.29v1a2.35,2.35,0,0,0-1.39-.47,1.89,1.89,0,0,0-1.47.65,2.51,2.51,0,0,0-.57,1.71,2.34,2.34,0,0,0,.54,1.63,1.84,1.84,0,0,0,1.44.6,2.35,2.35,0,0,0,1.44-.51Z"/><path class="cls-12" d="M82.11,98.47h-.94v-3.4c0-1.23-.45-1.85-1.35-1.85a1.45,1.45,0,0,0-1.15.54,2,2,0,0,0-.47,1.37v3.34h-.93V89.73h.93v3.82h0a2.09,2.09,0,0,1,1.91-1.12c1.31,0,2,.8,2,2.4Z"/><path class="cls-12" d="M88.2,95.75H84.09a2.24,2.24,0,0,0,.52,1.53,1.81,1.81,0,0,0,1.38.53,2.85,2.85,0,0,0,1.81-.66V98a3.34,3.34,0,0,1-2,.57,2.45,2.45,0,0,1-2-.81,3.31,3.31,0,0,1-.7-2.26,3.26,3.26,0,0,1,.77-2.24,2.44,2.44,0,0,1,1.91-.87,2.16,2.16,0,0,1,1.77.75,3.13,3.13,0,0,1,.63,2.08Zm-1-.8a1.89,1.89,0,0,0-.39-1.27,1.32,1.32,0,0,0-1.06-.46,1.48,1.48,0,0,0-1.12.48A2.17,2.17,0,0,0,84.1,95Z"/><path class="cls-12" d="M92.3,93.52a1.17,1.17,0,0,0-.7-.19,1.19,1.19,0,0,0-1,.57,2.67,2.67,0,0,0-.4,1.56v3h-.94v-5.9h.94v1.21h0a2.13,2.13,0,0,1,.61-1,1.39,1.39,0,0,1,.92-.35,1.34,1.34,0,0,1,.55.09Z"/><path class="cls-12" d="M96,95.55H92.84v-.74H96Z"/><path class="cls-12" d="M104.83,98.47h-.93v-.94h0a1.92,1.92,0,0,1-1.8,1.08c-1.39,0-2.08-.84-2.08-2.52V92.57h.92v3.37c0,1.25.47,1.87,1.42,1.87a1.41,1.41,0,0,0,1.12-.51A2,2,0,0,0,103.9,96v-3.4h.93Z"/><path class="cls-12" d="M111.21,98.47h-.94V95.1c0-1.25-.45-1.88-1.35-1.88a1.46,1.46,0,0,0-1.16.54,2,2,0,0,0-.46,1.34v3.37h-.93v-5.9h.93v1h0a2.11,2.11,0,0,1,1.92-1.12,1.76,1.76,0,0,1,1.46.63,2.76,2.76,0,0,1,.51,1.8Z"/><path class="cls-12" d="M117.59,98.47h-.93v-1h0a2.15,2.15,0,0,1-2,1.14,2.18,2.18,0,0,1-1.76-.8,3.28,3.28,0,0,1-.65-2.15,3.55,3.55,0,0,1,.73-2.35,2.37,2.37,0,0,1,1.94-.88,1.85,1.85,0,0,1,1.74,1h0V89.73h.93Zm-.93-2.67v-.87a1.7,1.7,0,0,0-.47-1.21,1.56,1.56,0,0,0-1.18-.5,1.63,1.63,0,0,0-1.35.64,2.84,2.84,0,0,0-.49,1.75,2.53,2.53,0,0,0,.47,1.61,1.56,1.56,0,0,0,1.26.59,1.59,1.59,0,0,0,1.27-.57A2.16,2.16,0,0,0,116.66,95.8Z"/><path class="cls-12" d="M28,113H26.86l-4.2-6.59a2.53,2.53,0,0,1-.26-.52h0a8.52,8.52,0,0,1,.05,1.14v6h-1v-8.26h1.24l4.09,6.48c.17.27.28.45.33.55h0a10.76,10.76,0,0,1-.05-1.21v-5.82h1Z"/><path class="cls-12" d="M34.38,110.25H30.27a2.24,2.24,0,0,0,.52,1.53,1.82,1.82,0,0,0,1.38.53,2.83,2.83,0,0,0,1.81-.66v.89a3.32,3.32,0,0,1-2,.57A2.43,2.43,0,0,1,30,112.3,3.31,3.31,0,0,1,29.3,110a3.26,3.26,0,0,1,.77-2.24,2.46,2.46,0,0,1,1.92-.87,2.18,2.18,0,0,1,1.77.75,3.19,3.19,0,0,1,.62,2.08Zm-1-.8a2,2,0,0,0-.39-1.27,1.35,1.35,0,0,0-1.07-.46,1.54,1.54,0,0,0-1.12.48,2.17,2.17,0,0,0-.57,1.25Z"/><path class="cls-12" d="M38.15,112.91a1.81,1.81,0,0,1-.87.19c-1,0-1.53-.58-1.53-1.73v-3.49h-1v-.81h1v-1.44l.93-.31v1.75h1.47v.81H36.68v3.32a1.41,1.41,0,0,0,.2.85.78.78,0,0,0,.66.25,1,1,0,0,0,.61-.2Z"/><path class="cls-12" d="M43.11,107.34l-3.45,4.82h3.41V113H38.29v-.3l3.45-4.79H38.61v-.81h4.5Z"/><path class="cls-12" d="M51.31,107.07,49.56,113h-1l-1.2-4.22a4.21,4.21,0,0,1-.09-.55h0a2.27,2.27,0,0,1-.12.53L45.86,113h-.94l-1.76-5.9h1l1.2,4.44a2.19,2.19,0,0,1,.08.52h0a2.4,2.4,0,0,1,.1-.54l1.34-4.42h.86l1.2,4.45a3,3,0,0,1,.09.53h0a2.35,2.35,0,0,1,.09-.53l1.19-4.45Z"/><path class="cls-12" d="M56.72,110.25H52.61a2.24,2.24,0,0,0,.52,1.53,1.84,1.84,0,0,0,1.38.53,2.83,2.83,0,0,0,1.81-.66v.89a3.32,3.32,0,0,1-2,.57,2.43,2.43,0,0,1-1.94-.81,3.31,3.31,0,0,1-.71-2.26,3.26,3.26,0,0,1,.77-2.24,2.48,2.48,0,0,1,1.92-.87,2.18,2.18,0,0,1,1.77.75,3.13,3.13,0,0,1,.62,2.08Zm-.95-.8a2,2,0,0,0-.39-1.27,1.34,1.34,0,0,0-1.07-.46,1.54,1.54,0,0,0-1.12.48,2.17,2.17,0,0,0-.57,1.25Z"/><path class="cls-12" d="M60.83,108a1.25,1.25,0,0,0-1.71.38,2.67,2.67,0,0,0-.4,1.56v3h-.93v-5.9h.93v1.21h0a2.21,2.21,0,0,1,.61-1,1.41,1.41,0,0,1,.92-.35,1.39,1.39,0,0,1,.56.09Z"/><path class="cls-12" d="M66.33,113H65l-2.57-2.84h0V113h-.93v-8.74h.93v5.54h0l2.44-2.7h1.23l-2.71,2.84Z"/><path class="cls-12" d="M67.87,113h-.94v-8.74h.94Z"/><path class="cls-12" d="M74.09,110.25H70a2.24,2.24,0,0,0,.52,1.53,1.81,1.81,0,0,0,1.38.53,2.85,2.85,0,0,0,1.81-.66v.89a3.32,3.32,0,0,1-2,.57,2.43,2.43,0,0,1-1.94-.81,3.79,3.79,0,0,1,.06-4.5,2.45,2.45,0,0,1,1.92-.87,2.18,2.18,0,0,1,1.77.75,3.19,3.19,0,0,1,.62,2.08Zm-1-.8a2,2,0,0,0-.39-1.27,1.35,1.35,0,0,0-1.07-.46,1.52,1.52,0,0,0-1.12.48,2.17,2.17,0,0,0-.57,1.25Z"/><path class="cls-12" d="M75.63,105.57a.62.62,0,0,1-.42-1,.56.56,0,0,1,.42-.18.6.6,0,0,1,.44.18.59.59,0,0,1,.18.44.58.58,0,0,1-.18.43A.6.6,0,0,1,75.63,105.57Zm.46,7.4h-.94v-5.9h.94Z"/><path class="cls-12" d="M77.27,112.76v-1a2.75,2.75,0,0,0,1.68.57c.82,0,1.23-.28,1.23-.83a.72.72,0,0,0-.1-.4,1.14,1.14,0,0,0-.29-.29,2.73,2.73,0,0,0-.42-.23l-.52-.21a7.46,7.46,0,0,1-.68-.31,2.39,2.39,0,0,1-.49-.36,1.2,1.2,0,0,1-.29-.45,1.55,1.55,0,0,1-.1-.59,1.47,1.47,0,0,1,.18-.74,1.87,1.87,0,0,1,.51-.54,2.2,2.2,0,0,1,.71-.32,3.26,3.26,0,0,1,.83-.11,3.42,3.42,0,0,1,1.35.26v1a2.65,2.65,0,0,0-1.48-.43,1.72,1.72,0,0,0-.47.07,1,1,0,0,0-.36.17.71.71,0,0,0-.23.26.64.64,0,0,0-.09.34.74.74,0,0,0,.09.38.78.78,0,0,0,.24.28,1.9,1.9,0,0,0,.38.22l.52.21a6.64,6.64,0,0,1,.7.31,2.25,2.25,0,0,1,.52.35,1.45,1.45,0,0,1,.33.46,1.49,1.49,0,0,1,.12.62,1.45,1.45,0,0,1-.19.76,1.75,1.75,0,0,1-.51.54,2.4,2.4,0,0,1-.73.31,3.6,3.6,0,0,1-.88.11A3.35,3.35,0,0,1,77.27,112.76Z"/><path class="cls-12" d="M84.93,112.91a1.81,1.81,0,0,1-.87.19c-1,0-1.53-.58-1.53-1.73v-3.49h-1v-.81h1v-1.44l.93-.31v1.75h1.47v.81H83.46v3.32a1.41,1.41,0,0,0,.2.85.78.78,0,0,0,.66.25,1,1,0,0,0,.61-.2Z"/><path class="cls-12" d="M90.54,113H89.6V112h0a1.92,1.92,0,0,1-1.8,1.08c-1.39,0-2.08-.84-2.08-2.52v-3.52h.93v3.37c0,1.25.47,1.87,1.41,1.87a1.41,1.41,0,0,0,1.12-.51,1.93,1.93,0,0,0,.44-1.33v-3.4h.94Z"/><path class="cls-12" d="M96.91,113H96V109.6c0-1.25-.46-1.88-1.36-1.88a1.47,1.47,0,0,0-1.16.54A2,2,0,0,0,93,109.6V113h-.94v-5.9H93v1h0a2.09,2.09,0,0,1,1.91-1.12,1.75,1.75,0,0,1,1.46.63,2.76,2.76,0,0,1,.51,1.8Z"/><path class="cls-12" d="M103.29,112.5c0,2.16-1,3.25-3.07,3.25a4.05,4.05,0,0,1-1.89-.42v-.94a3.94,3.94,0,0,0,1.88.55c1.43,0,2.15-.77,2.15-2.32V112h0a2.34,2.34,0,0,1-3.76.34,3.17,3.17,0,0,1-.66-2.11,3.74,3.74,0,0,1,.71-2.39,2.39,2.39,0,0,1,2-.89,1.89,1.89,0,0,1,1.75,1h0v-.82h.93Zm-.93-2.2v-.87a1.69,1.69,0,0,0-.47-1.2,1.52,1.52,0,0,0-1.17-.51,1.61,1.61,0,0,0-1.35.64,2.85,2.85,0,0,0-.49,1.78,2.42,2.42,0,0,0,.47,1.58,1.5,1.5,0,0,0,1.24.59,1.64,1.64,0,0,0,1.28-.56A2.12,2.12,0,0,0,102.36,110.3Z"/><path class="cls-12" d="M44.36,127.47h-.93v-1h0a2.15,2.15,0,0,1-2,1.14,2.18,2.18,0,0,1-1.76-.8,3.28,3.28,0,0,1-.65-2.15,3.55,3.55,0,0,1,.73-2.35,2.37,2.37,0,0,1,1.94-.88,1.85,1.85,0,0,1,1.74,1h0v-3.66h.93Zm-.93-2.67v-.87a1.7,1.7,0,0,0-.47-1.21,1.56,1.56,0,0,0-1.18-.5,1.63,1.63,0,0,0-1.35.64,2.84,2.84,0,0,0-.49,1.75,2.53,2.53,0,0,0,.47,1.61,1.56,1.56,0,0,0,1.26.59,1.59,1.59,0,0,0,1.27-.57A2.16,2.16,0,0,0,43.43,124.8Z"/><path class="cls-12" d="M50.58,124.75H46.47a2.24,2.24,0,0,0,.52,1.53,1.84,1.84,0,0,0,1.38.53,2.83,2.83,0,0,0,1.81-.66V127a3.32,3.32,0,0,1-2,.57,2.44,2.44,0,0,1-1.94-.81,3.31,3.31,0,0,1-.71-2.26,3.26,3.26,0,0,1,.77-2.24,2.48,2.48,0,0,1,1.92-.87,2.18,2.18,0,0,1,1.77.75,3.13,3.13,0,0,1,.62,2.08Zm-.95-.8a2,2,0,0,0-.39-1.27,1.34,1.34,0,0,0-1.07-.46,1.54,1.54,0,0,0-1.12.48,2.17,2.17,0,0,0-.57,1.25Z"/><path class="cls-12" d="M54.69,122.52a1.25,1.25,0,0,0-1.71.38,2.67,2.67,0,0,0-.4,1.56v3h-.93v-5.9h.93v1.21h0a2.21,2.21,0,0,1,.61-1,1.41,1.41,0,0,1,.92-.35,1.39,1.39,0,0,1,.56.09Z"/><path class="cls-12" d="M63.87,127.12a4.62,4.62,0,0,1-2.25.49,3.61,3.61,0,0,1-2.79-1.14,4.2,4.2,0,0,1-1-3,4.43,4.43,0,0,1,1.18-3.2,4,4,0,0,1,3-1.22,4.65,4.65,0,0,1,1.92.34v1a3.86,3.86,0,0,0-1.93-.5,3,3,0,0,0-2.28,1,3.64,3.64,0,0,0-.87,2.54,3.46,3.46,0,0,0,.81,2.41,2.77,2.77,0,0,0,2.15.9,4,4,0,0,0,2.12-.56Z"/><path class="cls-12" d="M66,127.47h-.93v-8.74H66Z"/><path class="cls-12" d="M70,127.61a2.68,2.68,0,0,1-2.06-.83,3.05,3.05,0,0,1-.77-2.19,3.18,3.18,0,0,1,.8-2.32,2.85,2.85,0,0,1,2.17-.84,2.59,2.59,0,0,1,2,.81,3.25,3.25,0,0,1,.73,2.26,3.22,3.22,0,0,1-.78,2.26A2.79,2.79,0,0,1,70,127.61Zm.07-5.39a1.77,1.77,0,0,0-1.42.62,2.59,2.59,0,0,0-.53,1.71,2.47,2.47,0,0,0,.53,1.66,1.8,1.8,0,0,0,1.42.6,1.71,1.71,0,0,0,1.39-.59,2.58,2.58,0,0,0,.49-1.69,2.62,2.62,0,0,0-.49-1.71A1.71,1.71,0,0,0,70,122.22Z"/><path class="cls-12" d="M78.73,127.47h-.94v-.94h0a1.91,1.91,0,0,1-1.8,1.08c-1.39,0-2.08-.84-2.08-2.52v-3.52h.93v3.37c0,1.25.47,1.87,1.41,1.87a1.41,1.41,0,0,0,1.12-.51,1.93,1.93,0,0,0,.44-1.33v-3.4h.94Z"/><path class="cls-12" d="M85.24,127.47H84.3v-1h0a2.33,2.33,0,0,1-3.76.34,3.23,3.23,0,0,1-.66-2.15,3.61,3.61,0,0,1,.73-2.35,2.38,2.38,0,0,1,1.94-.88,1.86,1.86,0,0,1,1.75,1h0v-3.66h.94Zm-.94-2.67v-.87a1.69,1.69,0,0,0-.46-1.21,1.58,1.58,0,0,0-1.19-.5,1.61,1.61,0,0,0-1.34.64,2.78,2.78,0,0,0-.49,1.75,2.53,2.53,0,0,0,.47,1.61,1.53,1.53,0,0,0,1.26.59,1.6,1.6,0,0,0,1.27-.57A2.16,2.16,0,0,0,84.3,124.8Z"/><path class="cls-12" d="M163.56,189.12h-4.29v-8.27h1v7.39h3.32Z"/><path class="cls-12" d="M167.11,189.26a2.73,2.73,0,0,1-2.09-.83,3.06,3.06,0,0,1-.78-2.19,3.22,3.22,0,0,1,.81-2.33,2.94,2.94,0,0,1,2.2-.83,2.66,2.66,0,0,1,2.06.81,3.23,3.23,0,0,1,.74,2.25,3.19,3.19,0,0,1-.8,2.27A2.82,2.82,0,0,1,167.11,189.26Zm.07-5.39a1.83,1.83,0,0,0-1.45.62,2.59,2.59,0,0,0-.53,1.71,2.42,2.42,0,0,0,.54,1.66,1.84,1.84,0,0,0,1.44.6,1.71,1.71,0,0,0,1.4-.59,2.58,2.58,0,0,0,.5-1.69,2.62,2.62,0,0,0-.5-1.71A1.69,1.69,0,0,0,167.18,183.87Z"/><path class="cls-12" d="M176.4,189.12h-1.33l-2.6-2.84h0v2.84h-.94v-8.74h.94v5.54h0l2.47-2.7h1.24l-2.73,2.84Z"/><path class="cls-12" d="M181.53,189.12h-.94v-.92h0a2,2,0,0,1-1.81,1.06,1.94,1.94,0,0,1-1.38-.47,1.6,1.6,0,0,1-.5-1.24q0-1.65,1.95-1.92l1.77-.25c0-1-.41-1.51-1.22-1.51a3,3,0,0,0-1.93.73v-1a3.65,3.65,0,0,1,2-.55c1.39,0,2.08.73,2.08,2.2Zm-.94-3-1.43.2a2.34,2.34,0,0,0-1,.32,1,1,0,0,0-.33.83.9.9,0,0,0,.31.71,1.18,1.18,0,0,0,.82.27,1.51,1.51,0,0,0,1.16-.49,1.8,1.8,0,0,0,.46-1.25Z"/><path class="cls-12" d="M184.2,189.12h-.95v-8.74h.95Z"/><path class="cls-12" d="M190.59,155.86h-1v-3.77h-4.17v3.77h-.95V147.6h.95v3.62h4.17V147.6h1Z"/><path class="cls-12" d="M196.58,155.86h-.92v-.92h0a1.93,1.93,0,0,1-1.77,1.06,1.88,1.88,0,0,1-1.35-.47,1.65,1.65,0,0,1-.49-1.24c0-1.1.64-1.74,1.91-1.92l1.72-.25c0-1-.39-1.51-1.18-1.51a2.81,2.81,0,0,0-1.88.73v-1a3.48,3.48,0,0,1,2-.55c1.36,0,2,.73,2,2.2Zm-.92-3-1.39.2a2.24,2.24,0,0,0-1,.32,1,1,0,0,0-.33.83.93.93,0,0,0,.3.71,1.16,1.16,0,0,0,.8.27,1.43,1.43,0,0,0,1.13-.49,1.79,1.79,0,0,0,.45-1.25Z"/><path class="cls-12" d="M201.21,150.91a1.14,1.14,0,0,0-.7-.19,1.19,1.19,0,0,0-1,.57,2.75,2.75,0,0,0-.39,1.56v3h-.92V150h.92v1.21h0a2.06,2.06,0,0,1,.6-1,1.39,1.39,0,0,1,.91-.35,1.56,1.56,0,0,1,.55.08Z"/><path class="cls-12" d="M207,155.86h-.92v-1h0a2.1,2.1,0,0,1-2,1.15,2.12,2.12,0,0,1-1.73-.8,3.28,3.28,0,0,1-.65-2.15,3.6,3.6,0,0,1,.72-2.35,2.35,2.35,0,0,1,1.92-.88,1.82,1.82,0,0,1,1.72,1h0v-3.66H207Zm-.92-2.67v-.87a1.74,1.74,0,0,0-.46-1.21,1.54,1.54,0,0,0-1.17-.5,1.58,1.58,0,0,0-1.33.64,2.84,2.84,0,0,0-.48,1.75,2.53,2.53,0,0,0,.46,1.61,1.51,1.51,0,0,0,1.25.59,1.56,1.56,0,0,0,1.25-.57A2.16,2.16,0,0,0,206.09,153.19Z"/><path class="cls-12" d="M216,150l-1.73,5.9h-1l-1.18-4.23a2.17,2.17,0,0,1-.09-.54h0a3.13,3.13,0,0,1-.11.53l-1.29,4.24h-.92L208,150h1l1.19,4.43a2.38,2.38,0,0,1,.08.53h.05a2.3,2.3,0,0,1,.1-.54l1.32-4.42h.85l1.19,4.45a2.28,2.28,0,0,1,.08.53h.05a3.09,3.09,0,0,1,.09-.53L215.1,150Z"/><path class="cls-12" d="M221.09,155.86h-.92v-.92h0a2,2,0,0,1-1.78,1.06,1.85,1.85,0,0,1-1.34-.47,1.61,1.61,0,0,1-.49-1.24c0-1.1.63-1.74,1.9-1.92l1.73-.25c0-1-.4-1.51-1.19-1.51a2.83,2.83,0,0,0-1.88.73v-1a3.51,3.51,0,0,1,2-.55c1.35,0,2,.73,2,2.2Zm-.92-3-1.39.2a2.29,2.29,0,0,0-1,.32,1,1,0,0,0-.32.83.93.93,0,0,0,.3.71,1.14,1.14,0,0,0,.8.27,1.45,1.45,0,0,0,1.13-.49,1.79,1.79,0,0,0,.45-1.25Z"/><path class="cls-12" d="M225.72,150.91a1.22,1.22,0,0,0-1.69.38,2.75,2.75,0,0,0-.4,1.56v3h-.92V150h.92v1.21h0a2.06,2.06,0,0,1,.6-1,1.36,1.36,0,0,1,.9-.35,1.62,1.62,0,0,1,.56.08Z"/><path class="cls-12" d="M231.23,153.14h-4.07a2.29,2.29,0,0,0,.52,1.53,1.78,1.78,0,0,0,1.36.53,2.77,2.77,0,0,0,1.79-.66v.89a3.26,3.26,0,0,1-2,.57,2.38,2.38,0,0,1-1.91-.81,3.31,3.31,0,0,1-.7-2.26,3.25,3.25,0,0,1,.76-2.24,2.42,2.42,0,0,1,1.89-.87,2.13,2.13,0,0,1,1.75.75,3.19,3.19,0,0,1,.62,2.08Zm-.95-.8a1.94,1.94,0,0,0-.38-1.27,1.32,1.32,0,0,0-1.06-.46,1.46,1.46,0,0,0-1.1.48,2.23,2.23,0,0,0-.57,1.25Z"/><path class="cls-12" d="M240.33,155.86h-.92v-3.37c0-1.25-.45-1.88-1.34-1.88a1.44,1.44,0,0,0-1.15.54,2,2,0,0,0-.45,1.34v3.37h-.92V150h.92v1h0a2.07,2.07,0,0,1,1.89-1.12,1.78,1.78,0,0,1,1.45.62,2.87,2.87,0,0,1,.5,1.81Z"/><path class="cls-12" d="M246.07,155.86h-.92v-.92h0a1.93,1.93,0,0,1-1.77,1.06,1.86,1.86,0,0,1-1.35-.47,1.61,1.61,0,0,1-.49-1.24c0-1.1.64-1.74,1.9-1.92l1.73-.25c0-1-.4-1.51-1.19-1.51a2.83,2.83,0,0,0-1.88.73v-1a3.51,3.51,0,0,1,2-.55c1.36,0,2,.73,2,2.2Zm-.92-3-1.39.2a2.29,2.29,0,0,0-1,.32,1,1,0,0,0-.32.83.93.93,0,0,0,.3.71,1.16,1.16,0,0,0,.8.27,1.45,1.45,0,0,0,1.13-.49,1.79,1.79,0,0,0,.45-1.25Z"/><path class="cls-12" d="M251.62,155.59A3,3,0,0,1,250,156a2.58,2.58,0,0,1-2-.82,3,3,0,0,1-.76-2.13,3.3,3.3,0,0,1,.82-2.35,2.79,2.79,0,0,1,2.17-.88,3,3,0,0,1,1.34.29v1a2.29,2.29,0,0,0-1.37-.47,1.85,1.85,0,0,0-1.45.65,2.48,2.48,0,0,0-.56,1.71,2.34,2.34,0,0,0,.53,1.63,1.8,1.8,0,0,0,1.42.6,2.29,2.29,0,0,0,1.42-.51Z"/><path class="cls-12" d="M257.68,155.86h-.92v-3.4c0-1.23-.45-1.85-1.34-1.85a1.45,1.45,0,0,0-1.14.54,2,2,0,0,0-.46,1.37v3.34h-.92v-8.74h.92v3.82h0a2.1,2.1,0,0,1,1.89-1.12q1.95,0,2,2.4Z"/><path class="cls-12" d="M262.46,155.86V147.6h2.3a2.46,2.46,0,0,1,1.66.52,1.7,1.7,0,0,1,.61,1.37,2,2,0,0,1-.37,1.22,2,2,0,0,1-1,.73v0a2,2,0,0,1,1.3.63,1.94,1.94,0,0,1,.49,1.38,2.2,2.2,0,0,1-.74,1.72,2.73,2.73,0,0,1-1.88.66Zm1-7.39v2.67h1a1.85,1.85,0,0,0,1.22-.38,1.38,1.38,0,0,0,.44-1.08c0-.81-.51-1.21-1.55-1.21Zm0,3.54v3h1.28a1.86,1.86,0,0,0,1.29-.4,1.39,1.39,0,0,0,.46-1.11c0-1-.65-1.46-1.95-1.46Z"/><path class="cls-12" d="M271.83,150.91a1.14,1.14,0,0,0-.7-.19,1.16,1.16,0,0,0-1,.57,2.67,2.67,0,0,0-.4,1.56v3h-.92V150h.92v1.21h0a2.06,2.06,0,0,1,.6-1,1.39,1.39,0,0,1,.91-.35,1.56,1.56,0,0,1,.55.08Z"/><path class="cls-12" d="M276.84,155.86h-.92v-.92h0a1.93,1.93,0,0,1-1.77,1.06,1.9,1.9,0,0,1-1.35-.47,1.64,1.64,0,0,1-.48-1.24c0-1.1.63-1.74,1.9-1.92l1.73-.25c0-1-.4-1.51-1.19-1.51a2.83,2.83,0,0,0-1.88.73v-1a3.51,3.51,0,0,1,2-.55c1.35,0,2,.73,2,2.2Zm-.92-3-1.39.2a2.29,2.29,0,0,0-1,.32,1,1,0,0,0-.33.83.93.93,0,0,0,.3.71,1.16,1.16,0,0,0,.8.27,1.47,1.47,0,0,0,1.14-.49,1.79,1.79,0,0,0,.45-1.25Z"/><path class="cls-12" d="M283.24,155.86h-.92v-3.37c0-1.25-.45-1.88-1.34-1.88a1.45,1.45,0,0,0-1.15.54,2,2,0,0,0-.45,1.34v3.37h-.92V150h.92v1h0a2.07,2.07,0,0,1,1.89-1.12,1.76,1.76,0,0,1,1.45.62,2.87,2.87,0,0,1,.5,1.81Z"/><path class="cls-12" d="M288.79,155.59a3,3,0,0,1-1.58.41,2.62,2.62,0,0,1-2-.82,3,3,0,0,1-.75-2.13,3.34,3.34,0,0,1,.81-2.35,2.83,2.83,0,0,1,2.18-.88,3,3,0,0,1,1.34.29v1a2.32,2.32,0,0,0-1.37-.47,1.85,1.85,0,0,0-1.45.65,2.49,2.49,0,0,0-.57,1.71,2.39,2.39,0,0,0,.53,1.63,1.82,1.82,0,0,0,1.43.6,2.31,2.31,0,0,0,1.42-.51Z"/><path class="cls-12" d="M294.85,155.86h-.93v-3.4c0-1.23-.44-1.85-1.33-1.85a1.45,1.45,0,0,0-1.14.54,2,2,0,0,0-.46,1.37v3.34h-.92v-8.74H291v3.82h0a2.07,2.07,0,0,1,1.89-1.12q2,0,2,2.4Z"/><path class="cls-12" d="M301.1,153.14H297a2.29,2.29,0,0,0,.52,1.53,1.78,1.78,0,0,0,1.36.53,2.79,2.79,0,0,0,1.79-.66v.89a3.28,3.28,0,0,1-2,.57,2.41,2.41,0,0,1-1.92-.81,3.36,3.36,0,0,1-.69-2.26,3.25,3.25,0,0,1,.76-2.24,2.4,2.4,0,0,1,1.89-.87,2.14,2.14,0,0,1,1.75.75,3.19,3.19,0,0,1,.62,2.08Zm-1-.8a1.94,1.94,0,0,0-.38-1.27,1.33,1.33,0,0,0-1.06-.46,1.49,1.49,0,0,0-1.11.48,2.22,2.22,0,0,0-.56,1.25Z"/><path class="cls-12" d="M307.16,155.86h-.93v-3.37c0-1.25-.44-1.88-1.33-1.88a1.43,1.43,0,0,0-1.15.54,2,2,0,0,0-.45,1.34v3.37h-.92V150h.92v1h0a2.05,2.05,0,0,1,1.89-1.12,1.78,1.78,0,0,1,1.45.62,2.87,2.87,0,0,1,.5,1.81Z"/><path class="cls-12" d="M308.43,155.64v-1a2.67,2.67,0,0,0,1.66.57c.81,0,1.21-.28,1.21-.83a.72.72,0,0,0-.1-.4,1,1,0,0,0-.28-.29,2.73,2.73,0,0,0-.42-.23l-.51-.21a7.46,7.46,0,0,1-.68-.31,2.31,2.31,0,0,1-.48-.36,1.2,1.2,0,0,1-.29-.45,1.57,1.57,0,0,1-.1-.6,1.37,1.37,0,0,1,.19-.73,1.68,1.68,0,0,1,.49-.54,2.3,2.3,0,0,1,.71-.32,3.1,3.1,0,0,1,.81-.11,3.34,3.34,0,0,1,1.34.26v1a2.59,2.59,0,0,0-1.46-.43,1.72,1.72,0,0,0-.47.07,1,1,0,0,0-.35.17.71.71,0,0,0-.23.26.63.63,0,0,0-.09.33.75.75,0,0,0,.09.39.78.78,0,0,0,.24.28,1.9,1.9,0,0,0,.38.22l.51.21a7.47,7.47,0,0,1,.69.31,2.18,2.18,0,0,1,.51.35,1.45,1.45,0,0,1,.33.46,1.49,1.49,0,0,1,.12.62,1.56,1.56,0,0,1-.19.76,1.75,1.75,0,0,1-.51.54,2.34,2.34,0,0,1-.72.31,3.43,3.43,0,0,1-.86.11A3.13,3.13,0,0,1,308.43,155.64Z"/><path class="cls-12" d="M316.22,155.8a1.77,1.77,0,0,1-.86.18c-1,0-1.51-.57-1.51-1.72v-3.5h-1V150h1v-1.44l.92-.31V150h1.45v.8h-1.45v3.33a1.37,1.37,0,0,0,.2.85.79.79,0,0,0,.65.25,1,1,0,0,0,.6-.2Z"/><path class="cls-12" d="M321.46,155.86h-.92v-.92h0a1.93,1.93,0,0,1-1.77,1.06,1.85,1.85,0,0,1-1.34-.47,1.61,1.61,0,0,1-.49-1.24c0-1.1.63-1.74,1.9-1.92l1.73-.25c0-1-.4-1.51-1.19-1.51a2.83,2.83,0,0,0-1.88.73v-1a3.51,3.51,0,0,1,2-.55c1.35,0,2,.73,2,2.2Zm-.92-3-1.39.2a2.29,2.29,0,0,0-1,.32,1,1,0,0,0-.33.83.9.9,0,0,0,.31.71,1.14,1.14,0,0,0,.8.27,1.46,1.46,0,0,0,1.13-.49,1.79,1.79,0,0,0,.45-1.25Z"/><path class="cls-12" d="M327.86,155.86h-.92v-3.37c0-1.25-.45-1.88-1.34-1.88a1.42,1.42,0,0,0-1.14.54,2,2,0,0,0-.46,1.34v3.37h-.92V150H324v1h0a2.05,2.05,0,0,1,1.89-1.12,1.76,1.76,0,0,1,1.44.62,2.87,2.87,0,0,1,.5,1.81Z"/><path class="cls-12" d="M334.4,155.86h-.93v-1h0a2.28,2.28,0,0,1-3.71.35,3.23,3.23,0,0,1-.65-2.15,3.6,3.6,0,0,1,.72-2.35,2.35,2.35,0,0,1,1.92-.88,1.83,1.83,0,0,1,1.72,1h0v-3.66h.93Zm-.93-2.67v-.87a1.69,1.69,0,0,0-.46-1.21,1.51,1.51,0,0,0-1.17-.5,1.58,1.58,0,0,0-1.32.64A2.78,2.78,0,0,0,330,153a2.53,2.53,0,0,0,.47,1.61,1.5,1.5,0,0,0,1.24.59,1.55,1.55,0,0,0,1.25-.57A2.16,2.16,0,0,0,333.47,153.19Z"/><path class="cls-12" d="M340.27,155.86h-.92v-.92h0a2,2,0,0,1-1.78,1.06,1.85,1.85,0,0,1-1.34-.47,1.61,1.61,0,0,1-.49-1.24c0-1.1.64-1.74,1.9-1.92l1.73-.25c0-1-.4-1.51-1.19-1.51a2.83,2.83,0,0,0-1.88.73v-1a3.51,3.51,0,0,1,2-.55c1.35,0,2,.73,2,2.2Zm-.92-3-1.39.2a2.29,2.29,0,0,0-1,.32,1,1,0,0,0-.32.83.93.93,0,0,0,.3.71,1.14,1.14,0,0,0,.8.27,1.45,1.45,0,0,0,1.13-.49,1.79,1.79,0,0,0,.45-1.25Z"/><path class="cls-12" d="M344.9,150.91a1.17,1.17,0,0,0-.7-.19,1.19,1.19,0,0,0-1,.57,2.75,2.75,0,0,0-.39,1.56v3h-.93V150h.93v1.21h0a2.06,2.06,0,0,1,.6-1,1.36,1.36,0,0,1,.9-.35,1.62,1.62,0,0,1,.56.08Z"/><path class="cls-12" d="M350.7,155.86h-.93v-1h0a2.28,2.28,0,0,1-3.71.35,3.23,3.23,0,0,1-.65-2.15,3.6,3.6,0,0,1,.72-2.35,2.35,2.35,0,0,1,1.92-.88,1.83,1.83,0,0,1,1.72,1h0v-3.66h.93Zm-.93-2.67v-.87a1.69,1.69,0,0,0-.46-1.21,1.51,1.51,0,0,0-1.17-.5,1.58,1.58,0,0,0-1.32.64,2.78,2.78,0,0,0-.49,1.75,2.53,2.53,0,0,0,.47,1.61,1.5,1.5,0,0,0,1.24.59,1.55,1.55,0,0,0,1.25-.57A2.16,2.16,0,0,0,349.77,153.19Z"/><path class="cls-12" d="M29.56,155.86h-1l-.85-2.32H24.24l-.8,2.32H22.39l3.09-8.26h1Zm-2.21-3.19-1.26-3.52a2.47,2.47,0,0,1-.13-.55h0a3.21,3.21,0,0,1-.13.55l-1.25,3.52Z"/><path class="cls-12" d="M34.52,150.23l-3.4,4.82h3.37v.81H29.76v-.3l3.41-4.8H30.08V150h4.44Z"/><path class="cls-12" d="M40.26,155.86h-.93v-.94h0A1.88,1.88,0,0,1,37.53,156c-1.37,0-2.05-.84-2.05-2.52V150h.91v3.37c0,1.25.47,1.87,1.4,1.87a1.39,1.39,0,0,0,1.11-.51,2,2,0,0,0,.43-1.33V150h.93Z"/><path class="cls-12" d="M45,150.91a1.19,1.19,0,0,0-.7-.19,1.17,1.17,0,0,0-1,.57,2.75,2.75,0,0,0-.4,1.56v3H42V150h.92v1.21h0a2.06,2.06,0,0,1,.6-1,1.36,1.36,0,0,1,.9-.35,1.62,1.62,0,0,1,.56.08Z"/><path class="cls-12" d="M50.52,153.14H46.45a2.29,2.29,0,0,0,.52,1.53,1.78,1.78,0,0,0,1.36.53,2.79,2.79,0,0,0,1.79-.66v.89a3.28,3.28,0,0,1-2,.57,2.41,2.41,0,0,1-1.92-.81,3.36,3.36,0,0,1-.69-2.26,3.25,3.25,0,0,1,.76-2.24,2.42,2.42,0,0,1,1.89-.87,2.14,2.14,0,0,1,1.75.75,3.19,3.19,0,0,1,.62,2.08Zm-1-.8a1.94,1.94,0,0,0-.38-1.27,1.32,1.32,0,0,0-1.06-.46,1.46,1.46,0,0,0-1.1.48,2.17,2.17,0,0,0-.57,1.25Z"/><path class="cls-12" d="M54.74,152.94H51.67v-.74h3.07Z"/><path class="cls-12" d="M62.47,155.86h-.94v-3.77H57.36v3.77h-1V147.6h1v3.62h4.17V147.6h.94Z"/><path class="cls-12" d="M68.47,155.86h-.92v-.92h0A2,2,0,0,1,65.75,156a1.85,1.85,0,0,1-1.34-.47,1.61,1.61,0,0,1-.49-1.24c0-1.1.64-1.74,1.9-1.92l1.73-.25c0-1-.4-1.51-1.19-1.51a2.83,2.83,0,0,0-1.88.73v-1a3.51,3.51,0,0,1,2-.55c1.35,0,2,.73,2,2.2Zm-.92-3-1.39.2a2.29,2.29,0,0,0-1,.32,1,1,0,0,0-.32.83.93.93,0,0,0,.3.71,1.14,1.14,0,0,0,.8.27,1.45,1.45,0,0,0,1.13-.49,1.79,1.79,0,0,0,.45-1.25Z"/><path class="cls-12" d="M73.1,150.91a1.17,1.17,0,0,0-.7-.19,1.19,1.19,0,0,0-1,.57,2.75,2.75,0,0,0-.39,1.56v3h-.93V150H71v1.21h0a2.06,2.06,0,0,1,.6-1,1.36,1.36,0,0,1,.9-.35,1.62,1.62,0,0,1,.56.08Z"/><path class="cls-12" d="M78.9,155.86H78v-1h0a2.28,2.28,0,0,1-3.71.35,3.23,3.23,0,0,1-.65-2.15,3.6,3.6,0,0,1,.72-2.35,2.35,2.35,0,0,1,1.92-.88,1.83,1.83,0,0,1,1.72,1h0v-3.66h.93ZM78,153.19v-.87a1.69,1.69,0,0,0-.46-1.21,1.51,1.51,0,0,0-1.17-.5,1.58,1.58,0,0,0-1.32.64,2.78,2.78,0,0,0-.49,1.75,2.53,2.53,0,0,0,.47,1.61,1.5,1.5,0,0,0,1.24.59,1.55,1.55,0,0,0,1.25-.57A2.16,2.16,0,0,0,78,153.19Z"/><path class="cls-12" d="M87.9,150l-1.72,5.9h-1L84,151.63a3.79,3.79,0,0,1-.09-.54h0a2.51,2.51,0,0,1-.12.53l-1.28,4.24h-.93L79.85,150h1L82,154.39a3.15,3.15,0,0,1,.08.53h0a3,3,0,0,1,.1-.54L83.56,150h.84l1.2,4.45a4.34,4.34,0,0,1,.08.53h0a2.35,2.35,0,0,1,.09-.53L87,150Z"/><path class="cls-12" d="M93,155.86h-.93v-.92h0A1.93,1.93,0,0,1,90.26,156a1.9,1.9,0,0,1-1.35-.47,1.64,1.64,0,0,1-.48-1.24c0-1.1.63-1.74,1.9-1.92l1.72-.25c0-1-.39-1.51-1.18-1.51a2.81,2.81,0,0,0-1.88.73v-1a3.51,3.51,0,0,1,2-.55c1.35,0,2,.73,2,2.2Zm-.93-3-1.38.2a2.29,2.29,0,0,0-1,.32,1,1,0,0,0-.33.83.93.93,0,0,0,.3.71,1.16,1.16,0,0,0,.8.27,1.47,1.47,0,0,0,1.14-.49,1.79,1.79,0,0,0,.44-1.25Z"/><path class="cls-12" d="M97.6,150.91a1.14,1.14,0,0,0-.7-.19,1.16,1.16,0,0,0-1,.57,2.67,2.67,0,0,0-.4,1.56v3H94.6V150h.92v1.21h0a2.16,2.16,0,0,1,.61-1,1.36,1.36,0,0,1,.9-.35,1.56,1.56,0,0,1,.55.08Z"/><path class="cls-12" d="M103.12,153.14H99.05a2.24,2.24,0,0,0,.52,1.53,1.78,1.78,0,0,0,1.36.53,2.79,2.79,0,0,0,1.79-.66v.89a3.28,3.28,0,0,1-2,.57,2.41,2.41,0,0,1-1.92-.81,3.36,3.36,0,0,1-.7-2.26,3.26,3.26,0,0,1,.77-2.24,2.39,2.39,0,0,1,1.89-.87,2.16,2.16,0,0,1,1.75.75,3.19,3.19,0,0,1,.62,2.08Zm-1-.8a1.94,1.94,0,0,0-.38-1.27,1.33,1.33,0,0,0-1.06-.46,1.49,1.49,0,0,0-1.11.48,2.22,2.22,0,0,0-.56,1.25Z"/></g></svg>